<?xml version="1.0" encoding="utf-8"?>
<!-- Generator: Adobe Illustrator 15.0.2, SVG Export Plug-In . SVG Version: 6.00 Build 0)  -->
<!DOCTYPE svg PUBLIC "-//W3C//DTD SVG 1.1//EN" "http://www.w3.org/Graphics/SVG/1.1/DTD/svg11.dtd">
<svg version="1.1" id="Layer_1" xmlns="http://www.w3.org/2000/svg" xmlns:xlink="http://www.w3.org/1999/xlink" x="0px" y="0px"
	 width="1158.8px" height="770.9px" viewBox="0 0 1158.8 770.9" enable-background="new 0 0 1158.8 770.9" xml:space="preserve">
<rect fill="#7CDBB0" width="1158.8" height="770.9"/>
<g>
	<g opacity="0.5">
		<g>
			<polygon fill="#A7E9CB" points="448.4,633.4 397.9,604.1 448.7,574.8 499.2,604.1 			"/>
		</g>
		<g>
			<polygon fill="#49B685" points="448.8,574.8 398.3,545.4 449.1,516.1 499.6,545.4 			"/>
		</g>
		<g>
			<polygon fill="#A7E9CB" points="449.8,398.7 399.3,369.4 450.1,340 500.6,369.4 			"/>
			<g>
				<polygon fill="#A7E9CB" points="450.1,340 399.3,369.4 449.8,398.7 500.6,369.4 450.1,340 				"/>
			</g>
		</g>
		<polygon fill="#DBF5E9" points="450.1,340 399.6,310.7 450.5,281.4 500.9,310.7 		"/>
		<g>
			<g>
				<polygon fill="#49B685" points="450.8,222.7 400,252 450.4,281.4 501.3,252 450.8,222.7 				"/>
			</g>
		</g>
		<g>
			<polygon fill="#49B685" points="451.2,164 400.7,134.7 451.5,105.3 502,134.7 			"/>
		</g>
		<g>
			<polygon fill="#DBF5E9" points="549.7,633.4 499.2,604.1 550.1,574.8 600.5,604.1 			"/>
		</g>
		<g>
			<polygon fill="#A7E9CB" points="550.1,574.8 499.6,545.4 550.4,516.1 600.9,545.4 			"/>
		</g>
		<g>
			<polygon fill="#DBF5E9" points="550.8,457.4 500.3,428.1 551.1,398.7 601.6,428.1 			"/>
		</g>
		<g>
			<polygon fill="#A7E9CB" points="551.1,398.7 500.6,369.4 551.4,340 601.9,369.4 			"/>
			<g>
				<polygon fill="#A7E9CB" points="551.4,340 500.6,369.4 551.1,398.7 601.9,369.4 551.4,340 				"/>
			</g>
		</g>
		<g>
			<polygon fill="#A7E9CB" points="551.4,340 500.9,310.7 551.8,281.4 602.2,310.7 			"/>
		</g>
		<g>
			<polygon fill="#A7E9CB" points="552.1,222.7 501.7,193.3 552.5,164 603,193.3 			"/>
		</g>
		<g>
			<polygon fill="#A7E9CB" points="246.6,516.1 196.1,486.7 246.9,457.4 297.4,486.7 			"/>
		</g>
		<g>
			<polygon fill="#49B685" points="246.9,457.4 196.4,428.1 247.2,398.7 297.7,428.1 			"/>
		</g>
		<g>
			<polygon fill="#A7E9CB" points="247.2,398.7 196.7,369.4 247.5,340 298,369.4 			"/>
		</g>
		<g>
			<polygon fill="#A7E9CB" points="347.5,574.8 297,545.4 347.9,516.1 398.4,545.4 			"/>
		</g>
		<g>
			<polygon fill="#A7E9CB" points="347.9,516.1 297.4,486.7 348.2,457.4 398.7,486.7 			"/>
		</g>
		<g>
			<polygon fill="#DBF5E9" points="348.2,457.4 297.7,428.1 348.5,398.7 399,428.1 			"/>
		</g>
		<g>
			<polygon fill="#49B685" points="348.5,398.7 298,369.4 348.9,340 399.3,369.4 			"/>
			<g>
				<polygon fill="#49B685" points="348.9,340 298,369.4 348.5,398.7 399.3,369.4 348.9,340 				"/>
			</g>
		</g>
		<g>
			<polygon fill="#A7E9CB" points="348.9,340 298.4,310.7 349.2,281.4 399.7,310.7 			"/>
		</g>
		<g>
			<polygon fill="#DBF5E9" points="349.2,281.4 298.7,252 349.5,222.7 400,252 			"/>
		</g>
		<g>
			<polygon fill="#A7E9CB" points="349.6,222.7 299.1,193.3 349.9,164 400.4,193.3 			"/>
		</g>
		<g>
			<polygon fill="#49B685" points="650.7,692.1 600.2,662.8 651,633.4 701.5,662.8 			"/>
		</g>
		<g>
			<polygon fill="#49B685" points="651.4,574.8 600.9,545.4 651.7,516.1 702.2,545.4 			"/>
		</g>
		<g>
			<polygon fill="#DBF5E9" points="651.7,516.1 601.3,486.7 652.1,457.4 702.6,486.7 			"/>
			<g>
				<polygon fill="#DBF5E9" points="652.1,457.4 601.3,486.7 651.7,516.1 702.6,486.7 652.1,457.4 				"/>
			</g>
		</g>
		<g>
			<polygon fill="#A7E9CB" points="652.1,457.4 601.6,428.1 652.4,398.7 702.9,428.1 			"/>
		</g>
		<g>
			<polygon fill="#A7E9CB" points="652.4,398.7 601.9,369.4 652.7,340 703.2,369.4 			"/>
		</g>
		<g>
			<polygon fill="#DBF5E9" points="653.1,281.4 602.6,252 653.4,222.7 703.9,252 			"/>
		</g>
		<g>
			<polygon fill="#49B685" points="653.8,164 603.3,134.7 654.1,105.3 704.6,134.7 			"/>
		</g>
		<g>
			<polygon fill="#A7E9CB" points="752.3,633.4 701.8,604.1 752.6,574.8 803.1,604.1 			"/>
		</g>
		<g>
			<polygon fill="#A7E9CB" points="752.7,574.8 702.2,545.4 753,516.1 803.5,545.4 			"/>
		</g>
		<g>
			<polygon fill="#49B685" points="753.4,457.4 702.9,428.1 753.7,398.7 804.2,428.1 			"/>
			<g>
				<polygon fill="#49B685" points="753.7,398.7 702.9,428.1 753.4,457.4 804.2,428.1 753.7,398.7 				"/>
			</g>
		</g>
		<g>
			<polygon fill="#A7E9CB" points="753.7,398.7 703.2,369.4 754,340 804.5,369.4 			"/>
		</g>
		<g>
			<polygon fill="#A7E9CB" points="754,340 703.5,310.7 754.4,281.4 804.8,310.7 			"/>
			<g>
				<polygon fill="#A7E9CB" points="754.4,281.4 703.5,310.7 754,340 804.8,310.7 754.4,281.4 				"/>
			</g>
		</g>
		<g>
			<polygon fill="#A7E9CB" points="754.4,281.4 703.9,252 754.7,222.7 805.2,252 			"/>
		</g>
		<g>
			<polygon fill="#A7E9CB" points="854.7,574.8 804.2,545.4 855,516.1 905.5,545.4 			"/>
		</g>
		<g>
			<polygon fill="#A7E9CB" points="855,516.1 804.5,486.7 855.3,457.4 905.8,486.7 			"/>
		</g>
		<g>
			<polygon fill="#A7E9CB" points="855.3,457.4 804.8,428.1 855.7,398.7 906.1,428.1 			"/>
		</g>
		<g>
			<polygon fill="#A7E9CB" points="855.7,398.7 805.2,369.4 856,340 906.5,369.4 			"/>
			<g>
				<polygon fill="#A7E9CB" points="856,340 805.2,369.4 855.7,398.7 906.5,369.4 856,340 				"/>
			</g>
		</g>
		<g>
			<polygon fill="#49B685" points="856,340 805.5,310.7 856.3,281.4 906.8,310.7 			"/>
		</g>
		<g>
			<polygon fill="#A7E9CB" points="856.3,281.4 805.8,252 856.6,222.7 907.1,252 			"/>
		</g>
		<g>
			<polygon fill="#A7E9CB" points="956.8,457.4 906.3,428.1 957.1,398.7 1007.6,428.1 			"/>
		</g>
		<g>
			<polygon fill="#A7E9CB" points="957.8,281.4 907.3,252 958.1,222.7 1008.6,252 			"/>
		</g>
	</g>
	<g>
		<g>
			<g>
				<polygon opacity="0.5" fill="#35333E" points="385.7,251.5 441.1,284 526.9,237.1 473.4,206.3 				"/>
			</g>
			<g>
				<path fill="#FFFFFF" d="M477.1,345.4l-30-17.2c-3.1-1.8-4.9-4.9-4.9-8.5c0-3.6,1.9-6.7,5-8.5l54.6-30.8c1.4-0.8,2.2-2.2,2.2-3.8
					c0-1.6-0.8-3-2.2-3.8l-36.9-21.7l2-3.4l36.9,21.7c2.6,1.5,4.2,4.3,4.1,7.3c0,3-1.6,5.7-4.3,7.2l-54.6,30.8c-1.8,1-2.9,2.9-2.9,5
					s1.1,4,2.9,5l30,17.2L477.1,345.4z"/>
				<path fill="#0B0602" d="M477.3,345.9L447,328.5c-3.2-1.8-5.1-5.1-5.1-8.8c0-3.7,1.9-7,5.1-8.8l54.6-30.8c1.3-0.7,2-2,2-3.5
					c0-1.4-0.7-2.8-2-3.5l-37.3-21.9l2.4-4.1l37.3,21.9c2.7,1.6,4.3,4.5,4.3,7.6c0,3.2-1.7,6-4.4,7.5L449.4,315
					c-1.7,1-2.7,2.7-2.7,4.7s1,3.7,2.7,4.7l30.3,17.4L477.3,345.9z M465.4,250.9l36.6,21.6c1.5,0.9,2.4,2.4,2.3,4.1
					c0,1.7-0.9,3.3-2.4,4.1l-54.6,30.8c-3,1.7-4.8,4.7-4.8,8.1c0,3.4,1.8,6.5,4.7,8.2l29.6,17l1.6-2.8L449,325
					c-1.9-1.1-3.1-3.1-3.1-5.3c0-2.2,1.2-4.2,3.1-5.3l54.6-30.8c2.5-1.4,4-4,4.1-6.9c0-2.9-1.4-5.5-3.9-7l-36.6-21.6L465.4,250.9z"
					/>
			</g>
			<g>
				<polygon fill="#FFFFFF" points="378.9,235.2 442.2,272.4 506.7,216.1 445.4,180.1 				"/>
				<path fill="#0B0602" d="M442.3,272.9l-64.1-37.6l67.2-55.7l61.9,36.4L442.3,272.9z M379.5,235.1l62.7,36.8l63.8-55.8l-60.6-35.6
					L379.5,235.1z"/>
			</g>
			<g>
				<rect x="442.6" y="161" transform="matrix(-0.1439 -0.9896 0.9896 -0.1439 283.2015 696.247)" width="0.2" height="129.2"/>
			</g>
			<g>
				
					<rect x="443.7" y="180" transform="matrix(-0.9993 -3.834657e-002 3.834657e-002 -0.9993 878.6272 469.3201)" width="0.2" height="92.4"/>
			</g>
			<g>
				<path fill="#BDC4C1" d="M461.1,207.2c-6.7-2.5-14.9-1.6-22.6,2.3c-13.4,6.9-20.8,21.1-16.4,31.8c1.8,4.3,5.2,7.5,9.8,9.2
					c2.5,0.9,5.2,1.4,8.1,1.4c4.7,0,9.7-1.3,14.5-3.7c13.4-6.9,20.8-21.1,16.4-31.8C469.2,212.1,465.8,208.9,461.1,207.2z"/>
			</g>
			<g>
				<g>
					<path fill="#8374EE" d="M451.2,198.4c-22.3-4.4-45.2,22.9-32.9,41.8c8,11.9,25.4,11.4,36.4,3.1
						C473.1,230.7,473.4,202.7,451.2,198.4z"/>
					<path fill="#0B0602" d="M436.6,249.6c-1.5,0-3-0.1-4.4-0.4c-6-1-10.9-4.1-14.1-8.9c-5.2-8-4.6-18.4,1.7-27.6
						c6.2-9.2,18.3-17.3,31.5-14.7l0,0c8.9,1.8,15,7.6,16.8,15.9c2.2,10.6-3.2,22.8-13.1,29.6C449.7,247.5,443,249.6,436.6,249.6z
						 M446.2,198.2c-11,0-20.7,7-26,14.9c-6.1,9.1-6.7,19.1-1.7,26.9c3.1,4.6,7.8,7.6,13.7,8.6c7.4,1.3,15.9-0.9,22.3-5.6
						c9.7-6.7,15-18.6,12.9-28.9c-1.7-8.1-7.6-13.7-16.3-15.4l0,0C449.5,198.3,447.8,198.2,446.2,198.2z"/>
				</g>
			</g>
			<g>
				<g>
					<path fill="#FFFFFF" d="M432.1,233.2c-0.5,0-1.1-0.2-1.5-0.5c-0.8-0.5-1.2-1.4-1.2-2.3l0.3-10.2l5.4,0.1l-0.2,6l21.6-9.3l2.2,5
						l-25.5,11C432.8,233.1,432.5,233.2,432.1,233.2z"/>
					<path fill="#0B0602" d="M432.1,233.5c-0.6,0-1.2-0.2-1.7-0.5c-0.9-0.6-1.4-1.6-1.3-2.6l0.3-10.6l6.1,0.2l-0.1,5.8l21.4-9.3
						l2.4,5.6l-25.8,11.2C432.9,233.5,432.5,233.5,432.1,233.5z M430,220.5l-0.3,9.9c0,0.8,0.4,1.6,1.1,2.1c0.7,0.5,1.6,0.5,2.3,0.2
						l25.2-10.9l-1.9-4.4l-21.7,9.4l0.2-6.2L430,220.5z"/>
				</g>
			</g>
		</g>
		<g>
			<path fill="#FFFFFF" d="M726.4,589.2L675,559.5c-3.5-2-5.7-5.7-5.7-9.8c0-4.1,2.1-7.8,5.6-9.8l33.4-19.4c1.5-0.9,2.4-2.4,2.3-4.1
				c0-1.7-0.9-3.2-2.4-4.1l-26.3-15.1l2-3.5l26.3,15.1c2.7,1.6,4.4,4.4,4.4,7.5c0,3.2-1.6,6-4.3,7.6l-33.4,19.4
				c-2.3,1.3-3.7,3.7-3.6,6.4c0,2.7,1.4,5,3.7,6.3l51.4,29.6L726.4,589.2z"/>
			<path fill="#0B0602" d="M726.5,589.7l-0.3-0.2l-51.4-29.6c-3.7-2.1-5.9-5.9-5.9-10.1c0-4.2,2.2-8,5.8-10.2l33.4-19.4
				c1.4-0.8,2.2-2.2,2.2-3.8c0-1.6-0.8-3-2.2-3.8l-26.6-15.3l2.4-4.1l26.6,15.3c2.9,1.6,4.6,4.6,4.6,7.9c0,3.3-1.7,6.2-4.5,7.9
				l-33.4,19.4c-2.2,1.3-3.5,3.5-3.5,6c0,2.5,1.3,4.8,3.5,6l51.7,29.8L726.5,589.7z M682.5,497.1l26,14.9c1.6,0.9,2.6,2.6,2.6,4.4
				c0,1.8-0.9,3.5-2.5,4.4l-33.4,19.4c-3.4,2-5.5,5.5-5.4,9.5s2.1,7.5,5.5,9.5l51.1,29.4l1.6-2.8l-51.1-29.4
				c-2.4-1.4-3.9-3.9-3.9-6.7c0-2.8,1.4-5.3,3.8-6.7l33.4-19.4c2.6-1.5,4.2-4.2,4.1-7.2c0-3-1.6-5.7-4.2-7.2l-26-14.9L682.5,497.1z"
				/>
		</g>
		<path opacity="0.5" fill="#35333E" d="M548.8,308l228.7,133l114.4-63.2c11.6-6.5,11.7-23.2,0.2-29.8l-194-111.1
			c-8.6-4.9-19.3-4.9-27.9,0.1L548.8,308z"/>
		<g>
			<path fill="#FFFFFF" d="M813.4,462c-3,0-6-0.8-8.7-2.3L765,436.4l2-3.5l39.7,23.3c4.1,2.4,9.1,2.4,13.2,0l97.1-55.9
				c2.2-1.3,3.6-3.6,3.6-6.2s-1.4-4.9-3.6-6.2l-123-70.2c-3.8-2.2-6.1-6.1-6.1-10.5c0-4.4,2.3-8.4,6.1-10.6l47-27.3l2,3.5L796,300
				c-2.6,1.5-4.1,4.1-4.1,7.1c0,3,1.6,5.6,4.1,7.1l123,70.2c3.5,2,5.6,5.6,5.6,9.7c0,4-2.1,7.7-5.6,9.7L822,459.7
				C819.3,461.2,816.4,462,813.4,462z"/>
			<path fill="#0B0602" d="M813.4,462.3c-3.1,0-6.2-0.8-8.9-2.4l-40-23.4l2.4-4.1l40,23.4c4,2.3,8.9,2.3,12.9,0l97.1-55.9
				c2.1-1.2,3.4-3.4,3.4-5.9s-1.3-4.7-3.4-5.9l-123-70.2c-3.9-2.3-6.3-6.3-6.3-10.9c0-4.5,2.3-8.6,6.3-10.9l47.3-27.4l2.4,4.1
				l-47.3,27.4c-2.4,1.4-3.9,4-3.9,6.8c0,2.8,1.5,5.4,3.9,6.8l123,70.2c3.6,2.1,5.8,5.8,5.8,10c0,4.2-2.1,7.9-5.8,10L822.2,460
				C819.5,461.5,816.5,462.3,813.4,462.3z M765.5,436.2l39.4,23.1c2.6,1.5,5.5,2.3,8.5,2.3c2.9,0,5.8-0.8,8.4-2.2l97.1-55.9
				c3.4-2,5.4-5.4,5.4-9.4c0-3.9-2-7.4-5.4-9.3l-123-70.2c-2.7-1.5-4.3-4.3-4.3-7.4c0-3.1,1.6-5.9,4.3-7.4l46.7-27.1l-1.6-2.8
				l-46.7,27.1c-3.7,2.1-5.9,6-5.9,10.3c0,4.3,2.2,8.1,6,10.2l123,70.2c2.4,1.4,3.8,3.8,3.8,6.5c0,2.7-1.4,5.2-3.8,6.5l-97.1,55.9
				c-4.2,2.4-9.4,2.4-13.6,0l-39.4-23.1L765.5,436.2z"/>
		</g>
		<g>
			<g>
				<path fill="#E9A5CE" d="M987,247.8l-103.1-55.4c-11.5-6.3-25.4-6.4-37-0.4l-70.2,36.8c-7,3.7-7.1,13.6-0.2,17.4l103.1,55.4
					c11.5,6.3,25.4,6.4,37,0.4l70.2-36.8C993.8,261.5,993.9,251.6,987,247.8z"/>
				<path fill="#181818" d="M987.3,247.2l-103-55.4c-11.7-6.4-25.8-6.6-37.6-0.4l-70.2,36.8c-3.5,1.8-5.6,5.3-5.6,9.2
					c0,3.9,2,7.4,5.5,9.3l103,55.4c6,3.3,12.5,4.9,19.1,4.9c6.3,0,12.7-1.5,18.5-4.6l70.2-36.8c3.5-1.8,5.6-5.3,5.6-9.2
					C992.8,252.6,990.7,249.1,987.3,247.2z M986.5,264.6l-70.2,36.8c-11.4,6-25,5.9-36.3-0.3l-103-55.4c-3-1.7-4.8-4.7-4.8-8.2
					c0-3.5,1.9-6.5,4.9-8.1l70.2-36.8c5.6-2.9,11.7-4.4,17.9-4.4c6.4,0,12.7,1.6,18.5,4.8l103,55.4c3,1.7,4.8,4.7,4.8,8.2
					C991.4,260,989.5,263,986.5,264.6z"/>
			</g>
			<g>
				<path fill="#FFFFFF" d="M985.9,249.8l-103.1-55.4c-5.4-3-11.5-4.5-17.7-4.5c-5.9,0-11.8,1.5-17.1,4.2l-70.2,36.8
					c-2.5,1.3-4,3.8-4.1,6.7c0,2.8,1.4,5.4,3.9,6.7l103,55.4c5.4,3,11.5,4.5,17.7,4.5h0c5.9,0,11.8-1.5,17.1-4.2l70.2-36.8
					c2.5-1.3,4-3.8,4.1-6.7C989.8,253.7,988.4,251.2,985.9,249.8z M985.1,262L915,298.8c-5.1,2.7-10.8,4.1-16.5,4.1
					c-6,0-11.9-1.5-17.1-4.4l-103-55.5c-2.1-1.1-3.3-3.2-3.3-5.6c0-2.4,1.3-4.4,3.4-5.5l70.2-36.8c5.1-2.7,10.8-4.1,16.5-4.1
					c6,0,11.9,1.5,17.1,4.4l103,55.4c2.1,1.1,3.3,3.2,3.3,5.6C988.5,258.9,987.2,260.9,985.1,262z"/>
			</g>
		</g>
		<g>
			<g id="XMLID_89_">
				<path fill="#62AC77" d="M837.2,363.4l-183-106.6c-11.5-5.8-25.1-5.7-36.2,0.7c0,0-264.8,152.8-265.4,153.3
					c-14,10.8-11.2,33.7,4.8,43l183,106.3c11.3,5.7,24.7,5.3,35.6-1.1c0,0,262.4-152,263.1-152.5C854.6,396.2,853.7,373,837.2,363.4
					z"/>
				<path fill="#0B0602" d="M557.2,564.5c-5.8,0-11.6-1.3-17-4l-183-106.3c-8.1-4.7-13.3-13.2-13.9-22.6c-0.6-8.5,2.8-16.1,9.1-21
					c0.6-0.5,238.3-137.7,265.5-153.4c11.1-6.4,24.8-6.7,36.6-0.7l183,106.6c7.9,4.6,12.8,12.8,13.1,21.9
					c0.3,8.9-3.9,17.1-11.3,21.9c-0.6,0.5-236.2,137-263.1,152.5C570.3,562.8,563.7,564.5,557.2,564.5z M636.6,252.9
					c-6.4,0-12.8,1.6-18.4,4.9c-2.6,1.5-263.5,152-265.4,153.3c-6.1,4.7-9.3,12.2-8.8,20.4c0.6,9.2,5.7,17.4,13.6,22l183,106.3
					c11.2,5.6,24.4,5.2,35.2-1.1c2.6-1.5,261.3-151.3,263-152.5c7.1-4.7,11.2-12.7,10.9-21.3c-0.3-8.8-5-16.8-12.7-21.2l-183-106.6
					C648.5,254.3,642.5,252.9,636.6,252.9z"/>
			</g>
			
				<linearGradient id="XMLID_2_" gradientUnits="userSpaceOnUse" x1="302.1377" y1="410.2422" x2="314.749" y2="410.2422" gradientTransform="matrix(-1 0 0 1 1128.1533 0)">
				<stop  offset="0" style="stop-color:#FFFFFF"/>
				<stop  offset="0.9911" style="stop-color:#DFF8FF"/>
			</linearGradient>
			<path id="XMLID_88_" fill="url(#XMLID_2_)" d="M822.8,412.8l-6.2,3.5c-1.8,1-3.2-0.1-3.2-2.4l0,0c0-2.4,1.5-5.1,3.2-6.2l6.2-3.5
				c1.8-1,3.2,0.1,3.2,2.4l0,0C826,409,824.6,411.8,822.8,412.8z"/>
			<g id="XMLID_87_">
				<path fill="#2A4944" d="M816.6,407.7c-1.8,1-3.2,3.8-3.2,6.2c0,0.6,0.2,1,0.3,1.4c0.3-0.1,0.5-0.1,0.8-0.3l6.2-3.5
					c1.8-1,3.2-3.8,3.2-6.2c0-0.6-0.1-1.1-0.2-1.5c-0.3,0.1-0.5,0.1-0.8,0.3L816.6,407.7z"/>
				<path fill="#0B0602" d="M813.4,415.8l-0.1-0.3c-0.2-0.4-0.3-0.9-0.3-1.6c0-2.5,1.5-5.4,3.4-6.5l0,0l6.2-3.5
					c0.3-0.2,0.6-0.3,0.9-0.4l0.3-0.1l0.1,0.3c0.2,0.5,0.3,1,0.3,1.6c0,2.5-1.5,5.4-3.4,6.5l-6.2,3.5c-0.3,0.2-0.5,0.3-0.9,0.3
					L813.4,415.8z M816.8,408.1c-1.7,1-3,3.6-3,5.8c0,0.4,0.1,0.7,0.2,1c0.1,0,0.2-0.1,0.3-0.2l6.2-3.5c1.7-1,3-3.6,3-5.8
					c0-0.4,0-0.7-0.1-1c-0.1,0-0.3,0.1-0.4,0.2L816.8,408.1z"/>
			</g>
			<g id="XMLID_86_">
				<path fill="#7CDBB0" d="M822.4,411.7c0.1-2.2,1.7-4.7,3.6-5.4c0.8-0.3,1.5-0.3,2.1,0l0,0l-2.9-2.2c-0.6-0.4-1.2-0.3-2.1,0
					c-1.9,0.8-3.6,3.2-3.6,5.4c0,1.1,0.7,2.3,0.7,2.3l2.9,2.2C823.1,414,822.3,412.7,822.4,411.7z"/>
				<path fill="#0B0602" d="M824.4,415.5l-4.5-3.5c0-0.1-0.8-1.3-0.8-2.5c0.1-2.4,1.8-4.9,3.9-5.8c1-0.4,1.7-0.4,2.4,0l3.2,2.4
					l-0.4,0.6l-0.3-0.2c-0.5-0.3-1.1-0.3-1.8,0c-1.8,0.7-3.3,3-3.4,5.1c0,0.9,0.7,2.1,0.7,2.1L824.4,415.5z M820.5,411.5l1.7,1.3
					c-0.1-0.4-0.2-0.8-0.2-1.1l0,0c0.1-2.4,1.8-5,3.9-5.8c0.3-0.1,0.6-0.2,0.9-0.2l-1.8-1.3c-0.4-0.3-0.9-0.3-1.7,0.1
					c-1.8,0.7-3.3,3-3.4,5.1C819.9,410.3,820.4,411.3,820.5,411.5z"/>
			</g>
			<g id="XMLID_85_">
				<path fill="#7CDBB0" d="M700.9,482.4c0-2.4,1.4-5.1,3.2-6.2l18.4-10.6c0.9-0.5,1.6-0.5,2.2-0.1l-3-2.1l-0.3-0.2
					c-0.6-0.5-1.4-0.6-2.4-0.1l-18.4,10.6c-1.8,1-3.2,3.8-3.2,6.2c0,1.1,0.2,1.9,0.7,2.3l0.2,0.1l0,0c0,0,0.1,0,0.1,0.1l3.5,2.4
					C701.2,484.5,700.9,483.6,700.9,482.4z"/>
				<path fill="#0B0602" d="M701.6,485.2l-3.8-2.7c-0.6-0.5-0.9-1.3-0.9-2.6c0-2.5,1.5-5.4,3.4-6.5l18.4-10.6
					c1.3-0.7,2.2-0.4,2.8,0.1l3.3,2.3l-0.4,0.6c-0.5-0.3-1.1-0.3-1.8,0.1l-18.4,10.6c-1.7,1-3,3.6-3,5.8c0,1,0.3,1.8,0.8,2.2
					L701.6,485.2z M720.2,463.2c-0.3,0-0.7,0.1-1,0.3l-18.4,10.6c-1.7,1-3,3.6-3,5.8c0,1.1,0.2,1.7,0.6,2l0.2,0.2l2.1,1.5
					c-0.1-0.4-0.1-0.8-0.1-1.2l0,0c0-2.5,1.5-5.4,3.4-6.5l18.4-10.6c0.3-0.2,0.6-0.3,0.9-0.4l-2-1.4
					C720.9,463.3,720.6,463.2,720.2,463.2z"/>
			</g>
			<g id="XMLID_82_">
				<g id="XMLID_83_">
					<g id="XMLID_84_">
						<path fill="#8374EE" d="M722.5,474.2l-18.4,10.6c-1.8,1-3.2-0.1-3.2-2.4l0,0c0-2.4,1.4-5.1,3.2-6.2l18.4-10.6
							c1.8-1,3.2,0.1,3.2,2.4l0,0C725.7,470.5,724.3,473.2,722.5,474.2z"/>
						<path fill="#0B0602" d="M702.8,485.6c-0.4,0-0.7-0.1-1-0.3c-0.8-0.5-1.3-1.5-1.3-2.9c0-2.5,1.5-5.4,3.4-6.5l18.4-10.6
							c0.9-0.5,1.8-0.6,2.5-0.2c0.8,0.5,1.3,1.5,1.3,2.9c0,2.5-1.5,5.4-3.4,6.5l-18.4,10.6C703.8,485.5,703.3,485.6,702.8,485.6z
							 M723.8,465.6c-0.3,0-0.7,0.1-1.1,0.3l-18.4,10.6c-1.7,1-3,3.6-3,5.8c0,1.1,0.3,1.9,0.9,2.3c0.5,0.3,1.1,0.2,1.7-0.2
							l18.4-10.6c1.7-1,3-3.6,3-5.8c0-1.1-0.3-1.9-0.9-2.3C724.3,465.7,724,465.6,723.8,465.6z"/>
					</g>
				</g>
			</g>
			<g>
				<g id="XMLID_81_">
					<path fill="#7CDBB0" d="M741.3,459c0-2.4,1.4-5.1,3.2-6.2l10.6-6.1c0.9-0.5,1.6-0.5,2.2-0.1l-3-2.1l-0.3-0.2
						c-0.6-0.5-1.4-0.6-2.4-0.1l-10.6,6.1c-1.8,1-3.2,3.8-3.2,6.2c0,1.1,0.2,1.9,0.7,2.3l0.2,0.1l0,0c0,0,0.1,0,0.1,0.1l3.5,2.4
						C741.7,461,741.3,460.2,741.3,459z"/>
					<path fill="#0B0602" d="M742,461.8l-3.5-2.4c-0.1,0-0.1-0.1-0.1-0.1l-0.2-0.1c-0.6-0.5-0.9-1.3-0.9-2.6c0-2.5,1.5-5.4,3.4-6.5
						l10.6-6.1c1.3-0.7,2.2-0.4,2.8,0.1l3.3,2.3l-0.4,0.6c-0.5-0.3-1.1-0.3-1.8,0.1l-10.6,6.1c-1.7,1-3,3.6-3,5.8v0
						c0,1,0.3,1.8,0.8,2.2L742,461.8z M739,458.7l2.1,1.5c-0.1-0.4-0.1-0.8-0.1-1.2c0-2.5,1.5-5.4,3.4-6.5l10.6-6.1
						c0.3-0.2,0.6-0.3,0.9-0.4l-2-1.4c-0.6-0.5-1.3-0.5-2,0l-10.6,6.1c-1.7,1-3,3.6-3,5.8c0,1.1,0.2,1.7,0.6,2L739,458.7l-0.2,0.3
						L739,458.7z"/>
				</g>
				<g id="XMLID_77_">
					<g id="XMLID_79_">
						<g id="XMLID_80_">
							<path fill="#8374EE" d="M755.1,455.3l-10.6,6.1c-1.8,1-3.2-0.1-3.2-2.4l0,0c0-2.4,1.4-5.1,3.2-6.2l10.6-6.1
								c1.8-1,3.2,0.1,3.2,2.4l0,0C758.3,451.5,756.9,454.3,755.1,455.3z"/>
							<path fill="#0B0602" d="M743.3,462.2c-0.4,0-0.7-0.1-1-0.3c-0.8-0.5-1.3-1.5-1.3-2.9c0-2.5,1.5-5.4,3.4-6.5l10.6-6.1
								c0.9-0.5,1.8-0.6,2.5-0.2c0.8,0.5,1.3,1.5,1.3,2.9c0,2.5-1.5,5.4-3.4,6.5l-10.6,6.1C744.2,462,743.7,462.2,743.3,462.2z
								 M756.4,446.7c-0.3,0-0.7,0.1-1.1,0.3l-10.6,6.1c-1.7,1-3,3.6-3,5.8c0,1.1,0.3,1.9,0.9,2.3c0.5,0.3,1.1,0.2,1.7-0.2l10.6-6.1
								c1.7-1,3-3.6,3-5.8c0-1.1-0.3-1.9-0.9-2.3C756.8,446.8,756.6,446.7,756.4,446.7z"/>
						</g>
					</g>
				</g>
			</g>
			<g id="XMLID_75_">
				<g id="XMLID_76_">
					<path fill="#B4EAD4" d="M352.6,410.9l265.1-153.2c11.1-6.4,24.7-6.8,36.2-1.1l184.8,107.7c9.4,6.9,11.4,19.2,0.8,26.7
						L576,543.5c-10.9,6.3-24.3,6.8-35.6,1.1L355.6,437.1C342.5,429.3,343.3,417.1,352.6,410.9z"/>
					<path fill="#0B0602" d="M557.2,549c-5.8,0-11.6-1.3-17-4L355.4,437.4c-6.4-3.8-9.9-8.9-10.1-14.4c-0.1-4.8,2.5-9.3,7.1-12.4
						l0,0l265.1-153.2c11.3-6.5,24.9-6.9,36.6-1.1L839,364c5.1,3.8,8.2,9.2,8.1,14.6c0,4.9-2.6,9.4-7.3,12.7L576.2,543.8
						C570.3,547.2,563.8,549,557.2,549z M352.8,411.2c-4.4,2.9-6.9,7.2-6.7,11.8c0.1,5.2,3.6,10.1,9.7,13.8l184.8,107.5
						c11.2,5.6,24.4,5.2,35.2-1.1l263.6-152.5c4.4-3.1,6.9-7.4,6.9-12.1c0-5.1-2.9-10.3-7.8-13.9L653.8,256.9
						c-11.4-5.7-24.8-5.3-35.8,1.1L352.8,411.2z"/>
				</g>
			</g>
			<g>
				<path fill="#FFFFFF" d="M829.5,372.4L640.2,263.3c-8-4-17.6-3.8-25.4,0.7L357.2,414.1c-6.5,4.4-7.1,12.9,2.1,18.4l186.8,108
					c7.9,4,17.3,3.7,25-0.8l259.1-148.6C837.4,386.8,837.1,376.2,829.5,372.4z"/>
				<path fill="#0B0602" d="M557.8,543.6c-4.1,0-8.2-0.9-11.9-2.8l-186.8-108c-4.5-2.7-7-6.3-7.1-10.2c-0.1-3.4,1.7-6.6,5-8.8
					l257.6-150.1c7.9-4.6,17.5-4.9,25.7-0.8l189.3,109.1c3.7,1.8,5.9,5.4,6,9.5c0.1,4.1-1.9,7.8-5.5,9.8L571.2,540
					C567.1,542.4,562.5,543.6,557.8,543.6z M628.2,260.8c-4.6,0-9.1,1.2-13.2,3.6L357.4,414.4c-3,2-4.7,5-4.7,8.2
					c0.1,3.6,2.5,7,6.8,9.6l186.8,108c7.8,3.9,17,3.6,24.6-0.8l259.1-148.6c3.3-1.9,5.2-5.3,5.1-9.2c-0.1-3.8-2.2-7.1-5.6-8.8l0,0
					L640,263.6C636.3,261.7,632.2,260.8,628.2,260.8z"/>
			</g>
			<g>
				<path fill="#FFFFFF" d="M574.9,515.7L397.3,413.4c-5-2.9-11.2-2.9-16.3-0.1l-3.7,2c-5,2.8-5.1,10-0.1,12.9l177.1,102.4
					c4.9,2.8,10.9,3,15.9,0.3l4.4-2.3C579.9,525.9,580,518.6,574.9,515.7z"/>
			</g>
			<g id="XMLID_73_">
				<path id="XMLID_74_" d="M703.9,295.7l-0.2-0.1c-1.2-0.7-1-1.9,0.3-2.6l0,0c1.3-0.8,3.4-0.9,4.6-0.2l0.2,0.1
					c1.2,0.7,1,1.8-0.3,2.6l0,0C707.1,296.3,705.1,296.4,703.9,295.7z"/>
			</g>
			<g id="XMLID_70_">
				<path id="XMLID_72_" d="M751.1,322.8l-40.5-23.3c-1.2-0.7-1-1.9,0.3-2.6l0,0c1.3-0.8,3.4-0.9,4.6-0.2l40.5,23.3
					c1.2,0.7,1,1.8-0.3,2.6l0,0C754.3,323.3,752.2,323.4,751.1,322.8z"/>
			</g>
			<g id="XMLID_54_">
				<g id="XMLID_67_">
					<path id="XMLID_68_" d="M490,526.4c-1.1-0.6-2-2.1-2-3.4c0-0.7,0.3-1.3,0.8-1.6c0.5-0.3,1.2-0.2,1.8,0.1c1.1,0.6,2,2.1,2,3.4
						c0,0.7-0.3,1.3-0.8,1.6c-0.2,0.1-0.5,0.2-0.7,0.2C490.7,526.8,490.3,526.7,490,526.4z"/>
				</g>
				<g id="XMLID_64_">
					<path id="XMLID_65_" d="M497.7,530.9c-1.1-0.6-2-2.2-2-3.4c0-0.7,0.3-1.3,0.8-1.6c0.5-0.3,1.2-0.2,1.8,0.1c1.1,0.6,2,2.2,2,3.4
						c0,0.7-0.3,1.3-0.8,1.6c-0.2,0.1-0.5,0.2-0.7,0.2C498.4,531.2,498.1,531.1,497.7,530.9z"/>
				</g>
				<g id="XMLID_61_">
					<path id="XMLID_62_" d="M505.4,535.4c-1.1-0.6-2-2.1-2-3.4c0-0.7,0.3-1.3,0.8-1.6c0.5-0.3,1.2-0.2,1.8,0.1c1.1,0.6,2,2.2,2,3.4
						c0,0.7-0.3,1.3-0.8,1.6c-0.2,0.1-0.5,0.2-0.7,0.2C506.2,535.7,505.8,535.6,505.4,535.4z"/>
				</g>
				<g id="XMLID_58_">
					<path id="XMLID_59_" d="M513.2,539.9c-1.1-0.6-2-2.2-2-3.4c0-0.7,0.3-1.3,0.8-1.6c0.5-0.3,1.2-0.2,1.8,0.1c1.1,0.6,2,2.1,2,3.4
						c0,0.7-0.3,1.3-0.8,1.6c-0.2,0.1-0.5,0.2-0.7,0.2C513.9,540.2,513.6,540.1,513.2,539.9z"/>
				</g>
				<g id="XMLID_55_">
					<path id="XMLID_56_" d="M520.9,544.3c-1.1-0.6-2-2.2-2-3.4c0-0.7,0.3-1.3,0.8-1.6c0.5-0.3,1.2-0.2,1.8,0.1c1.1,0.6,2,2.1,2,3.4
						c0,0.7-0.3,1.3-0.8,1.6c-0.2,0.1-0.5,0.2-0.7,0.2C521.7,544.7,521.3,544.5,520.9,544.3z"/>
				</g>
			</g>
			<g id="XMLID_37_">
				<g id="XMLID_50_">
					<path id="XMLID_52_" d="M368.8,456.2c-1.1-0.6-2-2.1-2-3.4c0-0.7,0.3-1.3,0.8-1.6c0.5-0.3,1.2-0.2,1.8,0.1c1.1,0.6,2,2.2,2,3.4
						c0,0.7-0.3,1.3-0.8,1.6c-0.2,0.1-0.5,0.2-0.7,0.2C369.5,456.5,369.1,456.4,368.8,456.2z"/>
				</g>
				<g id="XMLID_47_">
					<path id="XMLID_48_" d="M376.5,460.6c-1.1-0.6-2-2.2-2-3.4c0-0.7,0.3-1.3,0.8-1.6c0.5-0.3,1.2-0.2,1.8,0.1c1.1,0.6,2,2.2,2,3.4
						c0,0.7-0.3,1.3-0.8,1.6c-0.2,0.1-0.5,0.2-0.7,0.2C377.2,460.9,376.9,460.8,376.5,460.6z"/>
				</g>
				<g id="XMLID_44_">
					<path id="XMLID_45_" d="M384.3,465.1c-1.1-0.6-2-2.1-2-3.4c0-0.7,0.3-1.3,0.8-1.6c0.5-0.3,1.2-0.2,1.8,0.1c1.1,0.6,2,2.2,2,3.4
						c0,0.7-0.3,1.3-0.8,1.6c-0.2,0.1-0.5,0.2-0.7,0.2C385,465.4,384.6,465.3,384.3,465.1z"/>
				</g>
				<g id="XMLID_41_">
					<path id="XMLID_42_" d="M392,469.6c-1.1-0.6-2-2.1-2-3.4c0-0.7,0.3-1.3,0.8-1.6c0.5-0.3,1.2-0.3,1.8,0.1c1.1,0.6,2,2.1,2,3.4
						c0,0.7-0.3,1.3-0.8,1.6c-0.2,0.1-0.5,0.2-0.7,0.2C392.7,469.9,392.4,469.8,392,469.6z"/>
				</g>
				<g id="XMLID_38_">
					<path id="XMLID_39_" d="M399.8,474c-1.1-0.6-2-2.2-2-3.4c0-0.7,0.3-1.3,0.8-1.6c0.5-0.3,1.2-0.2,1.8,0.1c1.1,0.6,2,2.1,2,3.4
						c0,0.7-0.3,1.3-0.8,1.6c-0.2,0.1-0.5,0.2-0.7,0.2C400.5,474.4,400.1,474.3,399.8,474z"/>
				</g>
			</g>
			<g id="XMLID_35_">
				<g id="XMLID_36_">
					<path fill="#8374EE" d="M825.6,414.3L825.6,414.3c-1.9,0.8-3.4-0.4-3.3-2.6l0,0c0.1-2.2,1.7-4.7,3.6-5.4l0,0
						c1.9-0.8,3.4,0.4,3.3,2.6l0,0C829.2,411,827.6,413.5,825.6,414.3z"/>
					<path fill="#0B0602" d="M824.5,414.9c-0.5,0-1-0.1-1.4-0.4c-0.8-0.6-1.2-1.6-1.2-2.8c0.1-2.4,1.8-4.9,3.9-5.8
						c1-0.4,2-0.3,2.7,0.2c0.8,0.6,1.2,1.6,1.2,2.8c-0.1,2.4-1.8,5-3.9,5.8l0,0C825.3,414.8,824.9,414.9,824.5,414.9z M827.1,406.3
						c-0.3,0-0.6,0.1-1,0.2c-1.8,0.7-3.3,3-3.4,5.1c0,1,0.3,1.8,0.8,2.2c0.5,0.4,1.2,0.4,2,0.1l0,0c1.8-0.7,3.3-3,3.4-5.1
						c0-1-0.3-1.8-0.8-2.2C827.8,406.4,827.4,406.3,827.1,406.3z"/>
				</g>
			</g>
		</g>
		<path opacity="0.5" fill="#35333E" d="M500.2,511.3l-40.3-23.5c0.5-0.5,0.5-1.1,1.3-1.4c0.9-0.3,1.9-0.5,3.1-0.8
			c1-0.3,2.4-1.4,3.4-2.3c6.9,0.5,12.6-4,5.7-5.9c-1.4-0.4-1.6,0.9-8.2-1.4c-6.6-2.3-16.2-4.8-21.7-5c-5.5-0.3-13,0.3-14.3,3.1
			c-1.3,2.7-1.1,4.2-1.1,4.2s0,0,0,0c-0.1,0.2-0.1,0.3-0.2,0.5c0,0.1-0.1,0.1-0.1,0.2c-0.4,0.8-2.1,2.7-2.1,2.7c0,0,0,0,0,0
			c-0.1,0.1-0.1,0.1-0.2,0.2c0,0,0,0,0,0s-3.2,2.4-10.3,3c-0.4,0-0.8,0.1-1.2,0.1c-1.8-0.5-3.4-1-4.9-1.4
			c-6.8-2.3-17.6-3.4-28.8-2.8c-14.6,0.8-37.8,2.9-54.2,7c-2.9,0.7-3.4,2.3-1.6,3.6c0.2,0.1,0.4,0.2,0.6,0.4c0,0,0,0,0,0
			c0.2,0.1,0.4,0.2,0.6,0.3c0,0,0.1,0,0.1,0c0.2,0.1,0.4,0.2,0.7,0.3c0.1,0,0.1,0,0.2,0.1c0.1,0,0.2,0.1,0.4,0.1
			c0.2,0.3,0.5,0.6,0.9,0.8c2.2,1.5,8.3,4,15.6,6.7c-20.2,14.6-42.8,62.5-42.8,62.5c1.1,2.3,6,3.8,12.5,4.7c0,0,0,0.1-0.1,0.1
			c0,0,0,0.1-0.1,0.1c-0.2,0.3-0.3,0.6-0.5,0.9c0,0.1-0.1,0.1-0.1,0.2c-3.4,6-7.3,12.9-8,15.7c-27.3,9.1-49.1,29.2-55,32.3
			c0.3,0.2,0.6,0.5,0.9,0.7c-3.7,2.5-9.1,6.1-11.4,7.5c-3.4,0.9-7.8,3-8.6,4.2c-1.5,0.9-2.5,1.7-2.3,2.1c0.4,0.7,1.7,1.1,3,1.6
			c10.9,3.5,42.5-1.8,48-2.7c5-0.9,21.3-4.5,15.6-6.7c-1-0.4-2.9-0.7-5.4-0.9c-4.7-0.7-12.8-1.2-20.7-0.7c-1.4,0.1-3.5,0.2-5.8,0.4
			c1.6-0.7,3.2-1.5,4.8-2.1c3.9-0.2,6.8-0.6,6.8-0.6s16.4-8,33.2-16.2c0,0-0.1,0.1-0.1,0.1s2.1-1,5.2-2.6
			c11-5.5,21.3-10.7,26.5-13.6c0.8-0.5,1.5-0.8,2.1-1.2c0.3-0.2,0.6-0.3,0.8-0.5c0.2-0.1,0.3-0.2,0.4-0.3c2.3-1.7,8.3-7,14.8-13.5
			c9.2,6.2,22.5,12.2,28.5,15.3c-10,7.2-20.7,25.6-31.7,34.8c1.3,0.3,2.6,0.5,3.9,0.7c-1.7,2.2-4,5-5.5,6.5c-3.1,1-6.8,2.8-7.5,3.9
			c-1.5,0.9-2.5,1.7-2.2,2c0.4,0.7,1.6,1.1,2.9,1.5c10.7,3.4,22.6,10.1,49.5,1.7c4.7-1.5,14.3-8.1,14.6-10.3c1-6.1-5-7.6-13.3-7.6
			c-3.2-0.1-10.6,5.1-14,5.3c-1.8,0.1-4.6,0.3-7.7,0.6c1.4-1.2,2.8-2.5,3.9-3.5c2-0.2,3.1-0.4,3.1-0.4s37.3-28.8,43.7-38.7
			c0.4-0.6,0.6-1.1,0.7-1.6c0.2-0.3,0.2-0.7,0.2-1c-0.4-6.3-6.4-18.7-16.7-27.9c-0.3-0.2-0.5-0.5-0.8-0.7c0,0,0.1,0,0.1,0
			c-0.3-0.2-0.6-0.4-0.8-0.6c0,0,0,0,0,0c-7-6.7,22.9-25.6,32.6-34.1c1.2,1.1,2.4,2.5,3.8,4l-0.7,2.2c0,0.3,0.2,0.6,0.4,0.7l0.4,0.3
			c-0.6-0.2-1.4-0.1-2,0.2l-31.9,17.8c-0.4,0.2-0.5,0.5-0.5,0.7c0,0,0,0,0,0v1c0,0,0,0.5,0.5,0.8c0,0,44.7,26.1,44.7,26.1
			c0.7,0.4,1.7,0.4,2.4,0l31.9-17.8c0.3-0.2,0.5-0.4,0.5-0.7l0.1-1.1c0,0,0,0,0,0v0c0,0,0,0,0,0c0-0.2-0.1-0.4-0.3-0.6
			c0.4,0.1,0.8-0.2,1-0.8l10.7-36.3C502.1,512.6,501.1,511.8,500.2,511.3z M410.3,543.6C410.3,543.6,410.3,543.6,410.3,543.6
			C410.3,543.6,410.4,543.6,410.3,543.6C410.4,543.6,410.3,543.6,410.3,543.6z M438.8,494.1C438.8,494.1,438.8,494.1,438.8,494.1
			c-3-1.7-5.9-2.9-1.6-4.9c4.3,1.6,8.2,2.4,9.5,2.3c1.8-0.1,4.6-1.3,6.5-1.7c0.2,0,0.4-0.1,0.7-0.1l-3.4,11.3
			C446.6,497.4,442.6,494.9,438.8,494.1z M455.5,570c0.6,0.4,1.7,0.4,2.4,0C457.2,570.4,456.2,570.4,455.5,570z"/>
		<g>
			<g>
				<g>
					<g>
						<path fill="#FFFFFF" d="M293.6,363.8l49-27.3c1-0.6,2.7-0.6,3.6,0l68.9,40.1c1,0.6,0.9,1.5-0.1,2.1L366,406
							c-1,0.6-2.7,0.6-3.6,0l-68.9-40.1C292.5,365.3,292.5,364.4,293.6,363.8z"/>
						<path fill="#0B0602" d="M364.2,406.8c-0.7,0-1.4-0.2-2-0.5l-68.9-40.1c-0.6-0.3-0.9-0.8-0.9-1.3c0-0.5,0.4-1,1-1.4l49-27.3
							c1.2-0.6,2.9-0.6,4,0l68.9,40.1c0.6,0.3,0.9,0.8,0.9,1.3c0,0.5-0.4,1-1,1.4l-49,27.3C365.6,406.7,364.9,406.8,364.2,406.8z
							 M344.4,336.5c-0.6,0-1.2,0.1-1.7,0.4l-49,27.3c-0.4,0.2-0.6,0.5-0.6,0.7c0,0.2,0.2,0.5,0.5,0.7l68.9,40.1
							c0.9,0.5,2.4,0.5,3.3,0l49-27.3c0.4-0.2,0.6-0.5,0.6-0.7c0-0.2-0.2-0.5-0.5-0.7L346,336.8C345.6,336.6,345,336.5,344.4,336.5z
							"/>
					</g>
					<g>
						<g>
							<g>
								
									<linearGradient id="SVGID_1_" gradientUnits="userSpaceOnUse" x1="252.8682" y1="381.0273" x2="288.564" y2="381.0273" gradientTransform="matrix(-1 0 0 1 606.9932 0)">
									<stop  offset="0" style="stop-color:#9AADD9"/>
									<stop  offset="0.3234" style="stop-color:#B3C5E1"/>
									<stop  offset="0.7518" style="stop-color:#CFE0EA"/>
									<stop  offset="1" style="stop-color:#DAEAED"/>
								</linearGradient>
								<path fill="url(#SVGID_1_)" d="M319.4,378.7l13.1-7.3c1.3-0.7,3.3-0.7,4.5,0l16.2,9.4c1.2,0.7,1.2,1.9-0.1,2.6l-13.1,7.3
									c-1.3,0.7-3.3,0.7-4.5,0l-16.2-9.4C318.1,380.5,318.1,379.4,319.4,378.7z"/>
							</g>
						</g>
					</g>
					<g>
						<path d="M319.4,379.4l13.1-7.3c1.3-0.7,3.3-0.7,4.5,0l16.2,9.4c1.2,0.7,1.2,1.9-0.1,2.6l-13.1,7.3c-1.3,0.7-3.3,0.7-4.5,0
							l-16.2-9.4C318.1,381.3,318.1,380.1,319.4,379.4z"/>
					</g>
					<g>
						<path d="M293,365.4c0.1,0.1,0.1,0.1,0.2,0.2c0,0,69.2,40.4,69.2,40.4c1,0.6,2.6,0.6,3.6,0l49-27.3c0.5-0.3,0.8-0.7,0.8-1
							l-0.1,1.7c0,0.4-0.3,0.8-0.8,1l-49,27.3c-1,0.6-2.6,0.6-3.6,0c0,0-68.7-40-68.7-40.1c-0.7-0.5-0.7-1.2-0.7-1.2v-1.6
							C292.8,365.2,292.9,365.3,293,365.4C292.9,365.4,292.9,365.4,293,365.4z"/>
					</g>
					<g>
						<g>
							<path d="M341.6,340.1c0.3-0.1,0.7-0.1,0.9,0l3.1,1.8c0.2,0.1,0.2,0.4,0,0.5l-2.5,1.4c-0.3,0.1-0.7,0.1-0.9,0l-3.1-1.8
								c-0.2-0.1-0.2-0.4,0-0.5L341.6,340.1z"/>
						</g>
						<g>
							<path d="M346,342.6c0.3-0.1,0.7-0.1,0.9,0l3.1,1.8c0.2,0.1,0.2,0.4,0,0.5l-2.5,1.4c-0.3,0.1-0.7,0.1-0.9,0l-3.1-1.8
								c-0.2-0.1-0.2-0.4,0-0.5L346,342.6z"/>
						</g>
						<g>
							<path d="M350.4,345.2c0.3-0.1,0.7-0.1,0.9,0l3.1,1.8c0.2,0.1,0.2,0.4,0,0.5l-2.5,1.4c-0.3,0.1-0.7,0.1-0.9,0l-3.1-1.8
								c-0.2-0.1-0.2-0.4,0-0.5L350.4,345.2z"/>
						</g>
						<g>
							<path d="M354.8,347.8c0.3-0.1,0.7-0.1,0.9,0l3.1,1.8c0.2,0.1,0.2,0.4,0,0.5l-2.5,1.4c-0.3,0.1-0.7,0.1-0.9,0l-3.1-1.8
								c-0.2-0.1-0.2-0.4,0-0.5L354.8,347.8z"/>
						</g>
						<g>
							<path d="M359.2,350.3c0.3-0.1,0.7-0.1,0.9,0l3.1,1.8c0.2,0.1,0.2,0.4,0,0.5l-2.5,1.4c-0.3,0.1-0.7,0.1-0.9,0l-3.1-1.8
								c-0.2-0.1-0.2-0.4,0-0.5L359.2,350.3z"/>
						</g>
						<g>
							<path d="M363.6,352.9c0.3-0.1,0.7-0.1,0.9,0l3.1,1.8c0.2,0.1,0.2,0.4,0,0.5l-2.5,1.4c-0.3,0.1-0.7,0.1-0.9,0l-3.1-1.8
								c-0.2-0.1-0.2-0.4,0-0.5L363.6,352.9z"/>
						</g>
						<g>
							<path d="M368,355.5c0.3-0.1,0.7-0.1,0.9,0l3.1,1.8c0.2,0.1,0.2,0.4,0,0.5l-2.5,1.4c-0.3,0.1-0.7,0.1-0.9,0l-3.1-1.8
								c-0.2-0.1-0.2-0.4,0-0.5L368,355.5z"/>
						</g>
						<g>
							<path d="M372.4,358c0.3-0.1,0.7-0.1,0.9,0l3.1,1.8c0.2,0.1,0.2,0.4,0,0.5l-2.5,1.4c-0.3,0.1-0.7,0.1-0.9,0l-3.1-1.8
								c-0.2-0.1-0.2-0.4,0-0.5L372.4,358z"/>
						</g>
						<g>
							<path d="M376.8,360.6c0.3-0.1,0.7-0.1,0.9,0l3.1,1.8c0.2,0.1,0.2,0.4,0,0.5l-2.5,1.4c-0.3,0.1-0.7,0.1-0.9,0l-3.1-1.8
								c-0.2-0.1-0.2-0.4,0-0.5L376.8,360.6z"/>
						</g>
						<g>
							<path d="M381.3,363.2c0.3-0.1,0.7-0.1,0.9,0l3.1,1.8c0.2,0.1,0.2,0.4,0,0.5l-2.5,1.4c-0.3,0.1-0.7,0.1-0.9,0l-3.1-1.8
								c-0.2-0.1-0.2-0.4,0-0.5L381.3,363.2z"/>
						</g>
						<g>
							<path d="M385.7,365.7c0.3-0.1,0.7-0.1,0.9,0l3.1,1.8c0.2,0.1,0.2,0.4,0,0.5l-2.5,1.4c-0.3,0.1-0.7,0.1-0.9,0l-3.1-1.8
								c-0.2-0.1-0.2-0.4,0-0.5L385.7,365.7z"/>
						</g>
						<g>
							<path d="M390.1,368.3c0.3-0.1,0.7-0.1,0.9,0l3.1,1.8c0.2,0.1,0.2,0.4,0,0.5l-2.5,1.4c-0.3,0.1-0.7,0.1-0.9,0l-3.1-1.8
								c-0.2-0.1-0.2-0.4,0-0.5L390.1,368.3z"/>
						</g>
						<g>
							<path d="M394.5,370.9c0.3-0.1,0.7-0.1,0.9,0l3.1,1.8c0.2,0.1,0.2,0.4,0,0.5l-2.5,1.4c-0.3,0.1-0.7,0.1-0.9,0l-3.1-1.8
								c-0.2-0.1-0.2-0.4,0-0.5L394.5,370.9z"/>
						</g>
						<g>
							<path d="M398.9,373.4c0.3-0.1,0.7-0.1,0.9,0l3.1,1.8c0.2,0.1,0.2,0.4,0,0.5l-2.5,1.4c-0.3,0.1-0.7,0.1-0.9,0l-3.1-1.8
								c-0.2-0.1-0.2-0.4,0-0.5L398.9,373.4z"/>
						</g>
						<g>
							<path d="M403.3,376c0.3-0.1,0.7-0.1,0.9,0l3.1,1.8c0.2,0.1,0.2,0.4,0,0.5l-2.5,1.4c-0.3,0.1-0.7,0.1-0.9,0l-3.1-1.8
								c-0.2-0.1-0.2-0.4,0-0.5L403.3,376z"/>
						</g>
						<g>
							<path d="M337.8,342.2c0.3-0.1,0.7-0.1,0.9,0l10.4,6c0.2,0.1,0.2,0.4,0,0.5l-2.5,1.4c-0.3,0.1-0.7,0.1-0.9,0l-10.4-6
								c-0.2-0.1-0.2-0.4,0-0.5L337.8,342.2z"/>
						</g>
						<g>
							<path d="M349.6,349c0.3-0.1,0.7-0.1,0.9,0l3.1,1.8c0.2,0.1,0.2,0.4,0,0.5l-2.5,1.4c-0.3,0.1-0.7,0.1-0.9,0l-3.1-1.8
								c-0.2-0.1-0.2-0.4,0-0.5L349.6,349z"/>
						</g>
						<g>
							<path d="M354,351.6c0.3-0.1,0.7-0.1,0.9,0l3.1,1.8c0.2,0.1,0.2,0.4,0,0.5l-2.5,1.4c-0.3,0.1-0.7,0.1-0.9,0l-3.1-1.8
								c-0.2-0.1-0.2-0.4,0-0.5L354,351.6z"/>
						</g>
						<g>
							<path d="M358.4,354.2c0.3-0.1,0.7-0.1,0.9,0l3.1,1.8c0.2,0.1,0.2,0.4,0,0.5l-2.5,1.4c-0.3,0.1-0.7,0.1-0.9,0l-3.1-1.8
								c-0.2-0.1-0.2-0.4,0-0.5L358.4,354.2z"/>
						</g>
						<g>
							<path d="M362.8,356.7c0.3-0.1,0.7-0.1,0.9,0l3.1,1.8c0.2,0.1,0.2,0.4,0,0.5l-2.5,1.4c-0.3,0.1-0.7,0.1-0.9,0l-3.1-1.8
								c-0.2-0.1-0.2-0.4,0-0.5L362.8,356.7z"/>
						</g>
						<g>
							<path d="M367.2,359.3c0.3-0.1,0.7-0.1,0.9,0l3.1,1.8c0.2,0.1,0.2,0.4,0,0.5l-2.5,1.4c-0.3,0.1-0.7,0.1-0.9,0l-3.1-1.8
								c-0.2-0.1-0.2-0.4,0-0.5L367.2,359.3z"/>
						</g>
						<g>
							<path d="M371.6,361.9c0.3-0.1,0.7-0.1,0.9,0l3.1,1.8c0.2,0.1,0.2,0.4,0,0.5l-2.5,1.4c-0.3,0.1-0.7,0.1-0.9,0l-3.1-1.8
								c-0.2-0.1-0.2-0.4,0-0.5L371.6,361.9z"/>
						</g>
						<g>
							<path d="M376,364.5c0.3-0.1,0.7-0.1,0.9,0l3.1,1.8c0.2,0.1,0.2,0.4,0,0.5l-2.5,1.4c-0.3,0.1-0.7,0.1-0.9,0l-3.1-1.8
								c-0.2-0.1-0.2-0.4,0-0.5L376,364.5z"/>
						</g>
						<g>
							<path d="M380.4,367c0.3-0.1,0.7-0.1,0.9,0l3.1,1.8c0.2,0.1,0.2,0.4,0,0.5l-2.5,1.4c-0.3,0.1-0.7,0.1-0.9,0l-3.1-1.8
								c-0.2-0.1-0.2-0.4,0-0.5L380.4,367z"/>
						</g>
						<g>
							<path d="M384.8,369.6c0.3-0.1,0.7-0.1,0.9,0l3.1,1.8c0.2,0.1,0.2,0.4,0,0.5l-2.5,1.4c-0.3,0.1-0.7,0.1-0.9,0l-3.1-1.8
								c-0.2-0.1-0.2-0.4,0-0.5L384.8,369.6z"/>
						</g>
						<g>
							<path d="M389.2,372.2c0.3-0.1,0.7-0.1,0.9,0l3.1,1.8c0.2,0.1,0.2,0.4,0,0.5l-2.5,1.4c-0.3,0.1-0.7,0.1-0.9,0l-3.1-1.8
								c-0.2-0.1-0.2-0.4,0-0.5L389.2,372.2z"/>
						</g>
						<g>
							<path d="M393.6,374.7c0.3-0.1,0.7-0.1,0.9,0l3.1,1.8c0.2,0.1,0.2,0.4,0,0.5l-2.5,1.4c-0.3,0.1-0.7,0.1-0.9,0l-3.1-1.8
								c-0.2-0.1-0.2-0.4,0-0.5L393.6,374.7z"/>
						</g>
						<g>
							<path d="M398,377.3c0.3-0.1,0.7-0.1,0.9,0l3.1,1.8c0.2,0.1,0.2,0.4,0,0.5l-2.5,1.4c-0.3,0.1-0.7,0.1-0.9,0l-3.1-1.8
								c-0.2-0.1-0.2-0.4,0-0.5L398,377.3z"/>
						</g>
						<g>
							<path d="M334,344.3c0.3-0.1,0.7-0.1,0.9,0l3.3,1.9c0.2,0.1,0.2,0.4,0,0.5l-2.5,1.4c-0.3,0.1-0.7,0.1-0.9,0l-3.3-1.9
								c-0.2-0.1-0.2-0.4,0-0.5L334,344.3z"/>
						</g>
						<g>
							<path d="M338.6,347c0.3-0.1,0.7-0.1,0.9,0l3.3,1.9c0.2,0.1,0.2,0.4,0,0.5l-2.5,1.4c-0.3,0.1-0.7,0.1-0.9,0l-3.3-1.9
								c-0.2-0.1-0.2-0.4,0-0.5L338.6,347z"/>
						</g>
						<g>
							<path d="M330.2,346.5c0.3-0.1,0.7-0.1,0.9,0l2.3,1.4c0.2,0.1,0.2,0.4,0,0.5l-6.3,3.5c-0.3,0.1-0.7,0.1-0.9,0l-2.3-1.4
								c-0.2-0.1-0.2-0.4,0-0.5L330.2,346.5z"/>
						</g>
						<g>
							<path d="M333.9,348.6c0.3-0.1,0.7-0.1,0.9,0l3.3,1.9c0.2,0.1,0.2,0.4,0,0.5l-2.5,1.4c-0.3,0.1-0.7,0.1-0.9,0l-3.3-1.9
								c-0.2-0.1-0.2-0.4,0-0.5L333.9,348.6z"/>
						</g>
						<g>
							<path d="M347.9,352.4c0.3-0.1,0.7-0.1,0.9,0l3.1,1.8c0.2,0.1,0.2,0.4,0,0.5l-2.5,1.4c-0.3,0.1-0.7,0.1-0.9,0l-3.1-1.8
								c-0.2-0.1-0.2-0.4,0-0.5L347.9,352.4z"/>
						</g>
						<g>
							<path d="M338.7,352.4l0.9-0.5l3.8-2.1c0.3-0.1,0.7-0.1,0.9,0l3.1,1.8c0.2,0.1,0.2,0.4,0,0.5l-3.3,1.9l2.6,1.5
								c0.2,0.1,0.2,0.4,0,0.5l-2.5,1.4c-0.3,0.1-0.7,0.1-0.9,0l-6.1-3.5c-0.2-0.1-0.2-0.4,0-0.5L338.7,352.4z"/>
						</g>
						<g>
							<path d="M352.3,355c0.3-0.1,0.7-0.1,0.9,0l3.1,1.8c0.2,0.1,0.2,0.4,0,0.5l-2.5,1.4c-0.3,0.1-0.7,0.1-0.9,0l-3.1-1.8
								c-0.2-0.1-0.2-0.4,0-0.5L352.3,355z"/>
						</g>
						<g>
							<path d="M356.7,357.5c0.3-0.1,0.7-0.1,0.9,0l3.1,1.8c0.2,0.1,0.2,0.4,0,0.5l-2.5,1.4c-0.3,0.1-0.7,0.1-0.9,0l-3.1-1.8
								c-0.2-0.1-0.2-0.4,0-0.5L356.7,357.5z"/>
						</g>
						<g>
							<path d="M361.1,360.1c0.3-0.1,0.7-0.1,0.9,0l3.1,1.8c0.2,0.1,0.2,0.4,0,0.5l-2.5,1.4c-0.3,0.1-0.7,0.1-0.9,0l-3.1-1.8
								c-0.2-0.1-0.2-0.4,0-0.5L361.1,360.1z"/>
						</g>
						<g>
							<path d="M365.5,362.7c0.3-0.1,0.7-0.1,0.9,0l3.1,1.8c0.2,0.1,0.2,0.4,0,0.5l-2.5,1.4c-0.3,0.1-0.7,0.1-0.9,0l-3.1-1.8
								c-0.2-0.1-0.2-0.4,0-0.5L365.5,362.7z"/>
						</g>
						<g>
							<path d="M369.9,365.2c0.3-0.1,0.7-0.1,0.9,0l3.1,1.8c0.2,0.1,0.2,0.4,0,0.5l-2.5,1.4c-0.3,0.1-0.7,0.1-0.9,0l-3.1-1.8
								c-0.2-0.1-0.2-0.4,0-0.5L369.9,365.2z"/>
						</g>
						<g>
							<path d="M374.3,367.8c0.3-0.1,0.7-0.1,0.9,0l3.1,1.8c0.2,0.1,0.2,0.4,0,0.5l-2.5,1.4c-0.3,0.1-0.7,0.1-0.9,0l-3.1-1.8
								c-0.2-0.1-0.2-0.4,0-0.5L374.3,367.8z"/>
						</g>
						<g>
							<path d="M378.7,370.4c0.3-0.1,0.7-0.1,0.9,0l3.1,1.8c0.2,0.1,0.2,0.4,0,0.5l-2.5,1.4c-0.3,0.1-0.7,0.1-0.9,0l-3.1-1.8
								c-0.2-0.1-0.2-0.4,0-0.5L378.7,370.4z"/>
						</g>
						<g>
							<path d="M383.1,373c0.3-0.1,0.7-0.1,0.9,0l3.1,1.8c0.2,0.1,0.2,0.4,0,0.5l-2.5,1.4c-0.3,0.1-0.7,0.1-0.9,0l-3.1-1.8
								c-0.2-0.1-0.2-0.4,0-0.5L383.1,373z"/>
						</g>
						<g>
							<path d="M387.5,375.5c0.3-0.1,0.7-0.1,0.9,0l3.1,1.8c0.2,0.1,0.2,0.4,0,0.5l-2.5,1.4c-0.3,0.1-0.7,0.1-0.9,0l-3.1-1.8
								c-0.2-0.1-0.2-0.4,0-0.5L387.5,375.5z"/>
						</g>
						<g>
							<path d="M392,378.1c0.3-0.1,0.7-0.1,0.9,0l6.7,3.9c0.2,0.1,0.2,0.4,0,0.5l-2.5,1.4c-0.3,0.1-0.7,0.1-0.9,0l-6.7-3.9
								c-0.2-0.1-0.2-0.4,0-0.5L392,378.1z"/>
						</g>
						<g>
							<path d="M347.1,356.3c0.3-0.1,0.7-0.1,0.9,0l3.1,1.8c0.2,0.1,0.2,0.4,0,0.5l-2.5,1.4c-0.3,0.1-0.7,0.1-0.9,0l-3.1-1.8
								c-0.2-0.1-0.2-0.4,0-0.5L347.1,356.3z"/>
						</g>
						<g>
							<path d="M351.5,358.8c0.3-0.1,0.7-0.1,0.9,0l3.1,1.8c0.2,0.1,0.2,0.4,0,0.5l-2.5,1.4c-0.3,0.1-0.7,0.1-0.9,0l-3.1-1.8
								c-0.2-0.1-0.2-0.4,0-0.5L351.5,358.8z"/>
						</g>
						<g>
							<path d="M355.9,361.4c0.3-0.1,0.7-0.1,0.9,0l3.1,1.8c0.2,0.1,0.2,0.4,0,0.5l-2.5,1.4c-0.3,0.1-0.7,0.1-0.9,0l-3.1-1.8
								c-0.2-0.1-0.2-0.4,0-0.5L355.9,361.4z"/>
						</g>
						<g>
							<path d="M360.3,364c0.3-0.1,0.7-0.1,0.9,0l3.1,1.8c0.2,0.1,0.2,0.4,0,0.5l-2.5,1.4c-0.3,0.1-0.7,0.1-0.9,0l-3.1-1.8
								c-0.2-0.1-0.2-0.4,0-0.5L360.3,364z"/>
						</g>
						<g>
							<path d="M364.7,366.5c0.3-0.1,0.7-0.1,0.9,0l3.1,1.8c0.2,0.1,0.2,0.4,0,0.5l-2.5,1.4c-0.3,0.1-0.7,0.1-0.9,0l-3.1-1.8
								c-0.2-0.1-0.2-0.4,0-0.5L364.7,366.5z"/>
						</g>
						<g>
							<path d="M369.1,369.1c0.3-0.1,0.7-0.1,0.9,0l3.1,1.8c0.2,0.1,0.2,0.4,0,0.5l-2.5,1.4c-0.3,0.1-0.7,0.1-0.9,0l-3.1-1.8
								c-0.2-0.1-0.2-0.4,0-0.5L369.1,369.1z"/>
						</g>
						<g>
							<path d="M373.5,371.7c0.3-0.1,0.7-0.1,0.9,0l3.1,1.8c0.2,0.1,0.2,0.4,0,0.5l-2.5,1.4c-0.3,0.1-0.7,0.1-0.9,0l-3.1-1.8
								c-0.2-0.1-0.2-0.4,0-0.5L373.5,371.7z"/>
						</g>
						<g>
							<path d="M377.9,374.2c0.3-0.1,0.7-0.1,0.9,0l3.1,1.8c0.2,0.1,0.2,0.4,0,0.5l-2.5,1.4c-0.3,0.1-0.7,0.1-0.9,0l-3.1-1.8
								c-0.2-0.1-0.2-0.4,0-0.5L377.9,374.2z"/>
						</g>
						<g>
							<path d="M382.3,376.8c0.3-0.1,0.7-0.1,0.9,0l3.1,1.8c0.2,0.1,0.2,0.4,0,0.5l-2.5,1.4c-0.3,0.1-0.7,0.1-0.9,0l-3.1-1.8
								c-0.2-0.1-0.2-0.4,0-0.5L382.3,376.8z"/>
						</g>
						<g>
							<path d="M386.7,379.4c0.3-0.1,0.7-0.1,0.9,0l3.1,1.8c0.2,0.1,0.2,0.4,0,0.5l-2.5,1.4c-0.3,0.1-0.7,0.1-0.9,0l-3.1-1.8
								c-0.2-0.1-0.2-0.4,0-0.5L386.7,379.4z"/>
						</g>
						<g>
							<path d="M391.1,381.9c0.3-0.1,0.7-0.1,0.9,0l3.8,2.2c0.2,0.1,0.2,0.4,0,0.5l-2.5,1.4c-0.3,0.1-0.7,0.1-0.9,0l-3.8-2.2
								c-0.2-0.1-0.2-0.4,0-0.5L391.1,381.9z"/>
						</g>
						<g>
							<path d="M330.1,350.7c0.3-0.1,0.7-0.1,0.9,0l3.3,1.9c0.2,0.1,0.2,0.4,0,0.5l-2.5,1.4c-0.3,0.1-0.7,0.1-0.9,0l-3.3-1.9
								c-0.2-0.1-0.2-0.4,0-0.5L330.1,350.7z"/>
						</g>
						<g>
							<path d="M334.9,353.5c0.3-0.1,0.7-0.1,0.9,0l4.1,2.4c0.2,0.1,0.2,0.4,0,0.5l-2.5,1.4c-0.3,0.1-0.7,0.1-0.9,0l-4.1-2.4
								c-0.2-0.1-0.2-0.4,0-0.5L334.9,353.5z"/>
						</g>
						<g>
							<path d="M340.3,356.6c0.3-0.1,0.7-0.1,0.9,0l3.1,1.8c0.2,0.1,0.2,0.4,0,0.5l-2.5,1.4c-0.3,0.1-0.7,0.1-0.9,0l-3.1-1.8
								c-0.2-0.1-0.2-0.4,0-0.5L340.3,356.6z"/>
						</g>
						<g>
							<path d="M344.7,359.2c0.3-0.1,0.7-0.1,0.9,0l3.1,1.8c0.2,0.1,0.2,0.4,0,0.5l-2.5,1.4c-0.3,0.1-0.7,0.1-0.9,0l-3.1-1.8
								c-0.2-0.1-0.2-0.4,0-0.5L344.7,359.2z"/>
						</g>
						<g>
							<path d="M349.1,361.8c0.3-0.1,0.7-0.1,0.9,0l3.1,1.8c0.2,0.1,0.2,0.4,0,0.5l-2.5,1.4c-0.3,0.1-0.7,0.1-0.9,0l-3.1-1.8
								c-0.2-0.1-0.2-0.4,0-0.5L349.1,361.8z"/>
						</g>
						<g>
							<path d="M353.5,364.3c0.3-0.1,0.7-0.1,0.9,0l3.1,1.8c0.2,0.1,0.2,0.4,0,0.5L355,368c-0.3,0.1-0.7,0.1-0.9,0l-3.1-1.8
								c-0.2-0.1-0.2-0.4,0-0.5L353.5,364.3z"/>
						</g>
						<g>
							<path d="M357.9,366.9c0.3-0.1,0.7-0.1,0.9,0l3.1,1.8c0.2,0.1,0.2,0.4,0,0.5l-2.5,1.4c-0.3,0.1-0.7,0.1-0.9,0l-3.1-1.8
								c-0.2-0.1-0.2-0.4,0-0.5L357.9,366.9z"/>
						</g>
						<g>
							<path d="M362.3,369.5c0.3-0.1,0.7-0.1,0.9,0l3.1,1.8c0.2,0.1,0.2,0.4,0,0.5l-2.5,1.4c-0.3,0.1-0.7,0.1-0.9,0l-3.1-1.8
								c-0.2-0.1-0.2-0.4,0-0.5L362.3,369.5z"/>
						</g>
						<g>
							<path d="M366.7,372c0.3-0.1,0.7-0.1,0.9,0l3.1,1.8c0.2,0.1,0.2,0.4,0,0.5l-2.5,1.4c-0.3,0.1-0.7,0.1-0.9,0l-3.1-1.8
								c-0.2-0.1-0.2-0.4,0-0.5L366.7,372z"/>
						</g>
						<g>
							<path d="M371.1,374.6c0.3-0.1,0.7-0.1,0.9,0l3.1,1.8c0.2,0.1,0.2,0.4,0,0.5l-2.5,1.4c-0.3,0.1-0.7,0.1-0.9,0l-3.1-1.8
								c-0.2-0.1-0.2-0.4,0-0.5L371.1,374.6z"/>
						</g>
						<g>
							<path d="M375.6,377.2c0.3-0.1,0.7-0.1,0.9,0l3.1,1.8c0.2,0.1,0.2,0.4,0,0.5l-2.5,1.4c-0.3,0.1-0.7,0.1-0.9,0l-3.1-1.8
								c-0.2-0.1-0.2-0.4,0-0.5L375.6,377.2z"/>
						</g>
						<g>
							<path d="M380,379.7c0.3-0.1,0.7-0.1,0.9,0l3.1,1.8c0.2,0.1,0.2,0.4,0,0.5l-2.5,1.4c-0.3,0.1-0.7,0.1-0.9,0l-3.1-1.8
								c-0.2-0.1-0.2-0.4,0-0.5L380,379.7z"/>
						</g>
						<g>
							<path d="M384.4,382.4c0.3-0.1,0.7-0.1,0.9,0l6.7,3.9c0.2,0.1,0.2,0.4,0,0.5l-2.5,1.4c-0.3,0.1-0.7,0.1-0.9,0l-6.7-3.9
								c-0.2-0.1-0.2-0.4,0-0.5L384.4,382.4z"/>
						</g>
						<g>
							<path d="M322.6,350.7c0.3-0.1,0.7-0.1,0.9,0l2.3,1.4c0.2,0.1,0.2,0.4,0,0.5l-6.3,3.5c-0.3,0.1-0.7,0.1-0.9,0l-2.3-1.4
								c-0.2-0.1-0.2-0.4,0-0.5L322.6,350.7z"/>
						</g>
						<g>
							<path d="M326.2,352.8c0.3-0.1,0.7-0.1,0.9,0l3.5,2c0.2,0.1,0.2,0.4,0,0.5l-2.5,1.4c-0.3,0.1-0.7,0.1-0.9,0l-3.5-2
								c-0.2-0.1-0.2-0.4,0-0.5L326.2,352.8z"/>
						</g>
						<g>
							<path d="M331,355.6c0.3-0.1,0.7-0.1,0.9,0l1.7,1c0.2,0.1,0.2,0.4,0,0.5l-2.5,1.4c-0.3,0.1-0.7,0.1-0.9,0l-1.7-1
								c-0.2-0.1-0.2-0.4,0-0.5L331,355.6z"/>
						</g>
						<g>
							<path d="M334.2,357.5c0.3-0.1,0.7-0.1,0.9,0l1.8,1.1c0.2,0.1,0.2,0.4,0,0.5l-2.5,1.4c-0.3,0.1-0.7,0.1-0.9,0l-1.8-1.1
								c-0.2-0.1-0.2-0.4,0-0.5L334.2,357.5z"/>
						</g>
						<g>
							<path d="M337.5,359.4c0.3-0.1,0.7-0.1,0.9,0l5,2.9c0.2,0.1,0.2,0.4,0,0.5l-2.5,1.4c-0.3,0.1-0.7,0.1-0.9,0l-5-2.9
								c-0.2-0.1-0.2-0.4,0-0.5L337.5,359.4z"/>
						</g>
						<g>
							<path d="M343.8,363.1c0.3-0.1,0.7-0.1,0.9,0l3.1,1.8c0.2,0.1,0.2,0.4,0,0.5l-2.5,1.4c-0.3,0.1-0.7,0.1-0.9,0l-3.1-1.8
								c-0.2-0.1-0.2-0.4,0-0.5L343.8,363.1z"/>
						</g>
						<g>
							<path d="M348.2,365.6c0.3-0.1,0.7-0.1,0.9,0l3.1,1.8c0.2,0.1,0.2,0.4,0,0.5l-2.5,1.4c-0.3,0.1-0.7,0.1-0.9,0l-3.1-1.8
								c-0.2-0.1-0.2-0.4,0-0.5L348.2,365.6z"/>
						</g>
						<g>
							<path d="M352.6,368.2c0.3-0.1,0.7-0.1,0.9,0l3.1,1.8c0.2,0.1,0.2,0.4,0,0.5l-2.5,1.4c-0.3,0.1-0.7,0.1-0.9,0l-3.1-1.8
								c-0.2-0.1-0.2-0.4,0-0.5L352.6,368.2z"/>
						</g>
						<g>
							<path d="M357,370.8c0.3-0.1,0.7-0.1,0.9,0l3.1,1.8c0.2,0.1,0.2,0.4,0,0.5l-2.5,1.4c-0.3,0.1-0.7,0.1-0.9,0l-3.1-1.8
								c-0.2-0.1-0.2-0.4,0-0.5L357,370.8z"/>
						</g>
						<g>
							<path d="M361.5,373.4c0.3-0.1,0.7-0.1,0.9,0l3.1,1.8c0.2,0.1,0.2,0.4,0,0.5L363,377c-0.3,0.1-0.7,0.1-0.9,0l-3.1-1.8
								c-0.2-0.1-0.2-0.4,0-0.5L361.5,373.4z"/>
						</g>
						<g>
							<path d="M365.9,375.9c0.3-0.1,0.7-0.1,0.9,0l3.1,1.8c0.2,0.1,0.2,0.4,0,0.5l-2.5,1.4c-0.3,0.1-0.7,0.1-0.9,0l-3.1-1.8
								c-0.2-0.1-0.2-0.4,0-0.5L365.9,375.9z"/>
						</g>
						<g>
							<path d="M370.3,378.5c0.3-0.1,0.7-0.1,0.9,0l3.1,1.8c0.2,0.1,0.2,0.4,0,0.5l-2.5,1.4c-0.3,0.1-0.7,0.1-0.9,0l-3.1-1.8
								c-0.2-0.1-0.2-0.4,0-0.5L370.3,378.5z"/>
						</g>
						<g>
							<path d="M374.7,381.1c0.3-0.1,0.7-0.1,0.9,0l3.1,1.8c0.2,0.1,0.2,0.4,0,0.5l-2.5,1.4c-0.3,0.1-0.7,0.1-0.9,0l-3.1-1.8
								c-0.2-0.1-0.2-0.4,0-0.5L374.7,381.1z"/>
						</g>
						<g>
							<path d="M379.1,383.6c0.3-0.1,0.7-0.1,0.9,0l3.1,1.8c0.2,0.1,0.2,0.4,0,0.5l-2.5,1.4c-0.3,0.1-0.7,0.1-0.9,0l-3.1-1.8
								c-0.2-0.1-0.2-0.4,0-0.5L379.1,383.6z"/>
						</g>
						<g>
							<path d="M383.5,386.2c0.3-0.1,0.7-0.1,0.9,0l3.1,1.8c0.2,0.1,0.2,0.4,0,0.5l-2.5,1.4c-0.3,0.1-0.7,0.1-0.9,0l-3.1-1.8
								c-0.2-0.1-0.2-0.4,0-0.5L383.5,386.2z"/>
						</g>
						<g>
							<path d="M323.8,355.7c0.3-0.1,0.7-0.1,0.9,0l3.1,1.8c0.2,0.1,0.2,0.4,0,0.5l-2.5,1.4c-0.3,0.1-0.7,0.1-0.9,0l-3.1-1.8
								c-0.2-0.1-0.2-0.4,0-0.5L323.8,355.7z"/>
						</g>
						<g>
							<path d="M328.2,358.3c0.3-0.1,0.7-0.1,0.9,0l3.1,1.8c0.2,0.1,0.2,0.4,0,0.5l-2.5,1.4c-0.3,0.1-0.7,0.1-0.9,0l-3.1-1.8
								c-0.2-0.1-0.2-0.4,0-0.5L328.2,358.3z"/>
						</g>
						<g>
							<path d="M332.6,360.9c0.3-0.1,0.7-0.1,0.9,0l3.1,1.8c0.2,0.1,0.2,0.4,0,0.5l-2.5,1.4c-0.3,0.1-0.7,0.1-0.9,0l-3.1-1.8
								c-0.2-0.1-0.2-0.4,0-0.5L332.6,360.9z"/>
						</g>
						<g>
							<path d="M337.1,363.5c0.3-0.1,0.7-0.1,0.9,0l3.1,1.8c0.2,0.1,0.2,0.4,0,0.5l-2.5,1.4c-0.3,0.1-0.7,0.1-0.9,0l-3.1-1.8
								c-0.2-0.1-0.2-0.4,0-0.5L337.1,363.5z"/>
						</g>
						<g>
							<path d="M341.5,366c0.3-0.1,0.7-0.1,0.9,0l20.7,12.1c0.2,0.1,0.2,0.4,0,0.5l-2.5,1.4c-0.3,0.1-0.7,0.1-0.9,0L339,367.9
								c-0.2-0.1-0.2-0.4,0-0.5L341.5,366z"/>
						</g>
						<g>
							<path d="M363.5,378.9c0.3-0.1,0.7-0.1,0.9,0l3.1,1.8c0.2,0.1,0.2,0.4,0,0.5l-2.5,1.4c-0.3,0.1-0.7,0.1-0.9,0l-3.1-1.8
								c-0.2-0.1-0.2-0.4,0-0.5L363.5,378.9z"/>
						</g>
						<g>
							<path d="M367.9,381.4c0.3-0.1,0.7-0.1,0.9,0l3.1,1.8c0.2,0.1,0.2,0.4,0,0.5l-2.5,1.4c-0.3,0.1-0.7,0.1-0.9,0l-3.1-1.8
								c-0.2-0.1-0.2-0.4,0-0.5L367.9,381.4z"/>
						</g>
						<g>
							<path d="M372.3,384c0.3-0.1,0.7-0.1,0.9,0l3.1,1.8c0.2,0.1,0.2,0.4,0,0.5l-2.5,1.4c-0.3,0.1-0.7,0.1-0.9,0l-3.1-1.8
								c-0.2-0.1-0.2-0.4,0-0.5L372.3,384z"/>
						</g>
						<g>
							<path d="M376.7,386.6c0.3-0.1,0.7-0.1,0.9,0l3.1,1.8c0.2,0.1,0.2,0.4,0,0.5l-2.5,1.4c-0.3,0.1-0.7,0.1-0.9,0l-3.1-1.8
								c-0.2-0.1-0.2-0.4,0-0.5L376.7,386.6z"/>
						</g>
						<g>
							<path d="M381.1,389.1c0.3-0.1,0.7-0.1,0.9,0l2.4,1.4c0.2,0.1,0.2,0.4,0,0.5l-2.5,1.4c-0.3,0.1-0.7,0.1-0.9,0l-2.4-1.4
								c-0.2-0.1-0.2-0.4,0-0.5L381.1,389.1z"/>
						</g>
					</g>
					<path d="M365.1,277.4l65.9,38.4c1.4,0.8,2.8,2.1,2.3,4l-16.5,55.8c-0.3,1-1.1,1.6-1.9,1.1l-70-40.8c-0.4-0.2-0.6-0.6-0.6-1.1
						l16.5-55.3C361.2,277.6,363.3,276.3,365.1,277.4z"/>
					<g>
						<g>
							<g>
								<path fill="#FFFFFF" d="M363.7,279.5l67.1,39.2c0.2,0.1,0.2,0.3,0.2,0.5l-16.2,54.2c-0.1,0.3-0.4,0.4-0.6,0.2l-67.1-39.1
									c-0.2-0.1-0.2-0.3-0.2-0.5l16.2-54.2C363.2,279.4,363.5,279.3,363.7,279.5z"/>
								<path fill="#0B0602" d="M414.4,373.9c-0.1,0-0.3,0-0.4-0.1l-67.1-39.1c-0.3-0.2-0.5-0.5-0.4-0.9l16.2-54.2
									c0.1-0.2,0.2-0.4,0.5-0.5c0.2-0.1,0.5-0.1,0.7,0l67.1,39.2c0.3,0.2,0.5,0.5,0.4,0.9l-16.2,54.2c-0.1,0.2-0.2,0.4-0.5,0.5
									C414.6,373.9,414.5,373.9,414.4,373.9z M363.5,279.8C363.5,279.8,363.5,279.8,363.5,279.8L347.2,334l67.2,39.2l16.3-54.2
									L363.5,279.8C363.5,279.8,363.5,279.8,363.5,279.8z"/>
							</g>
						</g>
					</g>
				</g>
			</g>
			<g>
				<g>
					<g>
						<g>
							<g>
								<path fill="#FFFFFF" d="M229.7,617.3c4.3-2.4,44.9-9.5,53.5-2.8c7.3,5.7-7,14.7-11.5,16.9c-4.9,2.4-33.8,15.7-47.2,6.9
									c-1.6-1.1-3.2-2.3-4.1-3.9C218.9,631.5,226.4,619.2,229.7,617.3z"/>
								<path fill="#0B0602" d="M236.4,641.7c-4.6,0-8.8-0.8-12.1-3c-1.5-1-3.3-2.3-4.2-4.1c-1.6-3.2,6.1-15.7,9.4-17.6h0
									c4-2.2,45.1-9.7,53.9-2.8c1.6,1.3,2.4,2.8,2.2,4.5c-0.6,5.5-10.4,11.4-13.7,13C267.6,633.8,250.4,641.7,236.4,641.7z
									 M229.8,617.7c-3.3,1.8-10.4,14-9.1,16.6c0.9,1.6,2.5,2.8,3.9,3.8c13.1,8.6,41.3-4.3,46.8-6.9c4.1-2,12.8-7.6,13.3-12.4
									c0.2-1.5-0.5-2.7-1.9-3.8C274.3,608.1,233.8,615.5,229.8,617.7L229.8,617.7z"/>
							</g>
							<path d="M228.5,617.8c3.3-1.8,20.6-6.4,27-7.3c12-1.7,26,1.8,26.6,5.4c0.7,4.5-9.1,9.6-13.6,11.8
								c-12.9,6.3-34.5,11.4-41.2,7.5c-1.7-1-4.7-3-5.6-4.7C220.2,627.7,225,619.8,228.5,617.8z"/>
						</g>
					</g>
					<g>
						<path fill="#F4D9C3" d="M236.4,593.3l23.9,3.1c0,0-13,17.2-15.5,25c-1.2,3.9-8,4.2-11.8,3.3c0.8-1.5,1.1-4.8-1-6.1
							c-2.1-1.3-3.6,0.6-5.1,1.3C228.1,617.4,236.4,593.3,236.4,593.3z"/>
						<path fill="#0B0602" d="M236.8,625.5c-1.5,0-2.9-0.2-3.9-0.4l-0.5-0.1l0.2-0.4c0.7-1.3,1-4.4-0.9-5.6
							c-1.4-0.8-2.4-0.2-3.5,0.6c-0.4,0.3-0.8,0.5-1.2,0.7l-0.9,0.4l0.5-0.9c1.2-2.4,9.4-26.3,9.5-26.5l0.1-0.3l24.9,3.2l-0.4,0.5
							c-0.1,0.2-13,17.3-15.5,24.9C244.2,624.6,240.3,625.5,236.8,625.5z M233.5,624.5c3.9,0.8,9.8,0.2,10.9-3.2
							c2.3-7.1,13-21.6,15.2-24.6l-23-3c-0.9,2.6-7,20.4-9,25.3c0.1,0,0.1-0.1,0.2-0.1c1.1-0.7,2.5-1.7,4.3-0.6
							C234.3,619.6,234.2,622.7,233.5,624.5z"/>
					</g>
				</g>
				<g>
					<path fill="#8374EE" d="M305.9,394.4c-13.1-8-33.6-6.8-36.9-3.4c-13.3,14.1-20.4,34.4-5.1,59.6c2.3,3.7,1.8,53.1,4,66.6
						c-21.9,22.9-31.1,73.2-35.2,80.9c9.5,13.8,27.1,6.6,27.1,6.6s38.8-66.7,45.9-83c0-0.1,0.1-0.2,0.1-0.3c0.5-0.8,0.9-1.7,1.1-2.7
						C310.6,505.2,329.4,408.8,305.9,394.4z"/>
					<path fill="#0B0602" d="M249.6,606.8c-5.6,0-12.4-1.7-17.1-8.6l-0.1-0.2l0.1-0.2c1-2,2.5-7,4.3-13.3
						c5.5-18.9,14.6-50.4,30.8-67.5c-1-6.6-1.5-21-1.9-35c-0.4-14.5-0.9-29.4-2-31.3c-16.7-27.4-6.4-47.8,5.1-60
						c3.3-3.5,23.9-4.9,37.3,3.3l0,0c23.7,14.5,4.8,111.4,1.3,124.6c-0.3,0.9-0.6,1.9-1.2,2.8l-0.1,0.2c-7,16.2-45.5,82.4-45.9,83.1
						l-0.1,0.1l-0.1,0C260,605,255.4,606.8,249.6,606.8z M233.3,598c8.8,12.5,24.9,6.9,26.4,6.3c1.8-3.1,38.9-67.1,45.8-82.9
						l0.1-0.3c0.5-0.9,0.9-1.8,1.1-2.6c3.5-13.2,22.4-109.6-1-123.8l0,0c-12.9-7.9-33.3-6.7-36.4-3.4c-11.4,12.1-21.5,32.1-5,59.1
						c1.2,2,1.7,15.8,2.1,31.7c0.4,14.1,0.9,28.6,1.9,35l0,0.2l-0.1,0.1c-16.1,16.9-25.3,48.4-30.7,67.3
						C235.7,591.2,234.3,595.9,233.3,598z"/>
				</g>
				<path d="M276.2,521.3c7.5-4.1,16.6-1.5,16.2-3c-3.2-13.1-24.1-34.5-26.4-35.6c-0.5-15.4-0.9-30.1-2.1-32
					c-15.3-25.2-8.2-45.5,5.1-59.6c3.2-3.4,23.8-4.6,36.9,3.4c23.5,14.4,4.7,110.8,1.1,124.2c-1.4,5.2-23.9,45.4-23.9,45.4
					s9.2-26.5,3.5-37.2C285,523.8,276.1,521.3,276.2,521.3z"/>
				<g>
					<path fill="#F4D9C3" d="M311.9,369.9c-0.2,0.9-7.5-1.3-7.5-1.3c0,0.7,1.6,0.7,3.3,1.1c4.5,1.2,11.3,5.6,13.5,7.4
						c1.4,1.2-2.4,2.3-1.2,3.5c6.3,6.3-6.5,4.1-7.5,5.3c-3.5,4-16.7-3.9-19.4-5.7c-7.2-4.6-51.3-15.2-60.4-22.6
						c-6-4.9-3.7-15.9,5.5-17.5c18.7-3.2,45,25.3,54.9,26.6c1.3,0.2,4.6-0.8,5.9-2.4C301.8,361.2,312.4,368.2,311.9,369.9z"/>
					<path fill="#0B0602" d="M309.5,387.5c-5.5,0-14.5-5.5-16.6-6.9c-2.9-1.9-12.1-4.8-22.8-8.1c-15.1-4.8-32.3-10.1-37.7-14.6
						c-2.9-2.4-4.1-6.4-3.1-10.3c1.1-4.2,4.4-7.1,8.8-7.8c11.9-2,26.7,8.5,38.6,17c6.9,4.9,12.9,9.2,16.5,9.6
						c1.2,0.2,4.4-0.9,5.6-2.2c1.8-2.2,6.1-0.2,7.9,0.7c2.5,1.3,5.9,3.8,5.6,5.2l0,0c0,0.1-0.1,0.2-0.3,0.3
						c-0.2,0.1-0.7,0.1-1.2,0.1c4.1,1.8,8.7,4.8,10.7,6.4c0.3,0.2,0.5,0.5,0.5,0.8c0,0.6-0.5,1.1-1,1.5c-0.3,0.3-0.8,0.7-0.8,1
						c0,0,0,0.1,0.1,0.2c1.5,1.5,2.1,2.7,1.7,3.7c-0.6,1.6-3.6,1.7-6.3,1.8c-1.1,0.1-2.7,0.1-2.9,0.4
						C312.1,387.1,310.9,387.5,309.5,387.5z M241.3,340.3c-1,0-2,0.1-3,0.2c-4.1,0.7-7.2,3.4-8.2,7.3c-1,3.6,0.2,7.3,2.8,9.5
						c5.3,4.3,22.3,9.7,37.4,14.4c10.7,3.4,19.9,6.3,22.9,8.2c5.7,3.6,16.2,8.9,18.9,5.8c0.4-0.4,1.4-0.5,3.4-0.6
						c2.2-0.1,5.2-0.2,5.6-1.4c0.2-0.6-0.3-1.6-1.6-2.9c-0.2-0.2-0.4-0.5-0.3-0.8c0-0.6,0.5-1,1-1.5c0.3-0.3,0.8-0.7,0.8-0.9
						c0-0.1-0.1-0.2-0.2-0.3c-2.1-1.7-8.9-6.2-13.4-7.3c-0.5-0.1-0.9-0.2-1.3-0.3c-1.2-0.2-2.2-0.4-2.2-1.2l0-0.5l0.5,0.1
						c2.9,0.9,6.3,1.7,7,1.5c-0.1-0.6-2-2.5-5.2-4.2c-3.4-1.7-6-2.1-7-0.9c-1.4,1.6-4.8,2.7-6.2,2.5c-3.8-0.5-9.8-4.8-16.8-9.8
						C265.5,349.7,252.3,340.3,241.3,340.3z"/>
				</g>
				<path d="M305.2,300.4c5.3,10.4-2.8,20.4-21.5,32.1c-15.9,10-18,14.1-22.4,17.5c-9.7,7.5-21.4,7.5-29.4,6.1
					c-5.2-0.9-8.1-6.7-5.4-11.3c10.7-18.4,29.1-35.4,41-44.9C281.9,288.6,299.3,288.7,305.2,300.4z"/>
				<path d="M240.9,351c23.5-7.2,43-22,59.4-40c2.6-2.9,4.4-6.1,5.5-9.4c4.1,10-4,19.7-22,31c-15.9,10-18,14.1-22.4,17.5
					c-9.7,7.5-21.4,7.5-29.4,6.1c-1.5-0.2-2.7-0.9-3.8-1.8C232.4,353.4,236.6,352.3,240.9,351z"/>
				<g>
					<g>
						<g>
							<g>
								<path fill="#FFFFFF" d="M348.8,626.6c4.2-2.3,46-13.9,54.8-1c2.5,3.7-5.7,11.7-10.2,13.9c-4.8,2.3-36.5,16.4-49.7,7.8
									c-1.6-1-3.1-2.2-4-3.9C338.2,640.5,345.5,628.4,348.8,626.6z"/>
								<path fill="#0B0602" d="M355.2,650.4c-4.5,0-8.6-0.8-11.8-2.9c-1.5-1-3.2-2.2-4.1-4c-1.6-3.1,6-15.5,9.2-17.3h0
									c3.7-2,46.1-14.4,55.3-0.9c0.6,0.8,0.7,1.9,0.3,3.1c-1.1,4.1-7.1,9.6-10.6,11.3C392.4,640.3,371.3,650.4,355.2,650.4z
									 M348.9,626.9c-3.2,1.8-10.2,13.7-8.9,16.3c0.8,1.6,2.4,2.8,3.9,3.7c13.9,9.1,49-7.6,49.3-7.8c3.4-1.6,9.2-6.9,10.2-10.8
									c0.3-1,0.2-1.8-0.2-2.5C394.8,613.4,353.9,624.2,348.9,626.9L348.9,626.9z"/>
							</g>
							<path d="M347.6,627.1c3.3-1.8,20.3-6.3,26.5-7.2c11.8-1.6,25.6,1.7,26.1,5.3c0.6,4.4-7.4,9.9-11.8,12
								c-12.6,6.2-35.5,10.7-42,6.9c-1.6-1-4.6-2.9-5.5-4.6C339.4,636.7,344.1,628.9,347.6,627.1z"/>
						</g>
					</g>
					<g>
						<path fill="#F4D9C3" d="M347.6,603.9l21.8,2.9c0,0-2.9,17.2-5.4,25c-1.2,3.9-8,4.2-11.8,3.3c0.8-1.5,1.1-4.8-1-6.1
							c-2.1-1.3-4.5,1.3-6,2C346.5,628.5,347.6,603.9,347.6,603.9z"/>
						<path fill="#0B0602" d="M356,635.9c-1.5,0-2.9-0.2-3.9-0.4l-0.5-0.1l0.2-0.4c0.7-1.3,1-4.4-0.9-5.6c-1.3-0.8-2.8,0.2-4.2,1.1
							c-0.5,0.4-1,0.7-1.5,0.9l-0.9,0.4l0.5-0.9c1-2,2-20.1,2.4-26.9l0-0.4l22.6,3l-0.1,0.4c0,0.2-3,17.3-5.4,25
							C363.4,634.9,359.5,635.9,356,635.9z M352.7,634.8c3.9,0.8,9.8,0.2,10.9-3.2c2.3-7,4.9-22,5.3-24.5l-21-2.8
							c-0.1,3.1-1.1,21-2.1,25.8c0.2-0.1,0.4-0.2,0.5-0.4c1.4-0.9,3.2-2.2,5-1.1C353.5,630,353.4,633.1,352.7,634.8z"/>
					</g>
				</g>
				<g>
					<path fill="#8374EE" d="M390.5,511c-0.1-0.8-0.2-1.6-0.4-2.5c-7.5-25.9-41-93.5-68.2-98.3c-24.9-4.4-38.9,24.4-21.8,56.1
						c11.1,20.6,40.8,45.8,52.4,56.9c-5.5,18.1-4.4,64.2-9.7,87.2c15.2,6.9,28.5,1.3,28.5,1.3s19.3-72.1,19.5-96.8
						C390.8,513.5,390.7,512.2,390.5,511z"/>
					<path fill="#0B0602" d="M358.7,614.3c-4.7,0-10.2-0.8-16-3.4l-0.3-0.1l0.1-0.3c2.5-11.1,3.6-27.6,4.6-43.6
						c1.1-17.5,2.2-34,5-43.5c-2-1.9-4.5-4.2-7.4-6.9c-14.2-13.1-35.7-32.9-44.9-49.9c-9.5-17.6-10.2-35.8-1.8-47.4
						c5.5-7.6,14.2-10.9,24-9.2c27.5,4.8,60.9,72.1,68.5,98.5c0.2,0.8,0.4,1.6,0.4,2.5c0.2,1.2,0.3,2.6,0.3,4
						c-0.2,24.5-19.3,96.2-19.5,96.9l0,0.2l-0.2,0.1C371.4,612.2,366.2,614.3,358.7,614.3z M343.2,610.3c13.9,6.1,26.2,1.8,27.8,1.2
						c1.1-4.1,19.3-72.8,19.4-96.6c0-1.4-0.1-2.7-0.3-3.9l0,0c-0.1-0.9-0.2-1.6-0.4-2.4c-3.5-12.3-13.4-35.3-26.7-57
						c-10.6-17.3-26.3-38.4-41.2-41c-9.5-1.7-17.9,1.6-23.2,8.9c-8.1,11.2-7.4,29.5,1.8,46.6c9.1,17,30.6,36.7,44.8,49.7
						c3,2.7,5.5,5.1,7.6,7.1l0.2,0.2l-0.1,0.2c-2.9,9.4-3.9,26-5.1,43.5C346.8,582.8,345.7,599.2,343.2,610.3z"/>
				</g>
				<path d="M321.9,410.3c10.7,1.9,22.3,13.5,33,28.4c-9.5,0.5-30.6,26.1-30.6,54.6c0,4.5-17.6-14.5-24.3-26.9
					C283,434.7,297,405.9,321.9,410.3z"/>
				<g>
					<path fill="#EEBD34" d="M290.1,291.9c12.8,0,61.9,11.4,61.9,41.3c0,23.8-12.6,88.3,1.7,103.6c-16.8,0-23,25.1-49.1,36.3
						c-15.2,6.5-47.6,5.2-54.6-10.5C250,462.7,238.7,291.9,290.1,291.9z"/>
					<path fill="#0B0602" d="M283.3,477.4c-14.3,0-29.2-4.4-33.7-14.5l0-0.1c-0.1-1.3-8.2-129.7,23.1-163.2c5-5.4,10.9-8.1,17.3-8.1
						c6.6,0,22.1,2.9,35.9,9.5c12,5.7,26.4,16,26.4,32.2c0,6.7-1,16.4-2.1,27.6c-2.9,28.9-6.5,64.9,3.7,75.8l0.6,0.6h-0.9
						c-8.3,0-13.9,6.2-21,14.1c-7,7.8-14.9,16.6-27.9,22.2C299,476,291.2,477.4,283.3,477.4z M250.4,462.6
						c6.8,14.9,38.5,16.9,54.1,10.2c12.8-5.5,20.7-14.3,27.7-22c6.7-7.5,12.5-13.9,20.7-14.3c-9.7-11.8-6.2-47.2-3.3-75.8
						c1.1-11.2,2.1-20.9,2.1-27.5c0-30.3-50.7-41-61.5-41c-6.3,0-11.9,2.6-16.8,7.8C242.5,333,250.1,459.1,250.4,462.6z"/>
				</g>
				<g>
					<path fill="#F4D9C3" d="M372.3,315.6c1.6,0.2,1.7,7.2,2.3,7.1c0.7-0.1-2.3-15.1-2.5-17.9c-0.3-4,2.9-1.8,3.6,0
						c2.1,5.2,1.9,10.9,3.6,9.6c0.7-0.5,2.3-3.1,5.4-3.5c1.4-0.2,4.7-1.9,6.3-0.1c2.1,2.4,3.3,4.8,1.4,6c-1,0.6-1.5-0.9-1.8,0.4
						c-0.9,3.8,1.2,13.2,1.2,17.5c0,2.9-1.1,2.5-1.3,3c-5,18.7,12.7,51.4,1.3,59.9c-6.8,5.1-22.3,2.9-21.6-8.6
						c1.1-18.9,7.7-42.5,6.6-50.3c-0.3-2.1-3.3-4.9-4.4-6.8c-1.7-2.8-2.1-5.3-1.5-12.6C371.3,316.8,370.3,315.3,372.3,315.6z"/>
					<path fill="#0B0602" d="M383.2,400.8c-2.7,0-5.4-0.6-7.7-1.8c-3.8-2-5.8-5.5-5.5-9.8c0.5-9.3,2.4-19.6,4-28.8
						c1.7-9.4,3.1-17.5,2.6-21.4c-0.2-1.3-1.5-3-2.7-4.4c-0.6-0.8-1.2-1.6-1.6-2.2c-1.8-3-2.1-5.7-1.5-12.8c0.1-0.8,0-1.6,0-2.2
						c-0.1-0.9-0.1-1.5,0.3-1.9c0.3-0.3,0.7-0.3,1.4-0.2h0c0.6,0.1,1,0.7,1.3,1.7c-0.3-1.8-0.6-3.8-0.9-5.5c-0.5-3-1-5.6-1.1-6.6
						c-0.2-1.9,0.5-2.5,1-2.6c1.2-0.3,2.8,1.2,3.2,2.4c0.9,2.2,1.3,4.4,1.7,6.2c0.3,1.5,0.7,3.2,1.1,3.3c0,0,0.1,0,0.2-0.1
						c0.1-0.1,0.3-0.3,0.6-0.6c0.9-1,2.5-2.7,5-3c0.3,0,0.7-0.2,1.2-0.3c1.7-0.5,4-1.2,5.4,0.4c1.8,2,2.6,3.7,2.4,5
						c-0.1,0.7-0.5,1.2-1.1,1.6c-0.6,0.4-1.1,0.1-1.4,0c0,0-0.1,0-0.1,0c0,0,0,0.1-0.1,0.2c-0.5,2.3,0.1,6.7,0.6,10.7
						c0.3,2.6,0.7,5.1,0.7,6.8c0,2.1-0.6,2.6-1.1,3c-0.1,0-0.1,0.1-0.2,0.1c-2.2,8.4,0.1,19.5,2.3,30.2c2.7,12.9,5.3,25.1-1.1,29.9
						C389.8,399.9,386.5,400.8,383.2,400.8z M371.9,316c-0.2,0-0.3,0-0.4,0.1c-0.2,0.1-0.1,0.7-0.1,1.3c0,0.6,0.1,1.4,0,2.3
						c-0.7,7.4-0.2,9.7,1.4,12.3c0.4,0.6,1,1.3,1.6,2.1c1.2,1.5,2.6,3.3,2.9,4.8c0.6,4.1-0.9,12.2-2.6,21.7
						c-1.6,9.1-3.5,19.5-4,28.7c-0.3,5.1,2.6,7.7,5.1,9c4.8,2.6,11.9,2.2,15.9-0.8c6-4.5,3.5-16.5,0.9-29.2
						c-2.3-10.8-4.6-22-2.3-30.6c0.1-0.3,0.3-0.4,0.5-0.5c0.3-0.2,0.8-0.5,0.8-2.4c0-1.7-0.3-4.1-0.7-6.7c-0.6-4.2-1.1-8.5-0.6-10.9
						c0.1-0.3,0.2-0.6,0.5-0.8c0.3-0.1,0.5,0,0.8,0.1c0.3,0.1,0.4,0.2,0.7,0.1c0.4-0.3,0.7-0.6,0.8-1.1c0.2-1-0.6-2.6-2.3-4.4
						c-1.1-1.2-3.1-0.6-4.6-0.2c-0.5,0.2-1,0.3-1.4,0.3c-2.3,0.3-3.7,1.8-4.6,2.8c-0.3,0.3-0.5,0.5-0.7,0.7
						c-0.4,0.3-0.7,0.3-0.9,0.2c-0.8-0.3-1.1-1.6-1.5-3.9c-0.4-1.8-0.8-4-1.7-6.1c-0.4-1-1.7-2.1-2.4-2c-0.4,0.1-0.6,0.8-0.5,1.8
						c0.1,1,0.6,3.7,1,6.6c1.4,8.2,1.8,11,1.5,11.5l-0.1,0.1l-0.2,0.1c-0.6,0.1-0.7-0.6-1-2.5c-0.2-1.5-0.7-4.5-1.4-4.6l0,0
						C372.1,316,372,316,371.9,316z"/>
				</g>
				<g>
					<g>
						<path fill="#F4D9C3" d="M329.9,303.4c0.1,0,0.1,0.1,0.2,0.1C330.1,303.6,330.1,303.5,329.9,303.4z"/>
						<path fill="#0B0602" d="M329.9,303.9l-0.2-0.1l0.4-0.6c0.2,0.1,0.3,0.2,0.3,0.2L329.9,303.9z"/>
					</g>
					<g>
						<path fill="#F4D9C3" d="M344.3,269.2c1-1.9,1-10.4,1-10.4c-8.3-16.1-42.5-2.1-39.8,6.3c2.1,6.4,2,12.1,1.8,14.5c0,0,0,0,0,0
							s-0.7,7.6-6.4,12.5c-5.6,4.9,3,13,14.8,11.2c10.1-1.6,13.4-0.3,14.1,0.2c-4.2-2.7-8.1-4.1-6-11.4c5.1,1.7,9.1,1.7,10.2,0.9
							c1.5-1.1,2.9-5.7,4.2-7.6c1.3-2,3.7-5.7,4-7.4c0.3-1.7-0.5-3.9,0-5.1C342.9,271.7,343.6,270.6,344.3,269.2z"/>
						<path fill="#0B0602" d="M312.4,303.9c-6.4,0-11.5-2.9-13-6.2c-1-2.1-0.5-4.3,1.4-5.9c5.4-4.8,6.2-12.2,6.3-12.3l0-0.5v0
							c0.1-2.5,0.1-7.9-1.8-13.9c-1.3-4,4.6-8.4,11-11.1c10.8-4.5,24.6-5,29.5,4.5l0,0.2c0,0.4,0,8.7-1.1,10.6l0,0
							c-0.3,0.5-0.5,1-0.8,1.4c-0.5,0.8-0.9,1.5-1.2,2.2c-0.2,0.5-0.1,1.4,0,2.3c0.1,0.9,0.2,1.8,0.1,2.7c-0.2,1.3-1.6,3.9-4.1,7.6
							c-0.5,0.8-1,1.9-1.6,3.2c-0.8,1.9-1.7,3.9-2.7,4.6c-1.2,0.9-5.1,0.9-10.2-0.7c-1.6,5.9,1.1,7.6,4.7,9.8
							c0.4,0.2,0.8,0.5,1.2,0.8l-0.4,0.6c-0.8-0.4-4-1.7-13.9-0.1C314.7,303.8,313.5,303.9,312.4,303.9z M307.7,280.1
							c-0.3,1.7-1.5,8-6.4,12.3c-1.6,1.4-2.1,3.2-1.2,5c1.7,3.6,8,6.7,15.7,5.5c6-0.9,9.6-0.9,11.8-0.5c-3.2-2-5.7-4.2-3.9-10.4
							l0.1-0.4l0.4,0.1c5,1.7,8.9,1.6,9.9,1c0.8-0.6,1.7-2.5,2.5-4.3c0.6-1.3,1.1-2.5,1.6-3.3c2.3-3.5,3.7-6.1,4-7.3
							c0.1-0.8,0-1.6-0.1-2.5c-0.1-1-0.2-2,0.1-2.7c0.3-0.8,0.8-1.5,1.2-2.3c0.2-0.4,0.5-0.9,0.8-1.4l0,0c0.8-1.4,1-7.7,1-10.2
							c-4.7-9-18.1-8.4-28.5-4c-7.2,3-11.5,7.2-10.5,10.2c2.1,6.5,2,12.4,1.9,14.6L307.7,280.1L307.7,280.1z"/>
					</g>
				</g>
				<path d="M345.3,261.8c0,0-3.8,5.1-7.2,6s-0.8,9.1-3,8.7c-4.3-0.7-1.4-8.6-6.6-5.9c-2.6,1.4-2.1,8-1.8,10.7
					c0.3,2.7-3.5,3.4-7.8,2.7c-3.2-0.5-9.9-3.7-11.5-5c0,0,0-5.5-0.4-7.6c-0.3-2.1,0.4-2.9,9-12.2
					C324.7,249.9,345.3,261.8,345.3,261.8z"/>
				<path d="M306.7,269.6c0,0,7.5,9.4,15.4-1.8c7.9-11.2,16.7-3.6,23.1-6c6.4-2.4,7.6-16.2,0-17.4c-1.5-0.2-0.7,2.9-8.3,0.7
					c-7.6-2.2-18-3.4-23.1-1.2c-5,2.2-11,7.5-9.8,14.9C305.3,266.1,306.7,269.6,306.7,269.6z"/>
				<g>
					<path fill="#EEBD34" d="M344.9,315.4c11,15,42.8,52.3,47,57.1c5.5,6.5-4.9,34.2-16.1,27.4c-19-11.5-38.5-32.9-49.2-45.2
						C312.6,338.5,332,297.8,344.9,315.4z"/>
					<path fill="#0B0602" d="M379.3,401.3c-1.3,0-2.6-0.4-3.8-1.1c-14-8.5-30.6-23.8-49.3-45.3c-6.9-8-5.5-21-2.2-29.7
						c3.1-8.3,8-13.8,12.9-14.5c3-0.4,5.9,1.1,8.3,4.4c10.3,14,38.5,47.3,46.9,57.1c3.9,4.6,0.2,18.3-5.4,24.8
						C384.4,399.9,381.8,401.3,379.3,401.3z M337.9,311.4c-0.3,0-0.6,0-0.9,0.1c-4.5,0.6-9.3,6.1-12.3,14c-3.2,8.5-4.6,21.2,2.1,29
						c18.6,21.5,35.1,36.6,49.1,45.1c4.2,2.6,7.9-0.2,10.3-2.9c5.9-6.9,8.8-19.8,5.4-23.9c-8.4-9.9-36.7-43.1-47-57.2l0,0
						C342.6,312.8,340.3,311.4,337.9,311.4z"/>
				</g>
			</g>
			<path fill="#EEBD34" d="M340.2,310.9c0,0,2.6,2.2,3.2,3.2c0.6,1.1-14.5,30.9-14.5,30.9l-9.8,9c0,0-5-14-3.2-27.6
				c1.8-13.6,4.3-16.3,7.8-17.9C327.2,306.9,340.2,310.9,340.2,310.9z"/>
		</g>
		<g>
			<g>
				<path fill="#8374EE" d="M455.8,368.8l35.9-20.8c3.9-2.2,8.6-2.3,12.5-0.1l174.5,95.6c3.9,2.2,4,7.8,0.1,10.1l-35.9,20.8
					c-3.9,2.2-8.6,2.3-12.5,0.1l-174.5-95.6C451.9,376.7,451.9,371.1,455.8,368.8z"/>
				<path fill="#181818" d="M636.5,476.6c-2.2,0-4.4-0.5-6.4-1.6l-174.5-95.6c-2-1.1-3.2-3.1-3.3-5.4c0-2.3,1.1-4.3,3.1-5.5
					l35.9-20.8c4-2.3,9-2.4,13-0.1l174.5,95.6c2,1.1,3.2,3.1,3.3,5.4s-1.1,4.3-3.1,5.5l-35.9,20.8
					C641.1,476,638.8,476.6,636.5,476.6z M455.8,368.8l0.2,0.4c-1.7,1-2.7,2.7-2.6,4.6c0,1.9,1,3.6,2.7,4.6l174.5,95.6
					c3.7,2.1,8.4,2,12.1-0.1l35.9-20.8c1.7-1,2.7-2.7,2.6-4.6c0-1.9-1-3.6-2.7-4.6L504,348.4c-3.7-2-8.4-2-12.1,0.1L456,369.3
					L455.8,368.8z"/>
			</g>
			<g>
				<path fill="#181818" d="M455.8,374.2l35.9-20.8c3.9-2.2,8.6-2.3,12.5-0.1l174.5,95.6c1.1,0.6,1.8,1.4,2.3,2.4
					c1.4-2.6,0.6-6.1-2.3-7.7l-174.5-95.6c-3.9-2.1-8.7-2.1-12.5,0.1l-35.9,20.8c-2.8,1.6-3.6,5.1-2.2,7.7
					C454,375.6,454.7,374.8,455.8,374.2z"/>
			</g>
			<g>
				
					<rect x="486.4" y="346.6" transform="matrix(0.4569 0.8895 -0.8895 0.4569 595.5096 -230.9241)" fill="#181818" width="1" height="51.3"/>
			</g>
			<g>
				
					<rect x="494.1" y="350.8" transform="matrix(0.4567 0.8896 -0.8896 0.4567 603.6102 -235.507)" fill="#181818" width="1" height="51.3"/>
			</g>
			<g>
				
					<rect x="501.9" y="355" transform="matrix(0.4559 0.89 -0.89 0.4559 612.1204 -240.0168)" fill="#181818" width="1" height="51.3"/>
			</g>
			<g>
				
					<rect x="509.6" y="359.2" transform="matrix(0.4571 0.8894 -0.8894 0.4571 619.2562 -244.7693)" fill="#181818" width="1" height="51.3"/>
			</g>
			<g>
				
					<rect x="517.4" y="363.4" transform="matrix(0.4559 0.89 -0.89 0.4559 628.0589 -249.2318)" fill="#181818" width="1" height="51.3"/>
			</g>
			<g>
				
					<rect x="525.1" y="367.6" transform="matrix(0.4563 0.8898 -0.8898 0.4563 635.7548 -253.8853)" fill="#181818" width="1" height="51.3"/>
			</g>
			<g>
				
					<rect x="532.9" y="371.9" transform="matrix(0.4555 0.8902 -0.8902 0.4555 644.2925 -258.3962)" fill="#181818" width="1" height="51.3"/>
			</g>
			<g>
				
					<rect x="540.6" y="376.1" transform="matrix(0.4551 0.8904 -0.8904 0.4551 652.5618 -262.9536)" fill="#181818" width="1" height="51.3"/>
			</g>
			<g>
				
					<rect x="548.4" y="380.3" transform="matrix(0.4547 0.8906 -0.8906 0.4547 660.8443 -267.5099)" fill="#181818" width="1" height="51.3"/>
			</g>
			<g>
				
					<rect x="556.1" y="384.5" transform="matrix(0.4547 0.8906 -0.8906 0.4547 668.8293 -272.1164)" fill="#181818" width="1" height="51.3"/>
			</g>
			<g>
				
					<rect x="563.9" y="388.7" transform="matrix(0.4559 0.89 -0.89 0.4559 675.8948 -276.8722)" fill="#181818" width="1" height="51.3"/>
			</g>
			<g>
				
					<rect x="571.7" y="392.9" transform="matrix(0.4559 0.89 -0.89 0.4559 683.8682 -281.4791)" fill="#181818" width="1" height="51.3"/>
			</g>
			<g>
				
					<rect x="579.4" y="397.2" transform="matrix(0.4559 0.89 -0.89 0.4559 691.8482 -286.0843)" fill="#181818" width="1" height="51.3"/>
			</g>
			<g>
				
					<rect x="587.2" y="401.4" transform="matrix(0.4559 0.89 -0.89 0.4559 699.8137 -290.693)" fill="#181818" width="1" height="51.3"/>
			</g>
			<g>
				
					<rect x="594.9" y="405.6" transform="matrix(0.4555 0.8902 -0.8902 0.4555 708.1053 -295.2495)" fill="#181818" width="1" height="51.3"/>
			</g>
			<g>
				
					<rect x="602.7" y="409.8" transform="matrix(0.4567 0.8896 -0.8896 0.4567 715.1214 -300.004)" fill="#181818" width="1" height="51.3"/>
			</g>
			<g>
				
					<rect x="610.4" y="414" transform="matrix(0.4559 0.89 -0.89 0.4559 723.7409 -304.5112)" fill="#181818" width="1" height="51.3"/>
			</g>
			<g>
				
					<rect x="618.2" y="418.2" transform="matrix(0.4571 0.8894 -0.8894 0.4571 730.7115 -309.2676)" fill="#181818" width="1" height="51.3"/>
			</g>
			<g>
				
					<rect x="625.9" y="422.5" transform="matrix(0.4563 0.8898 -0.8898 0.4563 739.3424 -313.7758)" fill="#181818" width="1" height="51.3"/>
			</g>
			<g>
				
					<rect x="633.7" y="426.7" transform="matrix(0.4559 0.89 -0.89 0.4559 747.6587 -318.3316)" fill="#181818" width="1" height="51.3"/>
			</g>
			<g>
				
					<rect x="641.4" y="430.9" transform="matrix(0.4555 0.8902 -0.8902 0.4555 755.9651 -322.8892)" fill="#181818" width="1" height="51.3"/>
			</g>
			<g opacity="0.55">
				<path fill="#35333E" d="M620.3,464.7c-0.2,0-0.3,0-0.5-0.1l-9.7-5.6c-0.3-0.2-0.5-0.6-0.5-0.9l1.4-16l-6.1-3.5
					c-0.5-0.3-0.6-0.9-0.4-1.3l5.1-9.2l-16,5.3c-0.4,0.1-0.8,0-1.1-0.3c-0.3-0.3-0.3-0.8,0-1.1l2.4-3.6l-20.6,4.6
					c-0.4,0.1-0.8-0.1-1-0.3c-0.2-0.3-0.3-0.7-0.1-1l0.4-0.8l-7.1,2c-0.3,0.1-0.5,0-0.7-0.1l-14.2-7.9c-0.2-0.1-0.3-0.2-0.4-0.4
					l-2.8-4.8l-18.1-9.8c-0.3-0.2-0.5-0.5-0.5-0.9v-7.4l-6.9,0.1c-0.5,0-0.9-0.3-1-0.8l-0.5-2l-7.8-0.1c-0.2,0-0.3,0-0.5-0.1
					l-9.3-5.3c-0.3-0.1-0.4-0.4-0.5-0.7c-0.1-0.3,0-0.6,0.2-0.8l8.1-9.5l-9.8,5.1c-0.4,0.2-0.9,0.1-1.2-0.2
					c-0.3-0.3-0.3-0.8-0.1-1.2l1.5-2.2l-12.5,4.8c-0.4,0.1-0.7,0.1-1-0.2c-0.3-0.3-0.4-0.6-0.3-1l0.6-2.3l-6.8,2
					c-0.3,0.1-0.5,0-0.8-0.1l-15.4-8.5l1-1.7l15.1,8.3l8.1-2.3c0.3-0.1,0.7,0,1,0.2c0.3,0.3,0.4,0.6,0.3,1l-0.6,2.1l13.6-5.2
					c0.4-0.2,0.9,0,1.1,0.3c0.3,0.3,0.3,0.8,0.1,1.2l-1.1,1.6l10.9-5.6c0.4-0.2,0.9-0.1,1.2,0.3c0.3,0.4,0.3,0.9,0,1.3L506,392.2
					l8.1,4.6l8.3,0.2c0.5,0,0.8,0.3,0.9,0.8l0.5,2l7.1-0.1c0.3,0,0.5,0.1,0.7,0.3c0.2,0.2,0.3,0.4,0.3,0.7v7.8l17.8,9.7
					c0.2,0.1,0.3,0.2,0.4,0.4l2.8,4.8l13.6,7.6l8.8-2.5c0.4-0.1,0.8,0,1,0.3c0.3,0.3,0.3,0.7,0.1,1.1l-0.4,0.9l21-4.7
					c0.4-0.1,0.8,0.1,1,0.4c0.2,0.3,0.2,0.8,0,1.1l-2.1,3.3l15.6-5.2c0.4-0.1,0.8,0,1.1,0.3c0.3,0.3,0.3,0.8,0.1,1.1l-5.8,10.6
					l5.8,3.4c0.3,0.2,0.5,0.6,0.5,0.9l-1.4,16l8.8,5.2l20.9-2.2l0.2,2l-21.2,2.3C620.4,464.7,620.4,464.7,620.3,464.7z"/>
			</g>
			<g>
				<path fill="#7CDBB0" d="M620.3,455.8c-0.2,0-0.3,0-0.5-0.1l-9.7-5.6c-0.3-0.2-0.5-0.6-0.5-0.9l1.4-16l-6.1-3.5
					c-0.5-0.3-0.6-0.9-0.4-1.3l5.1-9.2l-16,5.3c-0.4,0.1-0.8,0-1.1-0.3c-0.3-0.3-0.3-0.8,0-1.1l2.4-3.6l-20.6,4.6
					c-0.4,0.1-0.8-0.1-1-0.3c-0.2-0.3-0.3-0.7-0.1-1l0.4-0.8l-7.1,2c-0.3,0.1-0.5,0-0.7-0.1l-14.2-7.9c-0.2-0.1-0.3-0.2-0.4-0.4
					l-2.8-4.8l-18.1-9.8c-0.3-0.2-0.5-0.5-0.5-0.9v-7.4l-6.9,0.1c-0.5,0-0.9-0.3-1-0.8l-0.5-2l-7.8-0.1c-0.2,0-0.3,0-0.5-0.1
					l-9.3-5.3c-0.3-0.1-0.4-0.4-0.5-0.7c-0.1-0.3,0-0.6,0.2-0.8l8.1-9.5l-9.8,5.1c-0.4,0.2-0.9,0.1-1.2-0.2
					c-0.3-0.3-0.3-0.8-0.1-1.2l1.5-2.2l-12.5,4.8c-0.4,0.1-0.7,0.1-1-0.2c-0.3-0.3-0.4-0.6-0.3-1l0.6-2.3l-6.8,2
					c-0.3,0.1-0.5,0-0.8-0.1l-15.4-8.5l1-1.7l15.1,8.3l8.1-2.3c0.3-0.1,0.7,0,1,0.2c0.3,0.3,0.4,0.6,0.3,1l-0.6,2.1l13.6-5.2
					c0.4-0.2,0.9,0,1.1,0.3c0.3,0.3,0.3,0.8,0.1,1.2l-1.1,1.6l10.9-5.6c0.4-0.2,0.9-0.1,1.2,0.3c0.3,0.4,0.3,0.9,0,1.3L506,383.2
					l8.1,4.6l8.3,0.2c0.5,0,0.8,0.3,0.9,0.8l0.5,2l7.1-0.1c0.3,0,0.5,0.1,0.7,0.3c0.2,0.2,0.3,0.4,0.3,0.7v7.8l17.8,9.7
					c0.2,0.1,0.3,0.2,0.4,0.4l2.8,4.8l13.6,7.6l8.8-2.5c0.4-0.1,0.8,0,1,0.3c0.3,0.3,0.3,0.7,0.1,1.1l-0.4,0.9l21-4.7
					c0.4-0.1,0.8,0.1,1,0.4c0.2,0.3,0.2,0.8,0,1.1l-2.1,3.3l15.6-5.2c0.4-0.1,0.8,0,1.1,0.3s0.3,0.8,0.1,1.1l-5.8,10.6l5.8,3.4
					c0.3,0.2,0.5,0.6,0.5,0.9l-1.4,16l8.8,5.2l20.9-2.2l0.2,2l-21.2,2.3C620.4,455.8,620.4,455.8,620.3,455.8z"/>
			</g>
		</g>
		<g>
			<g opacity="0.6">
				<polygon fill="#35333E" points="748.3,336.1 657.6,388.1 678.8,401.7 769.4,349.7 				"/>
				<polygon fill="#35333E" points="814.2,360.5 715.1,416.8 736.3,430.5 835.4,374.1 				"/>
				<polygon fill="#35333E" points="604.5,353.6 625.6,367.3 696.9,325.8 675.8,312.1 				"/>
				<polygon fill="#35333E" points="550.4,319.7 571.6,333.4 612.1,308 590.9,294.4 				"/>
			</g>
			<g>
				<polygon fill="#E9A5CE" points="699.9,258.8 678.8,272.8 657.6,259.1 678.8,245.1 				"/>
				<path fill="#0B0602" d="M678.8,273.3l-21.9-14.1l21.9-14.5l21.9,14.1L678.8,273.3z M658.3,259.1l20.4,13.2l20.4-13.5l-20.4-13.2
					L658.3,259.1z"/>
			</g>
			<g>
				<polygon fill="#E9A5CE" points="678.8,401.7 657.6,388.1 657.6,259.1 678.8,272.8 				"/>
				<path fill="#0B0602" d="M679.2,402.4l-22-14.2V258.4l22,14.2V402.4z M658,387.8l20.4,13.1V273L658,259.9V387.8z"/>
			</g>
			<g>
				<polygon fill="#E9A5CE" points="699.9,387.7 678.8,401.7 678.8,272.8 699.9,258.8 				"/>
				<path fill="#0B0602" d="M678.4,402.5V272.6l22-14.5v129.9l-0.2,0.1L678.4,402.5z M679.2,273v128l20.4-13.5v-128L679.2,273z"/>
			</g>
			<g>
				<g>
					<polygon fill="#EEBD34" points="754.7,245.7 733.6,259.7 712.4,246 733.6,232 					"/>
					<path fill="#0B0602" d="M733.6,260.2L711.7,246l21.9-14.5l21.9,14.1L733.6,260.2z M713.2,246l20.4,13.2l20.4-13.5l-20.4-13.2
						L713.2,246z"/>
				</g>
				<g>
					<polygon fill="#EEBD34" points="733.6,433.3 712.4,419.6 712.4,246 733.6,259.7 					"/>
					<path fill="#0B0602" d="M734,434l-22-14.2V245.3l22,14.2V434z M712.8,419.4l20.4,13.1V259.9l-20.4-13.1V419.4z"/>
				</g>
				<g>
					<polygon fill="#EEBD34" points="754.7,419.3 733.6,433.3 733.6,259.7 754.7,245.7 					"/>
					<path fill="#0B0602" d="M733.2,434V259.5l22-14.5v174.5L733.2,434z M734,259.9v172.6l20.4-13.5V246.4L734,259.9z"/>
				</g>
			</g>
			<g>
				<polygon fill="#8374EE" points="644.6,260.6 623.5,274.6 602.3,261 623.5,247 				"/>
				<path fill="#0B0602" d="M623.5,275.1L601.6,261l21.8-14.4l21.8,14.1L623.5,275.1z M603,261l20.5,13.2l20.5-13.5l-20.5-13.2
					L603,261z"/>
			</g>
			<g>
				<polygon fill="#8374EE" points="623.5,368.9 602.3,355.2 602.3,261 623.5,274.6 				"/>
				<path fill="#0B0602" d="M623.9,369.6l-21.9-14.1v-95.2l21.9,14.1V369.6z M602.7,355l20.4,13.2v-93.4l-20.4-13.2V355z"/>
			</g>
			<g>
				<polygon fill="#8374EE" points="644.6,354.9 623.5,368.9 623.5,274.6 644.6,260.6 				"/>
				<path fill="#0B0602" d="M623.1,369.6v-95.2l21.9-14.5v95.2L623.1,369.6z M623.9,274.8v93.4l20.4-13.5v-93.4L623.9,274.8z"/>
			</g>
			<g>
				<polygon fill="#E18920" points="588.2,262.7 567,276.7 545.8,263 567,249 				"/>
				<path fill="#0B0602" d="M567,277.2L545.1,263l21.9-14.5l21.9,14.1L567,277.2z M546.6,263l20.4,13.2l20.4-13.5L567,249.5
					L546.6,263z"/>
			</g>
			<g>
				<polygon fill="#E18920" points="567,336.3 545.8,322.6 545.8,263 567,276.7 				"/>
				<path fill="#0B0602" d="M567.4,337l-22-14.2v-60.5l22,14.2V337z M546.2,322.4l20.4,13.1v-58.6l-20.4-13.1V322.4z"/>
			</g>
			<g>
				<polygon fill="#E18920" points="588.2,322.3 567,336.3 567,276.7 588.2,262.7 				"/>
				<path fill="#0B0602" d="M566.6,337v-60.6l22-14.5v60.5L566.6,337z M567.4,276.9v58.6l20.4-13.5v-58.6L567.4,276.9z"/>
			</g>
		</g>
		<g>
			<g>
				<polygon fill="#35333E" points="954,422.8 954,422.8 954,422.8 				"/>
				<path opacity="0.5" fill="#35333E" d="M989.1,479.5l-13.3-19.1c-2.9-4.1-12.3-5.7-19.3-3.4c0,0,0,0,0.1,0
					c-0.7,0.2-1.3,0.4-2,0.7L926.7,472c-0.6,0.3-1.2,0.7-1.6,1.1c0,0,0,0,0,0c-5.9,3.5-3.1,9,5.7,9.7l45.6,3.7c0,0,0,0-0.1,0
					C979.7,487.2,992.3,486,989.1,479.5z M934.1,475.8c4.3-2.2,22.4-11.5,28.2-14.4c1-0.5,2.2-0.2,2.9,0.7l12.2,17.4
					c0.2,0.2,0,0.5-0.3,0.5c-5.1-0.4-36.6-3-42.9-3.6C933.9,476.3,933.8,475.9,934.1,475.8z"/>
			</g>
			<g>
				<g>
					<path fill="#8374EE" d="M938.3,341.7l-37.5,36.9c-8.1,7.9-7.4,24,3.2,27.3l0,0c0,0-3.6-6,1-11.1l44.5-44c0,0,5.7-7.1,12.1-0.7
						C961.6,345.1,951.8,330.7,938.3,341.7z"/>
					<path fill="#0B0602" d="M904.7,406.4l-0.9-0.3c-4.2-1.3-7.2-4.7-8.4-9.6c-1.6-6.5,0.5-13.8,5.1-18.3l37.5-36.9
						c6.5-5.3,11.9-4.5,15.2-2.9c5.3,2.5,8.6,8.5,8.6,11.5v0.8l-0.6-0.6c-1.8-1.8-3.8-2.7-5.7-2.5c-3.4,0.2-5.9,3.2-5.9,3.2
						L905.2,395c-4.3,4.8-1,10.6-0.9,10.6L904.7,406.4z M938.5,341.9L901,378.8c-4.4,4.3-6.4,11.4-4.9,17.6c1,4.3,3.5,7.4,7.1,8.8
						c-0.8-1.8-2.3-6.6,1.4-10.7l44.5-44c0.1-0.1,2.6-3.3,6.4-3.5c1.9-0.1,3.8,0.6,5.6,2.1c-0.5-3-3.6-7.8-8.1-10
						C949.8,337.6,944.8,336.9,938.5,341.9z"/>
				</g>
			</g>
			<g>
				<g>
					<path fill="#E18920" d="M968.4,416.1l-62.1-9.6c-11.9-1.9-15.6-16.2-7.7-25.3l0,0c0,0,1,9.6,12,11.3l61.6,9.7
						c0,0,8.7,2.4,10.3-6.6C985.3,399.6,985.7,417,968.4,416.1z"/>
					<path fill="#0B0602" d="M969.6,416.6c-0.4,0-0.8,0-1.2,0l0,0l-62.1-9.6c-5.3-0.8-9.4-4.2-11.3-9.2c-2-5.6-0.8-12,3.3-16.7
						l0.6-0.7l0.1,0.9c0,0.4,1.1,9.3,11.7,10.9l61.6,9.7c0.1,0,3.8,1,6.6-0.8c1.7-1.1,2.8-2.9,3.2-5.5l0.2-0.9l0.5,0.7
						c1.8,2.4,2.5,9.3-0.3,14.4C980.7,413,977.1,416.6,969.6,416.6z M968.4,415.8c8,0.4,11.6-3.2,13.3-6.3c2.4-4.4,2.1-10,0.8-12.8
						c-0.6,2.3-1.7,3.9-3.3,5c-3.1,2-7,1-7.2,0.9l-61.6-9.7c-9.2-1.4-11.6-8.4-12.1-10.8c-3.5,4.4-4.5,10.2-2.7,15.3
						c1.7,4.8,5.6,7.9,10.7,8.7L968.4,415.8z"/>
				</g>
			</g>
			<g>
				<g>
					<path fill="#E9A5CE" d="M984.9,398.1l-17.9-49.6c-3.9-10.7-16.6-14.9-26-8.7l0,0c0,0,6.9-0.4,9.7,5.9l21.5,59
						c0,0,4.1,8.1-4.3,11.5C972.2,418.1,989.2,415,984.9,398.1z"/>
					<path fill="#0B0602" d="M971,417c-1.4,0-2.6-0.2-3.4-0.6l-0.8-0.4l0.8-0.3c2.4-0.9,3.9-2.3,4.6-4.2c1.2-3.2-0.5-6.7-0.5-6.7
						l-21.5-59c-2.6-5.9-9-5.6-9.3-5.6l-1.4,0.1l1.2-0.8c4.6-3,10.2-3.8,15.4-2c5.2,1.7,9.3,5.7,11.2,10.9l17.9,49.7
						c2.1,8.3-0.9,12.9-3.8,15.3C978.4,415.9,974.1,417,971,417z M968.8,416c2.9,0.7,8.4-0.1,12.2-3.3c2.7-2.3,5.5-6.7,3.5-14.5
						l-17.9-49.6c-1.8-5-5.7-8.8-10.7-10.5c-4.6-1.5-9.5-1-13.7,1.3c2.2,0.2,6.7,1.3,8.8,6l21.5,59c0.1,0.1,1.9,3.8,0.5,7.3
						C972.3,413.6,970.9,415,968.8,416z"/>
				</g>
			</g>
		</g>
		<g>
			<g>
				<path fill="#EEBD34" d="M593.5,90.3l39.8,23.5c-14.6,8.3-18,20.5-8.9,31.1l-50.7,14.6C553.4,135.8,561.2,108.7,593.5,90.3z"/>
				<path fill="#0B0602" d="M573.7,159.8l-0.2-0.2c-9-10.5-12.8-21.9-10.8-33.1c2.4-13.9,13-26.5,30.7-36.6l0.2-0.1l0.2,0.1
					l40.4,23.8l-0.6,0.3c-7.8,4.4-12.5,10-13.5,16.1c-0.8,4.9,0.8,9.9,4.7,14.4l0.4,0.4L573.7,159.8z M593.5,90.7
					c-17.4,9.9-27.8,22.4-30.1,35.9c-1.9,10.9,1.8,22.1,10.5,32.3l49.9-14.4c-3.8-4.6-5.4-9.7-4.5-14.6c1.1-6.1,5.7-11.8,13.3-16.3
					L593.5,90.7z"/>
			</g>
			<g>
				<g>
					<g>
						<path fill="#8374EE" d="M767.4,121c-0.2,16-11.4,30.4-29.4,40.9l-39.8-23.4c18.2-10.4,18.4-27.3,0.4-37.9
							c-18-10.6-47.2-10.8-65.4-0.4L594,77c18.6-10.3,43.9-16.5,71.9-16.2C722.3,61.4,767.8,88.3,767.4,121z"/>
						<path fill="#0B0602" d="M738,162.3l-0.2-0.1l-40.3-23.8l0.6-0.3c8.7-5,13.5-11.6,13.6-18.6c0.1-7-4.6-13.6-13.1-18.6
							c-17.8-10.5-47-10.7-65.1-0.4l-0.2,0.1l-0.2-0.1L593.2,77l0.6-0.3c19.4-10.8,45-16.5,72-16.2c27.4,0.3,53,6.7,72.3,18.1
							C757.4,90,767.9,105,767.8,121c-0.2,15.6-10.7,30.2-29.6,41.2L738,162.3z M699,138.4l39,23c18.5-10.8,28.8-25.2,29-40.4l0,0
							c0.2-15.6-10.2-30.5-29.3-41.8c-19.1-11.3-44.7-17.7-71.9-18c-26.7-0.3-51.9,5.3-71.1,15.8l38.5,22.7
							c18.3-10.3,47.7-10.1,65.6,0.5c8.8,5.2,13.6,12,13.5,19.3C712.4,126.7,707.6,133.4,699,138.4z"/>
					</g>
				</g>
			</g>
			<g>
				<g>
					<g>
						<path d="M738,153.1l-40.2-23.7l0.3-0.2c8.8-5,13.6-11.6,13.7-18.7c0.1-7-4.6-13.7-13.2-18.8c-8.8-5.2-20.5-8-33-8
							c-12.1,0-23.6,2.7-32.2,7.6l-0.1,0.1l-39.7-23.4l0.4-0.2c18.9-10.5,43.7-16.2,70-16.2c0.7,0,1.3,0,2,0
							c27.3,0.3,53,6.7,72.2,18.1c19.3,11.4,29.8,26.4,29.6,42.3c-0.2,15.6-10.6,30.1-29.5,41.1L738,153.1z M698.7,129.4l39.3,23.2
							c18.6-10.8,29-25.3,29.1-40.6c0.2-15.7-10.3-30.6-29.4-41.9c-19.1-11.3-44.7-17.8-72-18.1c-0.7,0-1.3,0-2,0
							c-26,0-50.7,5.7-69.4,16l38.8,22.9c8.7-4.9,20.2-7.6,32.3-7.6c12.6,0,24.4,2.9,33.2,8.1c8.7,5.1,13.5,12,13.4,19.2
							C712.2,117.6,707.4,124.3,698.7,129.4z"/>
					</g>
				</g>
			</g>
			<g>
				<path fill="#E9A7D0" d="M662.8,173.7l-0.2,37.1c0,0-0.5,0-0.6,0c-27.2-0.2-59.2-11.5-80.3-29.6c-3-2.4-5.6-5-8-7.8l50.7-14.6
					C632,167.7,647,173.1,662.8,173.7z"/>
				<path fill="#0B0602" d="M663,211.2l-0.4,0c0,0-0.5,0-0.6,0c-28-0.2-59.6-11.8-80.6-29.7c-3-2.4-5.7-5-8-7.8l-0.4-0.4l51.5-14.8
					l0.2,0.2c7.3,8.4,22,14.1,38.2,14.7l0.4,0L663,211.2z M574.3,173.6c2.3,2.6,4.8,5,7.6,7.3c20.8,17.7,52.3,29.3,80.1,29.5
					c0,0,0.1,0,0.2,0l0.2-36.4c-16.2-0.7-30.8-6.3-38.3-14.8L574.3,173.6z"/>
			</g>
			<g>
				<path fill="#E18920" d="M698.1,186.4l39.8,23.4c-1,0.6-2,1.1-3,1.7c-19.9,10.5-44.8,16.3-67.4,15.4c-1.7,0-3.3,0-4.9,0v0
					l0.2-32.8c7.9,0.3,16-0.5,23.6-2.7C690.9,189.9,694.4,188.4,698.1,186.4z"/>
				<path fill="#0B0602" d="M672.1,227.3c-1.6,0-3.1,0-4.7-0.1c-1.5,0-3.1,0-4.9,0l-0.4,0v-0.4l0.2-33.3l0.4,0
					c8.1,0.3,16.2-0.6,23.5-2.7c4.5-1.3,8-2.7,11.7-4.8l0.2-0.1l40.5,23.9l-0.6,0.3c-1,0.6-2,1.1-3.1,1.7
					C716.3,221.6,693.2,227.3,672.1,227.3z M667.5,226.4c22.1,0.9,47.2-4.8,67.2-15.3c0.8-0.4,1.6-0.9,2.5-1.3l-39-23
					c-3.7,2.1-7.2,3.5-11.7,4.8c-7.2,2.1-15.3,3-23.3,2.8l-0.2,32.1C664.6,226.5,666.1,226.5,667.5,226.4z"/>
			</g>
			<g>
				<path d="M573.7,153.8l-0.1-0.1c-9-10.4-12.7-21.8-10.8-33c2.4-13.8,13-26.4,30.6-36.5l0.1-0.1l40.3,23.7l-0.3,0.2
					c-7.8,4.5-12.5,10.1-13.6,16.2c-0.8,4.9,0.8,10,4.8,14.6l0.2,0.3L573.7,153.8z M593.5,84.7c-17.5,10-27.9,22.4-30.3,36.1
					c-1.9,11,1.8,22.2,10.6,32.5l50.2-14.5c-3.9-4.6-5.5-9.7-4.7-14.7c1.1-6.2,5.7-11.8,13.5-16.3L593.5,84.7z"/>
			</g>
			<g>
				<path d="M662.8,205.2l-0.2,0c0,0-0.5,0-0.6,0c-28-0.2-59.6-11.8-80.5-29.6c-3-2.4-5.7-5-8-7.8l-0.2-0.3l51.2-14.7l0.1,0.1
					c7.3,8.5,22,14.1,38.3,14.7l0.2,0L662.8,205.2z M574.1,167.7c2.3,2.6,4.9,5.1,7.7,7.5c20.8,17.8,52.3,29.3,80.2,29.5
					c0,0,0.2,0,0.4,0l0.2-36.7c-16.3-0.7-31-6.3-38.4-14.8L574.1,167.7z"/>
			</g>
			<g>
				<path d="M672.2,221.3c-1.6,0-3.2,0-4.8-0.1c-1.6,0-3.3,0-4.9,0l-0.2,0V221l0.2-33.1l0.2,0c1,0,2.1,0.1,3.1,0.1
					c7.1,0,14-0.9,20.4-2.8c4.5-1.3,8-2.7,11.7-4.8l0.1-0.1l0.1,0.1l40.1,23.7l-0.3,0.2c-1.1,0.6-2.1,1.2-3,1.7
					C716.2,215.7,693.4,221.3,672.2,221.3z M667.5,220.7c1.6,0.1,3.2,0.1,4.8,0.1c21.1,0,43.8-5.6,62.5-15.4
					c0.9-0.4,1.7-0.9,2.7-1.5l-39.3-23.2c-3.7,2.1-7.2,3.5-11.7,4.8c-6.4,1.9-13.3,2.8-20.5,2.8h0c-1,0-1.9,0-2.9-0.1l-0.2,32.4
					C664.3,220.8,665.9,220.8,667.5,220.7z"/>
			</g>
		</g>
		<g>
			<path opacity="0.5" fill="#35333E" d="M763.6,579.1c-28.1,16.3-26.4,50.4,1.8,66.7c28.1,16.2,71.9,10.7,100.1-5.6
				c28.1-16.2,28.2-44.9,0-61.1C837.3,562.8,791.7,562.8,763.6,579.1z"/>
			<g>
				<g>
					<g>
						<path fill="#8374EE" d="M743.8,574.7c28.1-16.2,73.8-16.2,101.9,0c13.7,7.9,20.8,18.3,21.1,28.7c0.2,5.9,0.2,11.8,0,17.7
							c-0.3,10.4-7.3,20.7-21.1,28.7c-28.1,16.2-73.8,16.2-101.9,0c-13.7-7.9-20.8-18.3-21.1-28.7c-0.2-5.9-0.2-11.8,0-17.7
							C723,593,730,582.6,743.8,574.7z"/>
						<path fill="#0B0602" d="M794.7,662.3c-18.5,0-37-4.1-51.1-12.2c-13.4-7.7-20.9-18-21.3-29c-0.2-5.9-0.2-11.9,0-17.8
							c0.3-11,7.9-21.2,21.3-28.9l0,0c28.2-16.3,74.1-16.3,102.3,0c13.4,7.7,20.9,18,21.3,28.9c0.2,5.9,0.2,11.9,0,17.8
							c-0.3,11-7.9,21.2-21.3,29C831.8,658.2,813.3,662.3,794.7,662.3z M743.9,575c-13.1,7.6-20.6,17.7-20.9,28.4
							c-0.2,5.9-0.2,11.8,0,17.7c0.3,10.7,7.8,20.8,20.9,28.4c28,16.2,73.6,16.2,101.6,0c13.1-7.6,20.6-17.7,20.9-28.4
							c0.2-5.9,0.2-11.8,0-17.7c-0.3-10.7-7.8-20.8-20.9-28.4C817.5,558.8,772,558.8,743.9,575L743.9,575z"/>
					</g>
					<g>
						<path fill="#E9A7D0" d="M743.8,574.7c-28.1,16.3-28.1,42.6,0,58.8s73.8,16.3,101.9,0s28.1-42.6,0-58.8
							C817.5,558.5,771.9,558.5,743.8,574.7z"/>
						<path fill="#0B0602" d="M794.7,646.1c-18.5,0-37-4.1-51.1-12.2c-13.7-7.9-21.3-18.5-21.3-29.7s7.6-21.8,21.3-29.7l0,0
							c28.2-16.3,74.1-16.3,102.3,0c13.7,7.9,21.3,18.5,21.3,29.7s-7.6,21.8-21.3,29.7C831.8,642,813.2,646.1,794.7,646.1z
							 M743.9,575c-13.5,7.8-20.9,18.1-20.9,29.1s7.4,21.3,20.9,29.1c28,16.2,73.6,16.2,101.6,0c13.5-7.8,20.9-18.1,20.9-29.1
							s-7.4-21.3-20.9-29.1C817.5,558.8,772,558.8,743.9,575L743.9,575z"/>
					</g>
					<g>
						<g>
							<g>
								<path fill="#8374EE" d="M841.5,578.4c-26-14.1-68.2-14.1-94.2,0c-26,14.1-26,37.1,0,51.2c26,14.1,68.2,14.1,94.2,0
									C867.5,615.4,867.5,592.5,841.5,578.4z"/>
								<path fill="#0B0602" d="M794.4,640.5c-17.1,0-34.2-3.5-47.3-10.6c-12.7-6.9-19.7-16.1-19.7-25.9s7-19,19.7-25.9
									c26.1-14.2,68.5-14.2,94.5,0l0,0c12.7,6.9,19.7,16.1,19.7,25.9s-7,19-19.7,25.9C828.6,637,811.5,640.5,794.4,640.5z
									 M794.4,568.1c-17,0-34,3.5-46.9,10.5c-12.5,6.8-19.3,15.8-19.3,25.3s6.9,18.5,19.3,25.3c25.9,14.1,68,14.1,93.9,0
									c12.5-6.8,19.3-15.8,19.3-25.3s-6.9-18.5-19.3-25.3l0,0C828.4,571.7,811.4,568.1,794.4,568.1z"/>
							</g>
							<g>
								<path fill="#F8E9B9" d="M836.8,584.5c-23.4-12.7-61.5-12.7-84.9,0c-23.4,12.7-23.4,33.4,0,46.1c23.4,12.7,61.5,12.7,84.9,0
									C860.3,617.9,860.3,597.2,836.8,584.5z"/>
								<path fill="#0B0602" d="M794.4,640.5c-15.4,0-30.9-3.2-42.6-9.6c-11.5-6.2-17.8-14.5-17.8-23.4c0-8.9,6.3-17.2,17.8-23.4
									c23.5-12.8,61.7-12.8,85.2,0c11.5,6.2,17.8,14.5,17.8,23.4c0,8.8-6.3,17.2-17.8,23.4C825.3,637.3,809.8,640.5,794.4,640.5z
									 M794.4,575.3c-15.3,0-30.6,3.2-42.3,9.5c-11.2,6.1-17.4,14.2-17.4,22.8s6.2,16.7,17.4,22.8c23.3,12.7,61.3,12.7,84.6,0
									c11.2-6.1,17.4-14.2,17.4-22.8c0-8.6-6.2-16.7-17.4-22.8l0,0C825,578.4,809.7,575.3,794.4,575.3z"/>
							</g>
						</g>
					</g>
				</g>
			</g>
			<g>
				<g opacity="0.6">
					<g>
						<path opacity="0.5" fill="#35333E" d="M796.2,631.2c21.6,0,39.1-11.3,39.1-25.3c0-14-17.5-25.3-39.1-25.3
							s-39.1,11.3-39.1,25.3C757.1,619.9,774.6,631.2,796.2,631.2z M796.2,600.4c5.5,0,9.9,1.8,9.9,4s-4.4,4-9.9,4
							c-5.5,0-9.9-1.8-9.9-4S790.7,600.4,796.2,600.4z"/>
					</g>
				</g>
				<g>
					<g>
						<g>
							<path fill="#EEBD34" d="M787.8,566.3c33.2,0,60.1-17.4,60.1-38.9c0-21.5-26.9-38.9-60.1-38.9c-33.2,0-60.1,17.4-60.1,38.9
								C727.7,548.9,754.6,566.3,787.8,566.3z M787.8,519c8.4,0,15.3,2.8,15.3,6.2c0,3.4-6.8,6.2-15.3,6.2c-8.4,0-15.3-2.8-15.3-6.2
								C772.6,521.7,779.4,519,787.8,519z"/>
							<path fill="#0B0602" d="M787.8,566.8c-33.4,0-60.6-17.6-60.6-39.3c0-21.7,27.2-39.3,60.6-39.3c33.4,0,60.6,17.6,60.6,39.3
								C848.4,549.1,821.2,566.8,787.8,566.8z M787.8,489.1c-32.9,0-59.6,17.2-59.6,38.4s26.8,38.4,59.6,38.4
								c32.9,0,59.6-17.2,59.6-38.4S820.7,489.1,787.8,489.1z M787.8,531.9c-8.8,0-15.7-2.9-15.7-6.7s6.9-6.7,15.7-6.7
								c8.8,0,15.7,2.9,15.7,6.7S796.6,531.9,787.8,531.9z M787.8,519.4c-8,0-14.8,2.6-14.8,5.7c0,3.1,6.8,5.7,14.8,5.7
								c8,0,14.8-2.6,14.8-5.7C802.6,522.1,795.8,519.4,787.8,519.4z"/>
						</g>
					</g>
				</g>
				<g>
					<g>
						<g>
							<path opacity="0.5" fill="#35333E" d="M802.3,522.2c0.7-8.5-23.4-22-31.1,3C774.5,520.4,789.6,517.2,802.3,522.2z"/>
						</g>
					</g>
					<g opacity="0.5">
						<g>
							<path fill="#35333E" d="M787.8,566.3c33.2,0,60.1-17.4,60.1-38.9c0-8.2-3.9-15.7-10.6-22c4.5,4.9,5.9,11.6,5.9,16.6
								c0,21.5-29.4,39-62.6,39c-20.6,0-38-9.4-48.9-19.6C740.4,556,762.3,566.3,787.8,566.3z"/>
						</g>
					</g>
				</g>
				<g>
					<path fill="#0B0602" d="M728.8,533.6L728,533c0.2-0.3,21.7-25.5,44.9-7.6l-0.6,0.7C749.8,508.7,729,533.3,728.8,533.6z"/>
				</g>
				<g>
					<path fill="#0B0602" d="M802.7,523.5l-0.7-0.6c0.2-0.2,18.7-20.7,43.1-8.2l-0.4,0.8C820.9,503.3,802.9,523.3,802.7,523.5z"/>
				</g>
				<g>
					<path fill="#0B0602" d="M795.6,566.1l-0.9-0.2c4.2-23.2,1-30.5-1.4-32.8c-1.6-1.6-3.1-1.3-3.1-1.3l-0.2-0.9
						c0.1,0,2-0.3,3.9,1.6C797,535.4,799.7,543.7,795.6,566.1z"/>
				</g>
				<g>
					<path fill="#0B0602" d="M786.3,519.2l-0.9-0.2c0-0.2,3.9-18.9-1.9-26.4c-1.5-1.9-3.4-2.9-5.9-3l0-0.9c2.7,0.1,5,1.3,6.6,3.4
						C790.3,499.9,786.5,518.4,786.3,519.2z"/>
				</g>
			</g>
		</g>
		<g opacity="0.5">
			<path opacity="0.5" fill="#35333E" d="M903.3,297.5l-101.9-54c0,0,32.9-20.4,41.8-16.4c5.7,2.6-6,11.8,0.6,15.2
				c5.4,2.8,24.9-19.8,33-15.5c4.2,2.2-0.2,9.7-2.9,15.6c-8.2,18,39.5-19.5,50.8-14.3c11.2,5.1-15.2,26.1-27.5,38.6
				c-13.7,14,0.3,7.4,11.9,7.4C932.5,274.1,903.3,297.5,903.3,297.5z"/>
		</g>
		<g>
			<g>
				<path fill="#EEBD34" d="M900.6,287.6l-101.9-54c0,0,34.8-19,43.6-15c5.7,2.6-7.9,10.4-1.2,13.9c5.4,2.8,26.7-18.7,34.8-14.4
					c4.2,2.2-1,9-4.7,14.4c-12.3,18,38.9-18.4,50.2-13.2c11.2,5.1-14.4,25.2-26.9,37.5c-14.3,13.9,0.1,8.3,11.6,8.3
					C928.6,265.2,900.6,287.6,900.6,287.6z"/>
				<path fill="#181818" d="M873.4,217.4c1,0,1.8,0.2,2.6,0.6c0.8,0.4,1.4,1.1,1.6,1.9c0.7,2.8-2.5,7.4-5.3,11.5
					c-0.3,0.5-0.6,0.9-0.9,1.3c-2,2.9-2,4-1.7,4.4c1.3,1.5,9.7-2.7,18.7-7c12.9-6.3,27.5-13.5,33.1-10.9c1.7,0.8,2.6,1.9,2.8,3.3
					c1,6.2-11.2,17.4-22,27.3c-2.8,2.6-5.4,5-7.7,7.2c-4.5,4.4-6.4,7-5.8,8.2c0.6,1.3,4.4,0.9,8.7,0.4c2.7-0.3,5.7-0.6,8.6-0.6
					c5,0,7.9,1.1,8.7,3.4c2.2,6.3-13.5,18.9-14.1,19.5c-0.1,0.1-0.2,0.1-0.2,0l-101.9-54c-0.1,0-0.1-0.1-0.1-0.2
					c0-0.1,0-0.2,0.1-0.2c1.3-0.7,28.6-15.5,40.5-15.5c1.3,0,2.4,0.2,3.3,0.6c0.8,0.4,1.3,0.9,1.5,1.5c0.4,1.4-0.8,3.2-2.1,5.1
					c-1.3,1.9-2.7,3.9-2.3,5.5c0.2,0.7,0.7,1.3,1.7,1.8c2.3,1.2,8-2.5,14-6.4C861.5,221.9,868.6,217.4,873.4,217.4z M870.6,237.8
					c-0.6,0-1-0.1-1.3-0.4c-0.7-0.8-0.1-2.3,1.7-4.9c0.3-0.4,0.6-0.9,0.9-1.3c2.8-4,5.9-8.5,5.2-11.1c-0.2-0.7-0.6-1.3-1.4-1.7
					c-4.4-2.3-12.8,3.2-20.3,8c-6.4,4.1-11.9,7.7-14.5,6.4c-1.1-0.6-1.7-1.2-1.9-2.1c-0.4-1.8,1-3.8,2.3-5.8c1.2-1.8,2.4-3.5,2-4.7
					c-0.1-0.5-0.6-0.9-1.3-1.2c-8.2-3.7-39.3,12.7-43.1,14.8l101.4,53.7c1.4-1.2,15.9-13.2,13.9-18.9c-0.7-2-3.5-3.1-8.3-3.1
					c-2.8,0-5.9,0.3-8.5,0.6c-4.7,0.5-8.4,0.9-9.2-0.6c-0.7-1.4,1.2-4.1,5.9-8.7c2.2-2.2,4.9-4.6,7.7-7.2
					c10.2-9.3,22.8-21,21.9-26.9c-0.2-1.3-1.1-2.3-2.6-3c-5.4-2.5-20.5,4.9-32.7,10.9C879.6,234.9,873.4,237.8,870.6,237.8z"/>
			</g>
			<g>
				
					<rect x="826.8" y="210.4" transform="matrix(-0.5188 -0.8549 0.8549 -0.5188 1059.54 1056.0012)" fill="#181818" width="0.5" height="38.8"/>
			</g>
			<g>
				
					<rect x="852.1" y="205.5" transform="matrix(-0.5208 -0.8537 0.8537 -0.5208 1096.2611 1083.8206)" fill="#181818" width="0.5" height="57.6"/>
			</g>
			<g>
				
					<rect x="886.3" y="199.8" transform="matrix(-0.5208 -0.8537 0.8537 -0.5208 1142.9924 1122.6619)" fill="#181818" width="0.5" height="81.5"/>
			</g>
			<g>
				
					<rect x="900.8" y="259.7" transform="matrix(-0.5208 -0.8537 0.8537 -0.5208 1136.4744 1185.7567)" fill="#181818" width="0.5" height="28.4"/>
			</g>
		</g>
	</g>
</g>
</svg>
