<svg xmlns="http://www.w3.org/2000/svg" viewBox="0 0 1158.77 770.91" id="male-freelancer-working-on-laptop">
  <g>
    <g opacity=".5">
      <polygon fill="#a7e9cb" points="407.5 635.75 357.01 606.41 407.83 577.07 458.32 606.41 407.5 635.75"></polygon>
      <polygon fill="#49b685" points="407.89 577.07 357.4 547.73 408.22 518.39 458.7 547.73 407.89 577.07"></polygon>
      <polygon fill="#a7e9cb" points="408.88 401.03 358.39 371.69 409.21 342.35 459.7 371.69 408.88 401.03"></polygon>
      <polygon fill="#a7e9cb" points="409.21 342.35 358.39 371.69 408.88 401.03 459.7 371.69 409.21 342.35 409.21 342.35"></polygon>
      <polygon fill="#dbf5e9" points="409.21 342.35 358.72 313 409.54 283.67 460.03 313 409.21 342.35"></polygon>
      <polygon fill="#49b685" points="409.87 224.98 359.05 254.32 409.54 283.67 460.36 254.32 409.87 224.98 409.87 224.98"></polygon>
      <polygon fill="#49b685" points="410.25 166.3 359.77 136.96 410.58 107.62 461.07 136.96 410.25 166.3"></polygon>
      <polygon fill="#dbf5e9" points="508.81 635.75 458.32 606.41 509.14 577.07 559.63 606.41 508.81 635.75"></polygon>
      <polygon fill="#a7e9cb" points="509.2 577.07 458.71 547.73 509.53 518.39 560.01 547.73 509.2 577.07"></polygon>
      <polygon fill="#dbf5e9" points="509.86 459.71 459.37 430.37 510.19 401.03 560.67 430.37 509.86 459.71"></polygon>
      <polygon fill="#a7e9cb" points="510.19 401.03 459.7 371.69 510.52 342.35 561.01 371.69 510.19 401.03"></polygon>
      <polygon fill="#a7e9cb" points="510.52 342.35 459.7 371.69 510.19 401.03 561.01 371.69 510.52 342.35 510.52 342.35"></polygon>
      <polygon fill="#a7e9cb" points="510.52 342.35 460.03 313 510.85 283.67 561.34 313 510.52 342.35"></polygon>
      <polygon fill="#a7e9cb" points="511.23 224.98 460.74 195.64 511.56 166.3 562.05 195.64 511.23 224.98"></polygon>
      <polygon fill="#a7e9cb" points="205.65 518.39 155.16 489.05 205.97 459.71 256.46 489.05 205.65 518.39"></polygon>
      <polygon fill="#49b685" points="205.97 459.71 155.48 430.37 206.3 401.03 256.79 430.37 205.97 459.71"></polygon>
      <polygon fill="#a7e9cb" points="206.31 401.03 155.82 371.69 206.64 342.35 257.12 371.69 206.31 401.03"></polygon>
      <polygon fill="#a7e9cb" points="306.62 577.07 256.14 547.73 306.95 518.39 357.44 547.73 306.62 577.07"></polygon>
      <polygon fill="#a7e9cb" points="306.96 518.39 256.47 489.05 307.29 459.71 357.77 489.05 306.96 518.39"></polygon>
      <polygon fill="#dbf5e9" points="307.28 459.71 256.79 430.37 307.61 401.03 358.1 430.37 307.28 459.71"></polygon>
      <polygon fill="#49b685" points="307.62 401.03 257.13 371.69 307.95 342.35 358.44 371.69 307.62 401.03"></polygon>
      <polygon fill="#49b685" points="307.95 342.35 257.13 371.69 307.62 401.03 358.44 371.69 307.95 342.35 307.95 342.35"></polygon>
      <polygon fill="#a7e9cb" points="307.95 342.35 257.46 313 308.28 283.67 358.77 313 307.95 342.35"></polygon>
      <polygon fill="#dbf5e9" points="308.28 283.67 257.79 254.32 308.61 224.98 359.09 254.32 308.28 283.67"></polygon>
      <polygon fill="#a7e9cb" points="308.66 224.98 258.17 195.64 308.99 166.3 359.48 195.64 308.66 224.98"></polygon>
      <polygon fill="#49b685" points="609.79 694.43 559.31 665.09 610.12 635.75 660.61 665.09 609.79 694.43"></polygon>
      <polygon fill="#49b685" points="610.5 577.07 560.01 547.73 610.83 518.39 661.32 547.73 610.5 577.07"></polygon>
      <polygon fill="#dbf5e9" points="610.84 518.39 560.35 489.05 611.17 459.71 661.65 489.05 610.84 518.39"></polygon>
      <polygon fill="#dbf5e9" points="611.17 459.71 560.35 489.05 610.84 518.39 661.65 489.05 611.17 459.71 611.17 459.71"></polygon>
      <polygon fill="#a7e9cb" points="611.16 459.71 560.67 430.37 611.49 401.03 661.98 430.37 611.16 459.71"></polygon>
      <polygon fill="#a7e9cb" points="611.5 401.03 561.01 371.69 611.83 342.35 662.32 371.69 611.5 401.03"></polygon>
      <polygon fill="#dbf5e9" points="612.16 283.67 561.67 254.32 612.49 224.98 662.97 254.32 612.16 283.67"></polygon>
      <polygon fill="#49b685" points="612.87 166.3 562.38 136.96 613.2 107.62 663.69 136.96 612.87 166.3"></polygon>
      <polygon fill="#a7e9cb" points="711.41 635.75 660.92 606.41 711.74 577.07 762.23 606.41 711.41 635.75"></polygon>
      <polygon fill="#a7e9cb" points="711.79 577.07 661.31 547.73 712.13 518.39 762.61 547.73 711.79 577.07"></polygon>
      <polygon fill="#49b685" points="712.45 459.71 661.97 430.37 712.78 401.03 763.27 430.37 712.45 459.71"></polygon>
      <polygon fill="#49b685" points="712.78 401.03 661.97 430.37 712.45 459.71 763.27 430.37 712.78 401.03 712.78 401.03"></polygon>
      <polygon fill="#a7e9cb" points="712.79 401.03 662.3 371.69 713.12 342.35 763.61 371.69 712.79 401.03"></polygon>
      <polygon fill="#a7e9cb" points="713.12 342.35 662.63 313 713.45 283.67 763.94 313 713.12 342.35"></polygon>
      <polygon fill="#a7e9cb" points="713.45 283.67 662.63 313 713.12 342.35 763.94 313 713.45 283.67 713.45 283.67"></polygon>
      <polygon fill="#a7e9cb" points="713.45 283.67 662.96 254.32 713.78 224.98 764.26 254.32 713.45 283.67"></polygon>
      <polygon fill="#a7e9cb" points="813.76 577.07 763.27 547.73 814.09 518.39 864.58 547.73 813.76 577.07"></polygon>
      <polygon fill="#a7e9cb" points="814.09 518.39 763.6 489.05 814.42 459.71 864.91 489.05 814.09 518.39"></polygon>
      <polygon fill="#a7e9cb" points="814.42 459.71 763.93 430.37 814.75 401.03 865.24 430.37 814.42 459.71"></polygon>
      <polygon fill="#a7e9cb" points="814.75 401.03 764.26 371.69 815.08 342.35 865.57 371.69 814.75 401.03"></polygon>
      <polygon fill="#a7e9cb" points="815.08 342.35 764.26 371.69 814.75 401.03 865.57 371.69 815.08 342.35 815.08 342.35"></polygon>
      <polygon fill="#49b685" points="815.09 342.35 764.6 313 815.41 283.67 865.9 313 815.09 342.35"></polygon>
      <polygon fill="#a7e9cb" points="815.41 283.67 764.92 254.32 815.74 224.98 866.23 254.32 815.41 283.67"></polygon>
      <polygon fill="#a7e9cb" points="915.85 459.71 865.36 430.37 916.18 401.03 966.67 430.37 915.85 459.71"></polygon>
      <polygon fill="#a7e9cb" points="916.84 283.67 866.35 254.32 917.17 224.98 967.66 254.32 916.84 283.67"></polygon>
    </g>
    <path fill="#d2fae7" d="M274,598.76l-2-3.46,73.86-42.87a6.5,6.5,0,0,0,0-11.27l-30.24-17.29a9.18,9.18,0,0,1-.12-15.88l110.11-65.06,2,3.45-110.1,65.05a5.19,5.19,0,0,0,.06,9l30.25,17.29a10.5,10.5,0,0,1,.06,18.2Z"></path>
    <path fill="#0b0602" d="M274,599.14a.37.37,0,0,1-.32-.19l-2-3.46a.39.39,0,0,1,0-.28.38.38,0,0,1,.18-.23l73.85-42.88a6.12,6.12,0,0,0,0-10.61L315.4,524.2a9.57,9.57,0,0,1-.12-16.54l110.11-65.05a.37.37,0,0,1,.51.13l2,3.45a.34.34,0,0,1,.05.28.38.38,0,0,1-.18.23L317.7,511.75a4.82,4.82,0,0,0,.06,8.33L348,537.37a10.87,10.87,0,0,1,.07,18.84l-73.86,42.88A.41.41,0,0,1,274,599.14Zm-1.49-3.7,1.63,2.81,73.53-42.69a10.12,10.12,0,0,0-.06-17.54l-30.24-17.29a5.57,5.57,0,0,1-.07-9.62L427.1,446.24l-1.65-2.79L315.66,508.31a8.82,8.82,0,0,0,.11,15.24L346,540.84a6.87,6.87,0,0,1,0,11.91Z"></path>
    <path fill="#d2fae7" d="M685.1,557a23.44,23.44,0,0,1-11.78-3.16l-49.2-28.56,2-3.46,49.2,28.56a19.53,19.53,0,0,0,19.47,0l113-64.77a8.53,8.53,0,0,0,.12-14.73L766,446a11.52,11.52,0,0,1,.16-19.88l49.27-28.26,2,3.47-49.27,28.26a7.51,7.51,0,0,0-.1,13L810,467.45a12.53,12.53,0,0,1-.17,21.64l-113,64.77A23.43,23.43,0,0,1,685.1,557Z"></path>
    <path fill="#0b0602" d="M685.1,557.34a23.79,23.79,0,0,1-12-3.22l-49.2-28.56a.37.37,0,0,1-.14-.51l2-3.46a.36.36,0,0,1,.23-.17.34.34,0,0,1,.28,0L675.51,550a19.16,19.16,0,0,0,19.09.05l113-64.77a8.16,8.16,0,0,0,.12-14.09L765.8,446.27a11.89,11.89,0,0,1,.16-20.53l49.28-28.26a.34.34,0,0,1,.28,0,.36.36,0,0,1,.23.17l2,3.47a.37.37,0,0,1-.14.51l-49.27,28.26a7.14,7.14,0,0,0-.1,12.33l41.91,24.94a12.9,12.9,0,0,1-.18,22.29L697,554.19A23.92,23.92,0,0,1,685.1,557.34ZM624.63,525.1l48.87,28.38a23.18,23.18,0,0,0,23.09.06l113-64.77a12.16,12.16,0,0,0,.17-21l-41.91-24.94a7.89,7.89,0,0,1,.1-13.62l48.95-28.07-1.62-2.82-48.94,28.07a11.14,11.14,0,0,0-.16,19.24l41.92,24.93A8.91,8.91,0,0,1,808,486L695,550.72a19.93,19.93,0,0,1-19.84-.05l-48.88-28.38Z"></path>
    <path fill="#d2fae7" d="M240.28,446.3l-.83-1.31-1.52-1.92c.24-.19,1-.78,149-84.11a25.15,25.15,0,0,1,24.79.11L458.68,386l-2,3.47-46.94-27a21.2,21.2,0,0,0-20.84-.09C354.67,381.72,242.76,444.73,240.28,446.3Z"></path>
    <path fill="#0b0602" d="M240.28,446.68a.36.36,0,0,1-.31-.18l-.83-1.31-1.5-1.88a.37.37,0,0,1,.06-.53c.27-.22,1-.79,149.07-84.15a25.55,25.55,0,0,1,25.16.11l46.94,27a.37.37,0,0,1,.14.51l-2,3.47a.41.41,0,0,1-.23.18.42.42,0,0,1-.29,0l-46.93-27a20.8,20.8,0,0,0-20.47-.09C354.86,382,242.94,445.06,240.48,446.62A.36.36,0,0,1,240.28,446.68Zm-1.8-3.51,1.27,1.59.65,1c7-4.13,114.84-64.82,148.33-83.68a21.55,21.55,0,0,1,21.21.1L456.55,389l1.62-2.82-46.61-26.77a24.83,24.83,0,0,0-24.42-.11C292.9,412.33,242.94,440.53,238.48,443.17Z"></path>
    <path fill="#fff" d="M819,410.44h0L334.81,154.8l-75.88,61.95L342,541.18h0c17.58,71,143.33,126,295.88,126,164.58,0,298-64.07,298-143.11C935.93,477.77,890.07,436.59,819,410.44Z" opacity=".5"></path>
    <polygon fill="#35333e" points="831.71 532.76 887.07 565.27 972.94 518.38 919.42 487.55 831.71 532.76" opacity=".5" style="mix-blend-mode:multiply"></polygon>
    <polygon fill="#8374ee" points="824.86 516.44 888.24 553.66 952.66 497.31 891.42 461.3 824.86 516.44"></polygon>
    <path fill="#0b0602" d="M888.23,554a.37.37,0,0,1-.18,0l-63.38-37.22a.38.38,0,0,1-.18-.3.39.39,0,0,1,.13-.32L891.18,461a.38.38,0,0,1,.43,0l61.24,36a.35.35,0,0,1,.18.29.34.34,0,0,1-.12.31l-64.43,56.35A.35.35,0,0,1,888.23,554Zm-62.72-37.65,62.68,36.81L952,497.37l-60.57-35.61Z"></path>
    <polygon points="824.85 516.34 824.88 516.55 952.68 497.42 952.65 497.2 824.85 516.34" style="mix-blend-mode:multiply"></polygon>
    <polygon points="888.13 553.66 888.34 553.67 891.52 461.31 891.31 461.3 888.13 553.66" style="mix-blend-mode:multiply"></polygon>
    <path fill="#bdc4c1" d="M907.11,488.47c-6.66-2.46-14.91-1.61-22.61,2.34-13.41,6.89-20.79,21.14-16.44,31.77a16.37,16.37,0,0,0,9.83,9.21,23.16,23.16,0,0,0,8.07,1.38,32.14,32.14,0,0,0,14.55-3.73c13.41-6.89,20.78-21.13,16.43-31.76A16.34,16.34,0,0,0,907.11,488.47Z"></path>
    <path fill="#eebd34" d="M897.19,479.6c-22.33-4.37-45.19,22.86-32.85,41.83,7.95,11.93,25.36,11.35,36.39,3.11C919.07,511.92,919.4,484,897.19,479.6Z"></path>
    <path fill="#0b0602" d="M882.6,530.88a26,26,0,0,1-4.43-.37,20.68,20.68,0,0,1-14.1-8.91c-5.22-8-4.6-18.35,1.67-27.63s18.32-17.25,31.51-14.68h0c8.93,1.76,15,7.57,16.77,15.93,2.19,10.6-3.2,22.76-13.11,29.58A31.32,31.32,0,0,1,882.6,530.88Zm9.63-51.44c-11,0-20.68,7-26,14.88-6.12,9.06-6.74,19.13-1.66,26.93a20,20,0,0,0,13.67,8.64,30,30,0,0,0,22.27-5.61c9.72-6.68,15-18.58,12.86-28.93-1.68-8.1-7.61-13.73-16.27-15.44A25.72,25.72,0,0,0,892.23,479.44Z"></path>
    <path fill="#fff" d="M878.12,514.47a2.71,2.71,0,0,1-2.72-2.79l.26-10.24,5.44.14-.16,6,21.57-9.33,2.16,5-25.47,11A2.75,2.75,0,0,1,878.12,514.47Z"></path>
    <path fill="#0b0602" d="M878.12,514.78a3,3,0,0,1-3-3.11l.27-10.24a.31.31,0,0,1,.09-.22.52.52,0,0,1,.23-.09l5.44.14a.37.37,0,0,1,.22.1.36.36,0,0,1,.08.23l-.14,5.49,21.11-9.14a.36.36,0,0,1,.25,0,.35.35,0,0,1,.17.17l2.16,5a.32.32,0,0,1-.17.42l-25.47,11A2.93,2.93,0,0,1,878.12,514.78Zm-2.15-13-.26,9.93a2.41,2.41,0,0,0,3.36,2.27l25.19-10.91-1.91-4.41-21.28,9.21a.32.32,0,0,1-.3,0,.31.31,0,0,1-.14-.26l.15-5.68Z"></path>
    <path fill="#35333e" d="M723.08,628.88s11.27,7,10.82,10c-.37,2.44-.91,5.17-1.49,7.81,3.71-3.35,10.6-6.66,23.07-8.83,19.41-3.39,48.64-2.86,49.11-2.94l-27.49,8c-2.33.73-6,1.65-10.28,2.72,24.11,1.8,32,12.56,32,12.56s-21.48-6.77-38.7-7a61.79,61.79,0,0,0-11.78,1c5.66.23,16.41,1.39,20.24,6.78l-.41-.12.25.11a68.67,68.67,0,0,0-13.18-2.1,1.66,1.66,0,0,1-.92,1.45h0l-3.88,2.53c-1.43.84-4.14,1.45-8,1.7l-13.72,5.14a21.06,21.06,0,0,1-6.16.76c-7.26.09-16.41-1.5-20.44-3.55-1.55-.79-2.1-1.53-1.82-2.15l4.19-6.8c-1.65-1.21-1.8-2.31-.64-3.2l3.75-2.55h0c1.22-.81,3.62-1.42,7-1.73-1.93-2.92-2.21-6.17,1.29-9.41C720.79,634.64,722.56,631.25,723.08,628.88Z" opacity=".6"></path>
    <g>
      <path fill="#b64983" d="M691.74,637.68h40.52l-5.84,22.2a8.32,8.32,0,0,1-4,4.47c-5.73,3.31-15,3.31-20.75,0a8.32,8.32,0,0,1-4-4.46Z"></path>
      <path fill="#0b0602" d="M712,667.08a21.48,21.48,0,0,1-10.5-2.51,8.6,8.6,0,0,1-4.16-4.61l-5.85-22.22a.23.23,0,0,1,0-.21.26.26,0,0,1,.2-.1h40.52a.26.26,0,0,1,.2.1.23.23,0,0,1,0,.21L726.66,660a8.58,8.58,0,0,1-4.16,4.62A21.51,21.51,0,0,1,712,667.08Zm-19.94-29.15,5.76,21.89a8.13,8.13,0,0,0,3.93,4.32c5.65,3.26,14.85,3.26,20.5,0a8.12,8.12,0,0,0,3.93-4.33l5.76-21.88Z"></path>
      <path fill="#e279b0" d="M688.29,626.1H735.7l-.06,7.83c-.17,3.37-2.43,6.71-6.88,9.28-9.26,5.34-24.27,5.34-33.52,0-4.46-2.57-6.71-5.91-6.88-9.28Z"></path>
      <path fill="#0b0602" d="M712,647.46c-6.12,0-12.23-1.34-16.89-4-4.33-2.5-6.82-5.87-7-9.48L688,626.1a.25.25,0,0,1,.08-.18.22.22,0,0,1,.17-.07H735.7a.24.24,0,0,1,.25.25l-.06,7.83c-.19,3.63-2.67,7-7,9.5C724.23,646.12,718.11,647.46,712,647.46Zm-23.45-21.11.06,7.58c.17,3.43,2.57,6.65,6.75,9.06,9.18,5.3,24.1,5.3,33.27,0,4.18-2.41,6.58-5.63,6.76-9.07l.06-7.57Z"></path>
      <ellipse cx="712" cy="626.1" fill="#f5dbf1" rx="23.7" ry="13.69"></ellipse>
      <path fill="#0b0602" d="M712,640c-6.12,0-12.23-1.34-16.89-4S688,629.85,688,626.1s2.51-7.26,7.07-9.9h0c9.31-5.37,24.46-5.37,33.77,0,4.56,2.64,7.07,6.15,7.07,9.9s-2.51,7.26-7.07,9.89S718.11,640,712,640Zm-16.64-23.38c-4.4,2.54-6.82,5.9-6.82,9.46s2.42,6.92,6.82,9.46c9.18,5.29,24.1,5.29,33.27,0,4.4-2.54,6.82-5.9,6.82-9.46s-2.42-6.92-6.82-9.46c-9.17-5.3-24.09-5.3-33.27,0Z"></path>
      <ellipse cx="712" cy="626.1" rx="21.74" ry="11.41"></ellipse>
      <path fill="#e279b0" d="M691.06,629.17a12.72,12.72,0,0,1,5.57-5c8.48-4.45,22.25-4.45,30.74,0a12.69,12.69,0,0,1,5.56,5c2.05-3.83.19-8.12-5.56-11.14-8.49-4.45-22.26-4.45-30.74,0C690.88,621.05,689,625.34,691.06,629.17Z"></path>
      <path fill="#0b0602" d="M732.93,629.42h0a.26.26,0,0,1-.22-.13,12.47,12.47,0,0,0-5.46-4.9c-8.41-4.42-22.09-4.42-30.51,0a12.58,12.58,0,0,0-5.46,4.9.24.24,0,0,1-.22.13h0a.26.26,0,0,1-.22-.13,6.55,6.55,0,0,1-.54-5.09c.75-2.44,2.9-4.65,6.21-6.39,8.54-4.48,22.43-4.48,31,0,3.32,1.74,5.47,4,6.22,6.39a6.51,6.51,0,0,1-.55,5.09A.24.24,0,0,1,732.93,629.42ZM712,614.94a33.85,33.85,0,0,0-15.26,3.31c-3.19,1.68-5.25,3.79-6,6.1a5.81,5.81,0,0,0,.3,4.29,13.48,13.48,0,0,1,5.43-4.7c8.54-4.48,22.43-4.48,31,0a13.51,13.51,0,0,1,5.44,4.7,5.91,5.91,0,0,0,.3-4.29c-.71-2.31-2.77-4.42-6-6.1A33.81,33.81,0,0,0,712,614.94Z"></path>
      <path fill="#2a4944" d="M719.77,632.53a8.71,8.71,0,0,1-.85.32,21.49,21.49,0,0,1-6.16.73c-3.52-5.59-6.6-14.79,7.8-18.47,0,0,14.17-9.41,27.41,6.52A28.16,28.16,0,0,0,719.77,632.53Z"></path>
      <path fill="#0b0602" d="M712.92,633.83c-.14,0-.29,0-.37-.12-2-3.14-4-7.74-2.39-11.77,1.3-3.27,4.77-5.64,10.3-7.06.83-.53,14.8-8.93,27.7,6.59a.24.24,0,0,1,0,.29.23.23,0,0,1-.27.11A28.11,28.11,0,0,0,720,632.68a.31.31,0,0,1-.11.09l-.22.08a5.07,5.07,0,0,1-.65.24A21.1,21.1,0,0,1,712.92,633.83Zm0-.5h0a20.84,20.84,0,0,0,5.93-.72,6.13,6.13,0,0,0,.6-.22l.16-.06a28.59,28.59,0,0,1,27.71-11.09c-12.82-14.82-26.48-6-26.62-5.92l-.07,0c-5.4,1.38-8.77,3.66-10,6.78C709.11,625.91,711,630.29,712.9,633.33Z"></path>
      <path d="M719.61,632.59c-.23.09-.45.19-.69.26a22.1,22.1,0,0,1-6.3.73,17.12,17.12,0,0,1-2.89-8.11,30.2,30.2,0,0,0,5,7.32c11.24-21.71,33.11-11.11,33.11-11.11A28.16,28.16,0,0,0,719.61,632.59Z"></path>
      <path fill="#2a4944" d="M695.75,587.25c6.89,15.89,15.18,37,18.75,46.28-.92.05-1.83.07-2.72,0a16,16,0,0,1-5.39-1.27c-9.52-6.68-22.76-19-24.85-37-1.5-13-4.16-22-6.62-28C674.92,567.32,692.45,579.64,695.75,587.25Z"></path>
      <path fill="#0b0602" d="M712.64,633.83h-.87a16.15,16.15,0,0,1-5.47-1.29c-10.3-7.22-23-19.51-25-37.17-1.26-10.9-3.48-20.3-6.6-28a.25.25,0,0,1,.08-.29.25.25,0,0,1,.3,0c.71.51,17.62,12.45,20.91,20,7,16.08,15.44,37.73,18.76,46.29a.24.24,0,0,1,0,.23.21.21,0,0,1-.19.11C713.87,633.82,713.24,633.83,712.64,633.83ZM675.47,568a109.81,109.81,0,0,1,6.32,27.28c2,17.48,14.58,29.66,24.75,36.79a15.22,15.22,0,0,0,5.25,1.23c.74,0,1.53,0,2.36,0-3.4-8.77-11.75-30.08-18.63-45.95C692.66,580.75,678.76,570.4,675.47,568Z"></path>
      <path d="M716.72,633.32c-.7.1-1.42.17-2.13.21-3.11-9.77-8-32.56,10.36-41.8,23.64-11.91,46.37,15,46.37,15s-25.46-7.41-39.56-.56C721.16,611.34,717.78,625.74,716.72,633.32Z"></path>
      <path fill="#7cdbb0" d="M715.81,633.43c-.85.09-1.7.14-2.54.15-6-10-17.48-35-1.39-58,11.55-16.54,35.71-27.68,36-28.06l-12.52,31.15c-.34.87-.7,1.73-1.11,2.58C724.35,601.71,715,615.72,715.81,633.43Z"></path>
      <path fill="#0b0602" d="M713.27,633.83a.22.22,0,0,1-.21-.12c-5.83-9.78-17.62-35-1.38-58.28,6.67-9.56,18.38-18.8,34.8-27.44.64-.34,1.14-.6,1.22-.67a.23.23,0,0,1,.31-.05.26.26,0,0,1,.09.33l-12.52,31.15c-.39,1-.75,1.84-1.11,2.6-1.84,3.8-3.65,7.35-5.39,10.79-7.65,15-13.68,26.92-13,41.28a.24.24,0,0,1-.22.26c-.85.09-1.72.14-2.57.15Zm34.1-85.75-.65.35c-16.36,8.61-28,17.79-34.63,27.28-16,22.93-4.48,47.84,1.32,57.62.71,0,1.43-.05,2.14-.12-.59-14.39,5.45-26.27,13.08-41.29,1.75-3.44,3.55-7,5.39-10.79.36-.74.71-1.56,1.1-2.56Z"></path>
      <path d="M716,633.42c-.92.1-1.84.15-2.76.16-.75-1.2-1.57-2.61-2.39-4.15-2.77-15.58,24.55-50.77,24.55-50.77C731.64,589,716,613.9,716,633.42Z"></path>
    </g>
    <path fill="#35333e" d="M437.87,441.94,690.3,575.18a9.5,9.5,0,0,0,4.39,1.08H796.84a9.53,9.53,0,0,1,4.26,1l14.77,7.39a9.59,9.59,0,0,0,4.26,1c9.92,0,13.23-13.25,4.49-17.92l-289-154.91a9.53,9.53,0,0,0-5.79-1L441,424.06A9.52,9.52,0,0,0,437.87,441.94Z" opacity=".5"></path>
    <path fill="#d2fae7" d="M472,396.84l220.35,125s11.07-4.49,15.16-7.68a13.7,13.7,0,0,0,5.31-10.86l.92-257.84a22.91,22.91,0,0,0-12.08-20.3L481.31,106.54a13.87,13.87,0,0,0-20.43,12.16L460,376.54A22.92,22.92,0,0,0,472,396.84Z"></path>
    <path fill="#181818" d="M471.73,397.36,692.09,522.31l.25.15.28-.11c.45-.18,11.18-4.56,15.3-7.77a14.35,14.35,0,0,0,5.54-11.32l.92-257.84A23.49,23.49,0,0,0,702,224.58L481.59,106a14.46,14.46,0,0,0-21.31,12.68l-.92,257.85A23.48,23.48,0,0,0,471.73,397.36ZM461.48,118.7a13.3,13.3,0,0,1,13.26-13.22,13.35,13.35,0,0,1,6.29,1.59L701.42,225.64a22.28,22.28,0,0,1,11.76,19.77l-.92,257.84h0a13.15,13.15,0,0,1-5.08,10.39c-3.63,2.83-13,6.77-14.74,7.49L472.32,396.31a22.3,22.3,0,0,1-11.76-19.77Z"></path>
    <path fill="#181818" d="M704.81,516.49a13.45,13.45,0,0,0,7.25-11.9l1.23-195.51L697.84,320.8V311l15.53-11.72.41-52.79-43.9,24.25v238l23.43,13Z"></path>
    <path fill="#fff" d="M459.62,403.08,680,521.65a13.87,13.87,0,0,0,20.43-12.16l.92-257.84a22.92,22.92,0,0,0-12.08-20.3L468.89,112.78a13.87,13.87,0,0,0-20.43,12.15l-.92,257.85A22.93,22.93,0,0,0,459.62,403.08Z"></path>
    <path fill="#181818" d="M459.33,403.61l220.4,118.56A14.46,14.46,0,0,0,701,509.49L702,251.65a23.48,23.48,0,0,0-12.39-20.83L469.17,112.25a14.46,14.46,0,0,0-21.31,12.68l-.92,257.84A23.5,23.5,0,0,0,459.33,403.61ZM449.06,124.94a13.23,13.23,0,0,1,19.54-11.63L689,231.88a22.28,22.28,0,0,1,11.76,19.77l-.92,257.84a13.27,13.27,0,0,1-19.54,11.63L459.9,402.55a22.29,22.29,0,0,1-11.76-19.77Z"></path>
    <rect width="13.76" height="1.2" x="690.16" y="462.01" fill="#181818" transform="rotate(-89.77 696.998 462.614)"></rect>
    <rect width="15.66" height="1.2" x="689.38" y="423.59" fill="#181818" transform="rotate(-89.77 697.172 424.197)"></rect>
    <polygon fill="#181818" points="698.04 327.45 696.84 327.44 696.64 413.96 697.84 413.96 698.04 327.45"></polygon>
    <path fill="#181818" d="M452.66,153.75a9.71,9.71,0,0,1,9.68-9.64,9.52,9.52,0,0,1,4.56,1.17L687.29,263.85a18.69,18.69,0,0,1,9.87,16.58l-.29,38.94h1.2l.29-38.94a19.9,19.9,0,0,0-10.5-17.65L467.47,144.22a10.78,10.78,0,0,0-5.13-1.31,10.92,10.92,0,0,0-10.88,10.84l-.13,30.94h1.2Z"></path>
    <rect width="8.54" height="1.2" x="447.56" y="194.4" fill="#181818" transform="rotate(-89.79 451.836 195.001)"></rect>
    <path fill="#181818" d="M461,400.43,681.43,519a10.65,10.65,0,0,0,5.13,1.32,10.92,10.92,0,0,0,10.88-10.84l.1-23.38h-1.2l-.1,23.37a9.72,9.72,0,0,1-9.68,9.65A9.61,9.61,0,0,1,682,518L461.6,399.38a18.71,18.71,0,0,1-9.86-16.59l.64-175h-1.2l-.64,175A19.88,19.88,0,0,0,461,400.43Z"></path>
    <polygon fill="#35333e" points="713.26 412 713.26 260.15 448.28 118.58 448.28 148.18 700.4 287.79 713.26 412" opacity=".4"></polygon>
    <path fill="#181818" d="M452.49,118.8,720,269.17l12.5-5.78c4.54-2.38,7.52-8.41,7.8-13.69.58-11.12-5.4-21.06-15.22-26.33L458.88,78.84a14.62,14.62,0,0,0-15.38.89c-3.72,2.57-9.31,7-9.31,7L436.68,99C436.59,110.12,442.67,113.52,452.49,118.8Z"></path>
    <path fill="#181818" d="M452.19,119.32,719.72,269.69l.27.15,12.81-5.92c5-2.61,7.85-9.11,8.12-14.18l-.6,0,.6,0a28.77,28.77,0,0,0-15.53-26.9L459.16,78.31a15.28,15.28,0,0,0-16,.92c-3.68,2.56-9.27,7-9.33,7l-.29.23L436.07,99C436,110.62,442.45,114.09,452.19,119.32Zm-8.35-39.1a14.07,14.07,0,0,1,14.75-.85L724.82,223.9a27.56,27.56,0,0,1,14.9,25.77c-.25,4.74-2.9,10.79-7.45,13.18l-12.22,5.64L452.77,118.27c-9.72-5.22-15.58-8.38-15.49-19.28v-.06l-2.43-12C436.05,86,440.66,82.42,443.84,80.22Z"></path>
    <path fill="#2a4944" d="M438.86,123.07,706.67,268.45c10.61,5.7,24-1.87,24.06-13.91l0-2.26a23.57,23.57,0,0,0-12.41-20.95L450.53,86a16,16,0,0,0-23.56,14l-.08,2.57A22.62,22.62,0,0,0,438.86,123.07Z"></path>
    <path fill="#181818" d="M438.57,123.6,706.39,269a16.8,16.8,0,0,0,8,2,17.21,17.21,0,0,0,8.8-2.45,16.33,16.33,0,0,0,8.18-14l0-2.27a24.12,24.12,0,0,0-12.73-21.48L450.81,85.42a16.59,16.59,0,0,0-24.44,14.47l-.08,2.58A23.29,23.29,0,0,0,438.57,123.6Zm-11-23.68a15.36,15.36,0,0,1,22.67-13.44L718.05,231.86a22.91,22.91,0,0,1,12.1,20.42l0,2.26h0a15.16,15.16,0,0,1-7.59,13,15.73,15.73,0,0,1-15.58.41L439.15,122.54a22.11,22.11,0,0,1-11.66-20Z"></path>
    <rect width="1.2" height="21.96" x="688.09" y="232.42" fill="#7cdbb0" transform="rotate(-29.79 688.724 243.414)"></rect>
    <rect width="13.38" height="1.2" x="682.07" y="242.93" fill="#7cdbb0" transform="rotate(-28.29 688.752 243.524)"></rect>
    <path fill="#7cdbb0" d="M711.66 248.76 699.47 242v14l12.19 6.73Zm-1.2 11.93-9.79-5.4V244.07l9.79 5.4ZM671.88 241.91a6.35 6.35 0 0 0 2.39.49 5.17 5.17 0 0 0 2.64-.71 5.76 5.76 0 0 0 2.64-4.48 9.92 9.92 0 0 0-5.75-9.77 5.54 5.54 0 0 0-5 .23 5.75 5.75 0 0 0-2.65 4.48h0A9.91 9.91 0 0 0 671.88 241.91Zm-4.56-9.63h0a4.6 4.6 0 0 1 2.07-3.58 4 4 0 0 1 2-.54 5.09 5.09 0 0 1 1.93.4 8.63 8.63 0 0 1 5 8.52 4.59 4.59 0 0 1-2.07 3.58 4.38 4.38 0 0 1-4 .14A8.66 8.66 0 0 1 667.32 232.28Z"></path>
    <path fill="#e9a7d0" d="M649,333.7l-6.79-3.52a2.45,2.45,0,0,0-3.69,2.1l0,9.57a2.83,2.83,0,0,0,1.53,2.48l6.79,3.53a2.45,2.45,0,0,0,3.69-2.1l0-9.57A2.85,2.85,0,0,0,649,333.7Z"></path>
    <path d="M649.25,333.15l-6.79-3.53a3.2,3.2,0,0,0-3.09,0,3,3,0,0,0-1.49,2.6l0,9.57a3.54,3.54,0,0,0,1.91,3.09l6.78,3.53a3.41,3.41,0,0,0,1.57.39,3,3,0,0,0,1.53-.4,3,3,0,0,0,1.49-2.61l0-9.56A3.54,3.54,0,0,0,649.25,333.15Zm.6,12.56a1.78,1.78,0,0,1-.91,1.59,2,2,0,0,1-1.88,0l-6.78-3.53a2.15,2.15,0,0,1-1.17-1.88l0-9.56a1.78,1.78,0,0,1,.91-1.59,1.91,1.91,0,0,1,1.88,0l6.78,3.52a2.13,2.13,0,0,1,1.16,1.88Z"></path>
    <path fill="#e9a7d0" d="M649.09,362.27l-6.79-3.53a2.46,2.46,0,0,0-3.69,2.11l0,9.56a2.84,2.84,0,0,0,1.54,2.49l6.78,3.53a2.45,2.45,0,0,0,3.69-2.11l0-9.56A2.81,2.81,0,0,0,649.09,362.27Z"></path>
    <path d="M649.35,361.71l-6.78-3.53a3.25,3.25,0,0,0-3.1,0A3,3,0,0,0,638,360.8l0,9.57a3.52,3.52,0,0,0,1.9,3.09l6.79,3.53a3.4,3.4,0,0,0,1.56.39,3.12,3.12,0,0,0,1.53-.4,3,3,0,0,0,1.49-2.61l0-9.57A3.51,3.51,0,0,0,649.35,361.71Zm.6,12.57a1.76,1.76,0,0,1-.9,1.58,2,2,0,0,1-1.89,0l-6.78-3.53a2.13,2.13,0,0,1-1.16-1.88l0-9.57a1.76,1.76,0,0,1,.91-1.58,1.83,1.83,0,0,1,.93-.25,2.06,2.06,0,0,1,.95.24l6.79,3.53a2.17,2.17,0,0,1,1.16,1.88Z"></path>
    <path fill="#e9a7d0" d="M649.19,390.84l-6.78-3.53a2.45,2.45,0,0,0-3.69,2.1l0,9.57a2.81,2.81,0,0,0,1.53,2.49L647,405a2.45,2.45,0,0,0,3.69-2.1l0-9.57A2.84,2.84,0,0,0,649.19,390.84Z"></path>
    <path d="M649.46,390.28l-6.79-3.53a3.23,3.23,0,0,0-3.09,0,3,3,0,0,0-1.5,2.61l0,9.56A3.53,3.53,0,0,0,640,402l6.78,3.52a3.41,3.41,0,0,0,1.57.39,3.07,3.07,0,0,0,1.53-.4,3,3,0,0,0,1.49-2.6l0-9.57A3.52,3.52,0,0,0,649.46,390.28Zm.6,12.57a1.79,1.79,0,0,1-.91,1.58,1.93,1.93,0,0,1-1.88,0l-6.79-3.53a2.17,2.17,0,0,1-1.16-1.88l0-9.57a1.79,1.79,0,0,1,.91-1.58,2,2,0,0,1,1.89,0l6.78,3.53a2.14,2.14,0,0,1,1.16,1.88Z"></path>
    <path fill="#e9a7d0" d="M649.3,419.41l-6.79-3.53a2.45,2.45,0,0,0-3.69,2.1l0,9.57a2.83,2.83,0,0,0,1.53,2.48l6.79,3.53a2.45,2.45,0,0,0,3.69-2.1l0-9.57A2.82,2.82,0,0,0,649.3,419.41Z"></path>
    <path d="M649.56,418.85l-6.78-3.53a3.25,3.25,0,0,0-3.1,0,3,3,0,0,0-1.49,2.6l0,9.57a3.54,3.54,0,0,0,1.91,3.09l6.79,3.53a3.37,3.37,0,0,0,1.56.39,3,3,0,0,0,1.53-.4,3,3,0,0,0,1.49-2.6l0-9.57A3.54,3.54,0,0,0,649.56,418.85Zm.6,12.56a1.78,1.78,0,0,1-.91,1.59,1.93,1.93,0,0,1-1.88,0l-6.78-3.53a2.1,2.1,0,0,1-1.16-1.87l0-9.57a1.78,1.78,0,0,1,.91-1.59,1.93,1.93,0,0,1,1.88,0L649,420a2.1,2.1,0,0,1,1.16,1.87Z"></path>
    <path fill="#e9a7d0" d="M649.4,448l-6.78-3.52a2.45,2.45,0,0,0-3.69,2.1l0,9.57a2.84,2.84,0,0,0,1.54,2.48l6.78,3.53a2.45,2.45,0,0,0,3.69-2.1l0-9.57A2.84,2.84,0,0,0,649.4,448Z"></path>
    <path d="M649.66,447.41l-6.78-3.52a3.22,3.22,0,0,0-3.1,0,3,3,0,0,0-1.49,2.6l0,9.57a3.51,3.51,0,0,0,1.91,3.09l6.78,3.53a3.41,3.41,0,0,0,1.57.39,3.07,3.07,0,0,0,1.53-.4,3,3,0,0,0,1.49-2.61l0-9.56A3.51,3.51,0,0,0,649.66,447.41Zm.6,12.57a1.76,1.76,0,0,1-.9,1.58,2,2,0,0,1-1.89,0L640.69,458a2.14,2.14,0,0,1-1.16-1.88l0-9.57a1.81,1.81,0,0,1,.91-1.58,1.93,1.93,0,0,1,.93-.25,2,2,0,0,1,1,.24l6.79,3.53a2.15,2.15,0,0,1,1.16,1.88Z"></path>
    <polygon fill="#181818" points="641.16 291.79 677.9 311.15 678.43 310.03 641.69 290.68 641.16 291.79"></polygon>
    <polygon fill="#181818" points="642.32 308.33 679.05 327.69 679.58 326.57 642.85 307.22 642.32 308.33"></polygon>
    <polygon fill="#181818" points="641.69 299.33 660.41 309.2 660.94 308.08 642.22 298.22 641.69 299.33"></polygon>
    <polygon fill="#181818" points="655.37 339.59 678.59 351.82 679.12 350.71 655.9 338.48 655.37 339.59"></polygon>
    <polygon fill="#181818" points="655.71 344.36 667.54 350.59 668.07 349.48 656.24 343.24 655.71 344.36"></polygon>
    <polygon fill="#181818" points="655.03 368.5 678.26 380.74 678.79 379.62 655.57 367.39 655.03 368.5"></polygon>
    <polygon fill="#181818" points="655.37 373.27 667.2 379.5 667.74 378.39 655.9 372.15 655.37 373.27"></polygon>
    <polygon fill="#181818" points="654.7 397.42 677.92 409.65 678.45 408.54 655.23 396.3 654.7 397.42"></polygon>
    <polygon fill="#181818" points="655.03 402.18 666.87 408.42 667.4 407.31 655.56 401.07 655.03 402.18"></polygon>
    <polygon fill="#181818" points="654.36 426.33 677.58 438.56 678.11 437.45 654.89 425.21 654.36 426.33"></polygon>
    <polygon fill="#181818" points="654.69 431.1 666.53 437.33 667.06 436.22 655.22 429.98 654.69 431.1"></polygon>
    <polygon fill="#181818" points="654.02 455.24 677.24 467.48 677.77 466.36 654.55 454.13 654.02 455.24"></polygon>
    <polygon fill="#181818" points="654.35 460.01 666.19 466.25 666.72 465.13 654.88 458.89 654.35 460.01"></polygon>
    <polygon points="631.82 464.66 633.09 464.75 633.77 272.63 632.49 272.54 631.82 464.66"></polygon>
    <path fill="#181818" d="m643.94 342-2.32-4.36-1.11.53 2.88 5.43a.68.68 0 0 0 .56.36h0a.58.58 0 0 0 .51-.29l4.15-7.4-1.12-.68ZM644 370.46l-2.32-4.36-1.12.53 2.89 5.42a.67.67 0 0 0 .56.37h0a.59.59 0 0 0 .52-.29l4.15-7.4-1.12-.68ZM644.17 399.28l-2.33-4.36-1.11.53 2.88 5.43a.69.69 0 0 0 .56.36h.05a.58.58 0 0 0 .51-.29l4.16-7.4-1.13-.68ZM644.27 427.83 642 423.47l-1.12.53 2.89 5.43a.68.68 0 0 0 .56.36h0a.61.61 0 0 0 .52-.3l4.15-7.4-1.12-.68ZM644.35 456.07 642 451.71l-1.12.53 2.89 5.43a.68.68 0 0 0 .56.36h0a.6.6 0 0 0 .52-.29l4.15-7.4-1.12-.68ZM571.14 391.75l41.8 24.41s2.7-1.64 4.21-2.75c1.71-1.25 3.23-2.92 3.25-5.32l.15-19.81a8.86 8.86 0 0 0-4.68-7.89l-40.33-21.64c-2.36-1.27-4.86-.58-6.82.74-.88.59-4 2.75-4 2.75l1.7 21.61A8.9 8.9 0 0 0 571.14 391.75Z"></path>
    <path fill="#181818" d="M570.86,392.22l42.08,24.57.28-.16c.11-.07,2.74-1.67,4.25-2.78,2.32-1.7,3.45-3.58,3.47-5.76l.16-19.8a9.42,9.42,0,0,0-5-8.38L575.8,358.27c-2.23-1.2-4.86-.93-7.38.77-.89.59-4,2.76-4,2.76l-.25.17,1.73,21.87A9.39,9.39,0,0,0,570.86,392.22ZM569,359.94c1.26-.84,3.75-2.06,6.26-.71l40.33,21.63a8.33,8.33,0,0,1,4.4,7.42l-.16,19.8c0,1.84-1,3.39-3,4.89-1.2.88-3.18,2.11-3.9,2.56l-41.54-24.26a8.36,8.36,0,0,1-4.4-7.46l-1.68-21.3Z"></path>
    <path fill="#e18920" d="M566.64,394.81,607,416.45a6.07,6.07,0,0,0,8.94-5.3l.15-19.8a8.87,8.87,0,0,0-4.68-7.9L571,361.82a6.06,6.06,0,0,0-8.93,5.29l-.16,19.8A8.88,8.88,0,0,0,566.64,394.81Z"></path>
    <path fill="#181818" d="M566.38,395.29l40.33,21.64a6.61,6.61,0,0,0,9.73-5.77l.16-19.8a9.42,9.42,0,0,0-5-8.39L571.3,361.34a6.61,6.61,0,0,0-9.74,5.77l-.15,19.8A9.4,9.4,0,0,0,566.38,395.29Zm-3.73-28.17a5.51,5.51,0,0,1,8.14-4.82l40.32,21.63a8.31,8.31,0,0,1,4.4,7.42l-.16,19.8a5.51,5.51,0,0,1-8.13,4.82l-40.33-21.63a8.32,8.32,0,0,1-4.39-7.42Z"></path>
    <path fill="#fff" d="M575.13 389a12.09 12.09 0 0 0 3.66 3.1 8.06 8.06 0 0 0 2.8.94 4.16 4.16 0 0 0 2.39-.32v-6.8l-2.33-1.25V390a4.06 4.06 0 0 1-2.73-.59 7.91 7.91 0 0 1-2.47-2.11 10.66 10.66 0 0 1-1.71-3.06 9.89 9.89 0 0 1-.61-3.4 5.41 5.41 0 0 1 .61-2.78 2.37 2.37 0 0 1 1.71-1.21 4.08 4.08 0 0 1 2.49.59 9.35 9.35 0 0 1 3.65 3.91l1.56-1.11a13.43 13.43 0 0 0-2.3-3.3 11.9 11.9 0 0 0-3-2.34 6 6 0 0 0-3.68-.85 3.6 3.6 0 0 0-2.57 1.75 7.56 7.56 0 0 0-.93 4 14.31 14.31 0 0 0 .93 5A15.87 15.87 0 0 0 575.13 389ZM588.81 396.57a9.72 9.72 0 0 0 2.93 2.44 5.4 5.4 0 0 0 2.35.72 2.24 2.24 0 0 0 1.73-.66l-1.27-2.55a2.4 2.4 0 0 1-2.75-.07 6.08 6.08 0 0 1-2.19-2 6.81 6.81 0 0 1-1.09-2.86l7.94 4.26c0-.38 0-.67 0-.88a11.82 11.82 0 0 0-.65-3.87 11.59 11.59 0 0 0-1.82-3.34 8.61 8.61 0 0 0-2.64-2.26 4.18 4.18 0 0 0-2.7-.59 2.61 2.61 0 0 0-1.86 1.37 6 6 0 0 0-.67 3.06 11.14 11.14 0 0 0 .69 3.82A11.4 11.4 0 0 0 588.81 396.57Zm.65-8.81a2 2 0 0 1 1.93.16 5.22 5.22 0 0 1 1.93 1.92 6.88 6.88 0 0 1 .93 2.79l-5.75-3.09A2.23 2.23 0 0 1 589.46 387.76ZM599.1 398.57a7.54 7.54 0 0 0 .9 3.75 6.43 6.43 0 0 0 2.58 2.51 4.09 4.09 0 0 0 1.26.45 1.58 1.58 0 0 0 1-.11l-.66-2.52a1.46 1.46 0 0 1-1.32-.18 2.44 2.44 0 0 1-1-1.06 3.51 3.51 0 0 1-.36-1.64v-6.19l2.71 1.46V392.6l-2.71-1.45v-3l-2.36-1.28v3l-1.67-.9v2.43l1.67.9Z"></path>
    <path fill="#8374ee" d="M481.79,191.16c-9-4.35-18-.25-20.15,9.15s3.3,20.55,12.24,24.9,18,.25,20.16-9.15S490.74,195.51,481.79,191.16Z"></path>
    <polygon fill="#181818" points="503.68 212.57 622.86 275.36 623.36 274.3 504.18 211.51 503.68 212.57"></polygon>
    <polygon fill="#181818" points="504.53 224.75 534.76 240.68 535.27 239.62 505.03 223.69 504.53 224.75"></polygon>
    <path fill="#fff" d="M482,210.07a1.81,1.81,0,0,0,1.43-.51,2.11,2.11,0,0,0,.48-1.48,5.27,5.27,0,0,0-1.4-3.32,12.93,12.93,0,0,0-4.17-3.09L470.93,198v13.72l7.76,3.93c1.89,1,3.34,1.35,4.34,1.2s1.5-.84,1.5-2a5,5,0,0,0-.67-2.42A8.76,8.76,0,0,0,482,210.07Zm-6.46-6.57,2.17,1.09c1,.51,1.51,1.11,1.51,1.79s-.5.76-1.51.25l-2.17-1.1Zm2.8,8.66-2.8-1.41v-2.16l2.8,1.42c1,.51,1.53,1.13,1.53,1.85S479.32,212.68,478.3,212.16Z"></path>
    <path fill="#181818" d="M483,210.41a2,2,0,0,0,.76-.5,2.56,2.56,0,0,0,.61-1.8,5.76,5.76,0,0,0-1.54-3.65,13.47,13.47,0,0,0-4.34-3.22l-8.06-4.07V212l8.06,4.07a9.74,9.74,0,0,0,4.12,1.29,3,3,0,0,0,.53,0,2.18,2.18,0,0,0,1.88-2.49,5.41,5.41,0,0,0-.74-2.66A8.44,8.44,0,0,0,483,210.41Zm-.08,5.9a7.58,7.58,0,0,1-4-1.15l-7.47-3.77V198.74l6.68,3.37a12.31,12.31,0,0,1,4,2.95,4.72,4.72,0,0,1,1.29,3,1.66,1.66,0,0,1-.36,1.16,1.34,1.34,0,0,1-1.09.37h-1.26l1,.86a8.24,8.24,0,0,1,1.78,2.13,4.45,4.45,0,0,1,.6,2.17C484,216,483.44,216.23,482.92,216.31Z"></path>
    <path fill="#181818" d="M478.49 209.57 475 207.81V211l3.09 1.57a3 3 0 0 0 1.25.38 1.06 1.06 0 0 0 .52-.13 1 1 0 0 0 .46-1h0C480.33 211 479.71 210.18 478.49 209.57Zm.85 2.26c0 .11 0 .16 0 .16h0s-.18.07-.84-.26l-2.5-1.27v-1.08l2.11 1.06C479.34 211.07 479.34 211.64 479.34 211.83ZM478.72 207.45a1 1 0 0 0 .51-.13 1 1 0 0 0 .45-.91c0-.89-.61-1.65-1.82-2.25L475 202.71v3.11l2.46 1.25A3 3 0 0 0 478.72 207.45ZM476 204.28l1.48.75c.81.41 1.22.85 1.22 1.31a.52.52 0 0 0 0 .13 1.8 1.8 0 0 1-.82-.28l-1.88-.94Z"></path>
    <path fill="#35333e" d="M432.74,635.71s82.13-45.19,96.43-60.85l14.3-15.66s9.61-6.44,13.28-13.28-28.43-24.06-36.85-24.79-27.13,15.26-33.78,27.18-10,23.63-14.62,28.32-13.74,19-27.74,26.82S424.47,634.94,432.74,635.71Z" opacity=".5" style="mix-blend-mode:multiply"></path>
    <path d="M672.67,488V505.4h0c.06,2.83-2,5.83-6,8.16l-77.25,44.6a28.5,28.5,0,0,1-13.48,3.48,22.09,22.09,0,0,1-11.13-2.47L371.39,447.73c-3.06-1.76-4.43-4.15-4.23-6.64h0V423.73H382v4.66l68.36-39.47c7.29-4.2,18.32-4.66,24.63-1l151,87,31.71,18.3V488Z"></path>
    <path fill="#7cdbb0" d="M668.4,481.76,475,370.32c-5.21-3-13.64-3.21-20.52-.82h0c-57,16.47-85.94,50.42-85.94,50.42h0c-2.56,3.61-1.71,7.62,2.82,10.24L564.77,541.6c6.31,3.64,17.33,3.19,24.61-1L666.64,496C673.92,491.77,674.71,485.41,668.4,481.76Z"></path>
    <path fill="#0b0602" d="M575.45,544.42a22.13,22.13,0,0,1-10.87-2.5L371.2,430.48a8.26,8.26,0,0,1-4.3-5.19,7,7,0,0,1,1.3-5.5.34.34,0,0,1,.06-.12c.29-.34,29.71-34.23,86.13-50.54h.06c7.1-2.45,15.63-2.09,20.76.88L668.59,481.44h0c2.87,1.66,4.45,4,4.45,6.5,0,3-2.27,6.08-6.22,8.36l-77.25,44.61A29.1,29.1,0,0,1,575.45,544.42ZM368.91,420.07s0,.05,0,.06a6.27,6.27,0,0,0-1.23,5,7.53,7.53,0,0,0,3.93,4.7L565,541.27c6.2,3.58,17.07,3.13,24.24-1l77.26-44.61c3.71-2.14,5.84-4.95,5.84-7.71,0-2.26-1.45-4.33-4.07-5.85L474.84,370.64c-5-2.87-13.29-3.19-20.22-.79l-.1,0C399.73,385.73,370.56,418.19,368.91,420.07Z"></path>
    <path fill="#35333e" d="M496.11,498.67s65.23-22.75,82.31-32.5S595,437.42,595,437.42s-7.51-84-9.13-98.52-26.13-13-33.62-20.77-9.53-25.79-20.43-27.15-28.72,13.24-27.12,28.75,4.19,62.88,0,71.87S494,429,488,439.82s-10.13,30-10.51,33.1S496.11,498.67,496.11,498.67Z" opacity=".5" style="mix-blend-mode:multiply"></path>
    <path d="M471.5,576.63c1.67-3.33,4.32-12.78,4.95-15.88a60.46,60.46,0,0,0,1.08-10.14l15.1-8.83a61.34,61.34,0,0,0,6.44,6.81c3.64,3.27,5.59,9.75,5.59,9.75s.63,3-2.63,6a16.88,16.88,0,0,1-6.34,3.67,54.34,54.34,0,0,1-3.4,12c-2.52,5.86-10.82,14.29-13.73,15.51-4.7,2-9.05,0-10-2.33S468.93,581.76,471.5,576.63Z"></path>
    <path fill="#8374ee" d="M498,535.58S462.9,494.43,454,484l-2.55-3c5.52-2,11.69-4.1,17.67-5.85,17.4-5.09,28.56-6.26,28.56-6.26L492.4,426S390.9,442.39,394,465.91a28.42,28.42,0,0,0,4.64,12.88l.16.23c.12.16.23.33.35.48l.27.35a22.18,22.18,0,0,0,2.55,2.73c15.83,16.41,66.12,66.32,72.34,74.26C480.27,560.43,502.36,542.43,498,535.58Z"></path>
    <path fill="#0b0602" d="M476.24,557.68a4.14,4.14,0,0,1-2.14-.51.45.45,0,0,1-.1-.09c-4.1-5.24-27.08-28.43-47.36-48.9-10.07-10.17-19.59-19.77-25-25.34a21.81,21.81,0,0,1-2.57-2.76c-.1-.11-.19-.23-.28-.35l-.29-.4-.13-.19a1.34,1.34,0,0,1-.11-.14,29.31,29.31,0,0,1-4.7-13c-3.08-23.61,94.58-39.63,98.74-40.31a.4.4,0,0,1,.28.07.41.41,0,0,1,.15.26L498,468.91a.4.4,0,0,1-.08.28.35.35,0,0,1-.25.14c-.11,0-11.33,1.23-28.49,6.25-5.12,1.5-10.89,3.4-17.14,5.66l2.19,2.55c8.81,10.28,43.69,51.14,44,51.55l0,0c1.71,2.71-.18,7.21-5.2,12.35C487.92,553.07,480.63,557.68,476.24,557.68Zm-1.7-1.12c3.3,1.85,12.23-3.38,18.07-9.36,4.67-4.78,6.57-9,5.11-11.4-1-1.12-35.28-41.34-44-51.52l-2.55-3a.39.39,0,0,1-.08-.34.38.38,0,0,1,.23-.26c6.47-2.34,12.42-4.31,17.7-5.86a188.1,188.1,0,0,1,28.24-6.23l-5.18-42.17c-6.83,1.14-100.62,17.23-97.72,39.4a28.45,28.45,0,0,0,4.57,12.72l.23.31.28.39.26.33a21.42,21.42,0,0,0,2.51,2.69c5.39,5.59,14.9,15.19,25,25.35C447.39,528.06,470.3,551.18,474.54,556.56Z"></path>
    <path d="M432.61,597.62c11.35.83,17.22.94,17.22.94s.55,10.34-1,15.92-3.17,6.65-5.29,8.19a3.47,3.47,0,0,1-3.95.3s-3.27,11.49-9.81,15-16.65,1.84-20.89-.85.57-10.4,6.82-17.63S429.6,604.71,432.61,597.62Z"></path>
    <path fill="#8374ee" d="M510.94,414.19c-30.71,9.18-30.39,31.38-30.39,31.38l-42.68,38.07a27.57,27.57,0,0,0-9.21,19.56l-3.57,95.49s8.53,5.37,15.18,6.82a18.91,18.91,0,0,0,16.67-4.43L467,516.21c10.29-6.5,22.78-14.23,29.07-17.54,10.31-5.4,31.65-13.9,39.78-24.2C547.45,459.83,530.16,408.43,510.94,414.19Z"></path>
    <path fill="#0b0602" d="M444.31,606.33a18.94,18.94,0,0,1-4.12-.45c-6.63-1.45-15.21-6.81-15.3-6.87a.37.37,0,0,1-.17-.33l3.57-95.49a28.1,28.1,0,0,1,9.33-19.83l42.56-38c.06-2.12,1.47-22.83,30.65-31.56h0c6-1.8,12.42,1.76,18,10,9.88,14.55,15.2,40.87,7.31,50.85-6.45,8.19-21.27,15.29-32.09,20.47-2.89,1.39-5.62,2.69-7.81,3.84-6.35,3.33-19.19,11.29-28.89,17.42l-10.08,84.69a.36.36,0,0,1-.11.22A19.59,19.59,0,0,1,444.31,606.33Zm-18.83-7.84c1.27.78,8.9,5.35,14.87,6.65a18.64,18.64,0,0,0,16.23-4.24l10.08-84.74a.39.39,0,0,1,.18-.27c9.73-6.15,22.68-14.18,29.1-17.55,2.19-1.15,4.93-2.46,7.83-3.85,10.75-5.15,25.48-12.2,31.83-20.25,7.69-9.76,2.39-35.63-7.35-50-5.42-8-11.53-11.43-17.21-9.73h0c-30.08,9-30.12,30.79-30.12,31a.36.36,0,0,1-.12.29l-42.68,38.07a27.37,27.37,0,0,0-9.09,19.3Z"></path>
    <path fill="#eebd34" d="M427.54,368.78s25.67-48.65,29.61-51.77c10.75-8.5,22.66,9.25,21.11,19.95-3,20.76-27.57,49.64-30.38,51.41C438.58,394.25,427.54,368.78,427.54,368.78Z"></path>
    <path fill="#0b0602" d="M445,389.63a6.3,6.3,0,0,1-1.88-.3c-8-2.47-15.56-19.67-15.87-20.4a.36.36,0,0,1,0-.32c1.05-2,25.75-48.77,29.7-51.89a9.54,9.54,0,0,1,11.38-.82c6.47,3.73,11.4,13.79,10.34,21.11-3,20.79-27.51,49.76-30.55,51.68A5.83,5.83,0,0,1,445,389.63ZM428,368.8c.8,1.79,8,17.57,15.33,19.81a5,5,0,0,0,4.39-.55c3-1.9,27.22-30.57,30.21-51.16,1-6.93-3.85-16.82-10-20.35a8.81,8.81,0,0,0-10.53.76C453.66,320.25,429.59,365.71,428,368.8Z"></path>
    <path fill="#eebd34" d="M461.86,314.94c7.62-.33,37.82-.62,47.4.86,17.32,2.67,27,22.79,31.85,39,.62,2.09,5.47,18.57,5.32,24.08-.61,22.86-.52,67.52-1.95,76.08a8.53,8.53,0,0,1-9,7.12c-70.12-4.17-79.59-36.8-78.87-40,.49-2.2,14.27-10.64,7.37-39.46C456.15,349.8,450.56,315.42,461.86,314.94Z"></path>
    <path fill="#0b0602" d="M536,462.45l-.55,0c-47.89-2.85-66.93-19.07-74-28.48-4.3-5.72-5.51-10.63-5.21-12a6,6,0,0,1,1.36-1.93c3.19-3.75,11.68-13.71,6-37.36-8.88-37.09-10.85-59.27-5.83-65.91a5.16,5.16,0,0,1,4-2.19l0,.38,0-.38c8.15-.35,38-.59,47.48.87,18.69,2.89,28.17,25.82,32.15,39.24.92,3.08,5.48,18.76,5.33,24.19-.2,7.55-.32,17.34-.45,27.71-.26,21-.54,42.66-1.5,48.43A8.92,8.92,0,0,1,536,462.45ZM479.76,315c-7.66,0-14.57.13-17.89.27a4.38,4.38,0,0,0-3.47,1.9c-4.87,6.45-2.86,28.41,6,65.28,5.75,24-2.92,34.19-6.18,38a7.18,7.18,0,0,0-1.2,1.62c-.2.91.65,5.49,5.08,11.37,7,9.31,25.87,25.35,73.45,28.19a8.17,8.17,0,0,0,8.59-6.81c.95-5.7,1.23-27.36,1.49-48.31.13-10.37.25-20.16.45-27.72.15-5.43-4.74-22.08-5.3-24-3.93-13.25-13.26-35.89-31.55-38.71C503.61,315.31,490.89,315,479.76,315Z"></path>
    <path fill="#f4d9c3" d="M482.15,297.93s8.17,14.86,12.08,16.06c-.94,7.51-13.48,15.21-20.2,19.65-6.62-4.09-7.79-7.88-3.61-18.67C472.88,308.59,482.15,297.93,482.15,297.93Z"></path>
    <path fill="#0b0602" d="M474,334.08a.46.46,0,0,1-.23-.06c-7-4.35-7.88-8.66-3.79-19.21,2.46-6.38,11.43-16.73,11.81-17.17a.42.42,0,0,1,.38-.15.42.42,0,0,1,.33.23c2.25,4.09,8.77,14.91,11.83,15.85a.45.45,0,0,1,.31.47c-.9,7.21-11.77,14.32-18.95,19l-1.45.95A.4.4,0,0,1,474,334.08Zm8-35.38c-1.81,2.14-9.13,11-11.24,16.43-4.19,10.82-2.83,14.2,3.2,18l1.2-.79c6.52-4.27,17.35-11.36,18.51-18.06C490,312.55,483.58,301.38,482.07,298.7Z"></path>
    <path fill="#fff" d="M486.61,323.18c4-4.58,4.08-12.21,4.08-12.21,3.27.2,6.55,3.41,6.55,3.41s.77,9.45-5,14.66a23.07,23.07,0,0,0-6.3,9.52s-6.16-8.68-11.82-4.63C473.48,331,481.77,328.71,486.61,323.18Z"></path>
    <path fill="#0b0602" d="M485.91,338.93a.37.37,0,0,1-.31-.15s-3.45-4.82-7.39-5.48a5.08,5.08,0,0,0-3.9.93.38.38,0,0,1-.36,0,.41.41,0,0,1-.23-.27c-.38-1.84,2-3.31,4.95-5.16a33.32,33.32,0,0,0,7.66-5.92h0c3.88-4.42,4-11.88,4-12a.36.36,0,0,1,.12-.27.35.35,0,0,1,.28-.1c3.36.2,6.65,3.38,6.79,3.51a.44.44,0,0,1,.11.24c0,.4.71,9.7-5.16,15a22.75,22.75,0,0,0-6.19,9.35.4.4,0,0,1-.3.26Zm-8.6-6.45a5.84,5.84,0,0,1,1,.08c3.44.58,6.38,3.87,7.45,5.22a23.62,23.62,0,0,1,6.18-9c5.21-4.68,5-13,4.92-14.21-.55-.5-3.18-2.81-5.82-3.16-.08,1.67-.59,8-4.16,12h0a34.3,34.3,0,0,1-7.83,6.06c-2.3,1.43-4.19,2.61-4.57,3.73A5.76,5.76,0,0,1,477.31,332.48Z"></path>
    <path fill="#fff" d="M469.83,317.79l2.76-.67s-1.71,6.12-2.56,9.39,4,7.13,4,7.13-4.1-2.71-6.84,1a8.32,8.32,0,0,1-4.36,2.66s.9-8.86,1.48-11S469.83,317.79,469.83,317.79Z"></path>
    <path fill="#0b0602" d="M462.83,337.63a.38.38,0,0,1-.25-.09.39.39,0,0,1-.13-.32c0-.36.92-8.92,1.5-11s5.38-8.38,5.58-8.64a.38.38,0,0,1,.21-.14l2.76-.67a.38.38,0,0,1,.36.11.39.39,0,0,1,.09.36c0,.06-1.72,6.15-2.56,9.39-.77,3,3.83,6.7,3.87,6.74a.37.37,0,0,1,.07.51.38.38,0,0,1-.51.1c-.15-.11-3.84-2.48-6.33.86a8.68,8.68,0,0,1-4.58,2.81ZM470,318.12c-.63.84-4.85,6.42-5.37,8.28s-1.2,8.38-1.41,10.35a7.6,7.6,0,0,0,3.63-2.38,4.81,4.81,0,0,1,5.37-1.87c-1.41-1.48-3.17-3.86-2.59-6.08.68-2.63,1.93-7.15,2.38-8.79Z"></path>
    <path fill="#f4d9c3" d="M452.46,278.73c3.11-4.39,9.68-6.13,14.77-6.82,7.89-1.08,15.16,6.37,15.86,16.61.65,9.46-2.54,24.9-12.38,29-5,2.06-9.87-1-13.31-5.52-4.07-5.35-6.31-12.8-7-17C449.54,289.8,449.3,283.18,452.46,278.73Z"></path>
    <path fill="#0b0602" d="M467.45,318.57c-3.58,0-7.24-2.19-10.4-6.35-4-5.27-6.33-12.57-7.1-17.22-.83-5-1.12-11.91,2.15-16.52h0c3.21-4.53,10-6.31,15.07-7a12.5,12.5,0,0,1,9.59,2.89,19.86,19.86,0,0,1,6.77,14.13c.62,9.09-2.26,25.11-12.65,29.39A8.79,8.79,0,0,1,467.45,318.57ZM452.82,279c-3.1,4.37-2.8,11-2,15.87.61,3.66,2.75,11.33,6.94,16.83,1.85,2.44,6.81,7.84,12.78,5.38,9.43-3.89,12.76-19,12.11-28.52A18.94,18.94,0,0,0,476.2,275a11.62,11.62,0,0,0-8.91-2.7c-4.93.68-11.44,2.38-14.47,6.65Z"></path>
    <path fill="#3c2e2c" d="M450.86,286.41s0,0,0,0S450.87,286.44,450.86,286.41Z"></path>
    <path d="M455.13,266.78c13.39-5.33,18.87,2.33,18.87,2.33,5.69-2.4,12.48,4.34,13.56,12.33,1,7.06-1.92,15.15-1.69,21.64-4.13.09-10.14-10.81-12.21-13.84-1.48,4.43-4.89,2.88-4.74-2.28-12.74,7.69-21.75,6.49-25.84,6.7C443.08,293.66,439.75,272.91,455.13,266.78Z"></path>
    <path d="M444.32,293.63c15.09-2.56,30.53-11.08,34.77-24.46,4.08,1.6,7.7,6.61,8.47,12.27,1,7.06-1.92,15.15-1.69,21.64-4.13.09-10.14-10.81-12.21-13.84-1.48,4.43-4.89,2.88-4.74-2.28C457.33,294,448.83,293.6,444.32,293.63Z"></path>
    <path fill="#f4d9c3" d="M478.2,285.86c4.7,2.09,1.69,14.3,1.69,14.3l-6.44-9.66S473.51,283.76,478.2,285.86Z"></path>
    <path d="M386.55,456.73v0l-.31-2.83,2.34,0,42.93-31.61a5.84,5.84,0,0,1,5.27-.59l75.07,33.1,4.89,0,.34,3.05h0a1.84,1.84,0,0,1-.91,1.73l-43.68,32.17a8,8,0,0,1-7.23.81l-77-33.95a2.54,2.54,0,0,1-1.7-1.85h0Z"></path>
    <path fill="#fff" d="M387.13,451.92c-1.37,1-1.22,2.37.33,3.06l79,34.85a5.85,5.85,0,0,0,5.28-.59l43.68-32.17c1.88-1.38,1.68-3.25-.44-4.19l-77-33.94a8,8,0,0,0-7.23.81l-43.68,32.17Z"></path>
    <path fill="#0b0602" d="M468.5,490.69a5.38,5.38,0,0,1-2.19-.42l-79.05-34.85a2.31,2.31,0,0,1-1.54-1.79,2.34,2.34,0,0,1,1.13-2.1h0l43.68-32.17a8.45,8.45,0,0,1,7.71-.86l77,33.94a3,3,0,0,1,2,2.31,3.06,3.06,0,0,1-1.47,2.71l-43.68,32.17A6.21,6.21,0,0,1,468.5,490.69Zm-81.08-38.38a1.46,1.46,0,0,0-.74,1.21c.05.4.39.76,1,1l79.05,34.84a5.41,5.41,0,0,0,4.8-.53l43.68-32.17a2.15,2.15,0,0,0,1.08-1.83,2.13,2.13,0,0,0-1.44-1.53l-77-33.94a7.49,7.49,0,0,0-6.75.76Z"></path>
    <path d="M496.92,466.39l-77.28-34.08a3.89,3.89,0,0,0-3.49.39l-25.76,19a1.07,1.07,0,0,0,.21,2l77.28,34.07a3.86,3.86,0,0,0,3.49-.39l25.77-19A1.07,1.07,0,0,0,496.92,466.39Z"></path>
    <path fill="#8374ee" d="m458.33 475.09-3.15 2.32a1.39 1.39 0 0 1-1.22.14L450.4 476c-.36-.16-.39-.47-.08-.7l3.15-2.32a1.35 1.35 0 0 1 1.23-.14l3.56 1.57c.36.16.39.47.07.71ZM455.26 467.91l-3.16 2.33a1.33 1.33 0 0 1-1.21.13l-3.57-1.57c-.36-.16-.39-.47-.07-.71l3.15-2.32a1.35 1.35 0 0 1 1.22-.13l3.56 1.57c.36.16.39.47.08.7ZM460.84 470.38l-3.15 2.32a1.39 1.39 0 0 1-1.22.14l-3.56-1.58c-.36-.15-.39-.47-.08-.7l3.16-2.32a1.32 1.32 0 0 1 1.22-.14l3.56 1.57a.38.38 0 0 1 .07.71ZM466.43 472.84l-3.15 2.32a1.33 1.33 0 0 1-1.22.14l-3.57-1.57c-.35-.16-.39-.47-.07-.71l3.15-2.32a1.36 1.36 0 0 1 1.22-.14l3.57 1.57a.38.38 0 0 1 .07.71ZM472 475.3l-3.16 2.33a1.35 1.35 0 0 1-1.22.13l-3.56-1.57c-.36-.16-.39-.47-.07-.71l3.15-2.32a1.35 1.35 0 0 1 1.22-.13l3.56 1.57c.36.16.39.47.08.7ZM463.92 477.55l-3.15 2.32a1.33 1.33 0 0 1-1.22.14L456 478.44a.38.38 0 0 1-.07-.71l3.15-2.32a1.33 1.33 0 0 1 1.22-.14l3.57 1.57a.38.38 0 0 1 .07.71ZM469.5 480l-3.15 2.33a1.35 1.35 0 0 1-1.22.13l-3.56-1.57c-.36-.16-.39-.47-.08-.71l3.16-2.32a1.35 1.35 0 0 1 1.22-.13l3.56 1.57c.36.15.39.47.07.7ZM422.36 435.81l-3.15 2.32a1.38 1.38 0 0 1-1.22.14l-3.57-1.58a.37.37 0 0 1-.07-.7l3.15-2.32a1.33 1.33 0 0 1 1.22-.14l3.57 1.57a.38.38 0 0 1 .07.71ZM428 438.27l-3.15 2.32a1.33 1.33 0 0 1-1.22.14L420 439.16a.38.38 0 0 1-.07-.71l3.15-2.32a1.35 1.35 0 0 1 1.22-.14l3.57 1.57a.38.38 0 0 1 .07.71ZM433.53 440.74l-3.15 2.32a1.35 1.35 0 0 1-1.22.13l-3.56-1.57c-.36-.16-.39-.47-.08-.71l3.15-2.32a1.37 1.37 0 0 1 1.23-.13l3.56 1.57c.36.15.39.47.07.71ZM439.12 443.2 436 445.52a1.35 1.35 0 0 1-1.22.13l-3.57-1.57c-.35-.15-.38-.47-.07-.7l3.15-2.32a1.33 1.33 0 0 1 1.22-.14l3.57 1.57a.38.38 0 0 1 .07.71ZM476 482.86l-3.16 2.32a1.35 1.35 0 0 1-1.22.13l-4.42-1.95a.37.37 0 0 1-.08-.7l3.15-2.33a1.37 1.37 0 0 1 1.23-.13l4.42 1.95a.38.38 0 0 1 .08.71ZM473.37 458.3l-3.16 2.32a1.35 1.35 0 0 1-1.22.13l-32.22-14.2a.38.38 0 0 1-.07-.71l3.15-2.32a1.35 1.35 0 0 1 1.22-.14l32.22 14.21c.36.16.39.47.08.71ZM465.43 484l-.85.63a1.39 1.39 0 0 1-1.22.14l-3.57-1.58c-.35-.15-.39-.47-.07-.71l.85-.62a1.39 1.39 0 0 1 1.22-.14l3.57 1.58a.37.37 0 0 1 .07.7ZM471 486.5l-.85.62a1.35 1.35 0 0 1-1.23.14l-3.56-1.57a.38.38 0 0 1-.07-.71l.85-.63a1.35 1.35 0 0 1 1.22-.13l3.56 1.57c.36.16.39.47.08.71ZM480.93 479.2l-3.15 2.32a1.36 1.36 0 0 1-1.22.13l-6.86-3a.38.38 0 0 1-.07-.71l3.15-2.32a1.35 1.35 0 0 1 1.22-.13l6.85 3c.36.16.39.47.08.71ZM485.9 475.53l-3.15 2.32a1.33 1.33 0 0 1-1.22.14l-9.65-4.25a.38.38 0 0 1-.07-.71l3.15-2.32a1.32 1.32 0 0 1 1.22-.14l9.65 4.26a.37.37 0 0 1 .07.7ZM487.82 467.38 487 468a1.35 1.35 0 0 1-1.22.13l-3.56-1.57c-.36-.16-.39-.47-.08-.7l.86-.63a1.37 1.37 0 0 1 1.21-.14l3.57 1.57a.38.38 0 0 1 .07.71ZM490.12 465.69l-.85.62a1.35 1.35 0 0 1-1.22.14l-3.56-1.57a.38.38 0 0 1-.07-.71l.85-.63a1.35 1.35 0 0 1 1.22-.13l3.56 1.57c.36.15.39.47.07.71ZM468.64 467.92l-3.15 2.32a1.33 1.33 0 0 1-1.22.14l-3.56-1.57c-.36-.16-.39-.47-.08-.71l3.15-2.32a1.35 1.35 0 0 1 1.22-.13l3.57 1.57c.36.16.39.47.07.7ZM474.23 470.39l-3.15 2.32a1.35 1.35 0 0 1-1.22.13l-3.57-1.57c-.36-.15-.39-.47-.07-.71l3.15-2.31a1.33 1.33 0 0 1 1.22-.14l3.56 1.57c.36.16.4.47.08.71ZM473.65 464.24l-3.15 2.32a1.36 1.36 0 0 1-1.22.13l-3.57-1.57c-.36-.16-.39-.47-.07-.7l3.15-2.33A1.35 1.35 0 0 1 470 462l3.56 1.57c.36.16.39.47.08.71ZM479.24 466.7 476.08 469a1.35 1.35 0 0 1-1.22.14l-3.56-1.57a.38.38 0 0 1-.08-.71l3.16-2.32a1.35 1.35 0 0 1 1.22-.14l3.56 1.57a.38.38 0 0 1 .08.71ZM484.82 469.16l-3.15 2.32a1.33 1.33 0 0 1-1.22.14l-3.56-1.57a.38.38 0 0 1-.08-.71L480 467a1.39 1.39 0 0 1 1.22-.14l3.57 1.58a.37.37 0 0 1 .07.7ZM490.91 471.85l-3.15 2.32a1.37 1.37 0 0 1-1.23.13l-4.06-1.79c-.36-.16-.39-.47-.07-.7l3.15-2.33a1.35 1.35 0 0 1 1.22-.13l4.06 1.79a.38.38 0 0 1 .08.71ZM457.47 463l-3.15 2.32a1.39 1.39 0 0 1-1.22.14l-3.57-1.58c-.35-.16-.39-.47-.07-.7l3.15-2.33a1.35 1.35 0 0 1 1.22-.13l3.56 1.57c.36.16.4.47.08.71ZM463.05 465.46l-3.15 2.32a1.35 1.35 0 0 1-1.22.14l-3.56-1.57a.38.38 0 0 1-.07-.71l3.15-2.32a1.36 1.36 0 0 1 1.22-.14l3.56 1.57a.38.38 0 0 1 .07.71ZM462.47 459.31l-3.15 2.32a1.35 1.35 0 0 1-1.22.14l-3.56-1.57a.38.38 0 0 1-.07-.71l3.15-2.32a1.35 1.35 0 0 1 1.22-.14l3.56 1.57a.38.38 0 0 1 .07.71ZM468.06 461.77l-3.15 2.33a1.35 1.35 0 0 1-1.22.13l-3.56-1.57c-.36-.16-.39-.47-.08-.71l3.15-2.32a1.35 1.35 0 0 1 1.22-.13l3.57 1.57c.36.15.39.47.07.7ZM451.88 460.54l-3.15 2.32a1.35 1.35 0 0 1-1.22.13L444 461.42c-.36-.16-.39-.47-.08-.71l3.16-2.32a1.33 1.33 0 0 1 1.21-.13l3.57 1.57c.36.16.39.47.07.71ZM451.31 454.38l-3.16 2.33a1.35 1.35 0 0 1-1.22.13l-3.56-1.57c-.36-.16-.39-.47-.08-.71l3.16-2.32a1.33 1.33 0 0 1 1.21-.13l3.57 1.57c.36.16.39.47.08.7ZM456.89 456.85l-3.15 2.32a1.39 1.39 0 0 1-1.22.14L449 457.73a.37.37 0 0 1-.07-.7l3.15-2.32a1.33 1.33 0 0 1 1.22-.14l3.56 1.57c.36.16.4.48.08.71ZM445.72 451.92l-3.15 2.32a1.35 1.35 0 0 1-1.23.14l-3.56-1.57a.38.38 0 0 1-.07-.71l3.15-2.32a1.35 1.35 0 0 1 1.22-.14l3.56 1.58c.36.15.39.47.08.7ZM479 460.76l-3.15 2.32a1.35 1.35 0 0 1-1.22.14L471 461.64c-.36-.15-.39-.47-.08-.7l3.15-2.32a1.33 1.33 0 0 1 1.22-.14l3.57 1.57a.38.38 0 0 1 .07.71ZM484.54 463.22l-3.15 2.32a1.36 1.36 0 0 1-1.22.14l-3.57-1.57a.38.38 0 0 1-.07-.71l3.15-2.32a1.39 1.39 0 0 1 1.22-.14l3.56 1.58c.36.15.39.47.08.7ZM495.85 468.21l-3.15 2.32a1.41 1.41 0 0 1-1.23.14l-3.56-1.58c-.36-.15-.39-.47-.07-.7l3.15-2.32a1.32 1.32 0 0 1 1.22-.14l3.56 1.57a.38.38 0 0 1 .08.71Z"></path>
    <path fill="#fff" d="M443.15,439.83,456,430.39a3.22,3.22,0,0,1,2.89-.32l32,14.13a.89.89,0,0,1,.18,1.67l-12.81,9.44a3.21,3.21,0,0,1-2.9.32l-32-14.12a.89.89,0,0,1-.17-1.68Z"></path>
    <path fill="#0b0602" d="M476.45,456.32a3.14,3.14,0,0,1-1.28-.25l-32-14.12a1.51,1.51,0,0,1-1-1.16,1.52,1.52,0,0,1,.71-1.35L455.67,430a3.69,3.69,0,0,1,3.38-.37l32,14.12a1.37,1.37,0,0,1,.27,2.51l-12.82,9.44A3.65,3.65,0,0,1,476.45,456.32Zm-18.69-26a2.72,2.72,0,0,0-1.52.44l-12.81,9.44h0c-.21.16-.33.33-.31.46s.16.28.4.38l32,14.13a2.71,2.71,0,0,0,2.41-.27l12.81-9.44a.63.63,0,0,0,.32-.46c0-.14-.17-.28-.41-.38l-32-14.13A2.37,2.37,0,0,0,457.76,430.34Z"></path>
    <path d="M353.59,409.24l1.71-1.81h0c.29-.27,1-.22,2,.22L435.9,442a11.71,11.71,0,0,1,4.74,3.94L467,491.58c.26.45.29.77.14.94h0l-1.71,1.8-7.13-5.16-72.86-31.87a9,9,0,0,1-3.6-3L357.37,412Z"></path>
    <path fill="#fff" d="M355.59,409.46c-1.82-.8-2.65-.33-1.85,1.05l26.4,45.63a8.72,8.72,0,0,0,3.6,3l80.16,35.08c1.38.6,2,.25,1.41-.8l-26.4-45.63a11.63,11.63,0,0,0-4.74-3.94l-78.58-34.38Z"></path>
    <path fill="#0b0602" d="M465,495a3.32,3.32,0,0,1-1.3-.33l-80.17-35.07a9.4,9.4,0,0,1-3.82-3.2l-26.4-45.63c-.56-1-.38-1.52-.12-1.8s1-.62,2.59.06l78.58,34.38a12.08,12.08,0,0,1,4.95,4.15l26.41,45.63c.46.8.3,1.26.07,1.5A1,1,0,0,1,465,495ZM354.13,409.55a.48.48,0,0,0-.21,0,1.2,1.2,0,0,0,.24.68l26.4,45.63a8.45,8.45,0,0,0,3.37,2.79l80.16,35.07a2,2,0,0,0,1,.25s-.08-.15-.2-.36L438.49,448a11.3,11.3,0,0,0-4.51-3.74L355.4,409.9h0A3.37,3.37,0,0,0,354.13,409.55Z"></path>
    <path fill="#eebd34" d="M529.22,326.59c13.95,17,21.3,69.28,20.68,72.71-2,11.37-38,38.2-44.64,43.72-6.89,5.77-19.74-10.53-15.68-15.94,8.18-10.87,29.9-35.95,29.9-35.95S501,335.09,502.4,330C505.33,319.1,522,317.81,529.22,326.59Z"></path>
    <path fill="#0b0602" d="M501.89,444.62c-2.3,0-4.92-1.28-7.54-3.76-4.4-4.17-7.48-10.79-5.07-14,7.75-10.31,27.9-33.64,29.77-35.82-1.4-4.25-18.37-56.1-17-61.14,1.24-4.62,5-7.93,10.3-9.07,6.43-1.38,13.33.84,17.17,5.52,14.21,17.36,21.31,70,20.76,73-1.76,9.82-27.67,30.35-40.13,40.22-2.05,1.62-3.67,2.91-4.64,3.72A5.48,5.48,0,0,1,501.89,444.62ZM516.2,321.18a17.32,17.32,0,0,0-3.71.39c-5,1.08-8.56,4.19-9.73,8.53-1.06,3.94,10.7,41.57,17.07,60.91a.36.36,0,0,1-.07.36c-.22.26-21.81,25.2-29.88,35.94-2.14,2.85.91,9.14,5,13,1.43,1.36,6.41,5.55,10.15,2.42,1-.82,2.6-2.11,4.66-3.74,11.41-9,38.14-30.22,39.85-39.76.54-3-6.5-55.2-20.6-72.42A16.54,16.54,0,0,0,516.2,321.18Z"></path>
    <path fill="#f4d9c3" d="M490.68,430c3.49-4.76,12.76,6.67,10.13,9.34-.9,1-1,2.71-2.17,3.47s-8.26,3.85-9.75,5.94c-.37.54-1.86,8.22-4.12,9.95-1.7,1.29-2.16.2-3.95,0-1.45-.13-5.87,1-7,.41-.54-.31-.78-1-1.25-1.39-2-1.75-3.34-1.91-3.89-4.94-.43-2.35,1.77-11.91,2.67-13.84C474,433.34,486.05,436.36,490.68,430Z"></path>
    <path fill="#0b0602" d="M483.29,459.8a3.67,3.67,0,0,1-1.19-.26,4.89,4.89,0,0,0-1.32-.33,15,15,0,0,0-2.65.26c-2.24.32-3.76.51-4.49.09a2.94,2.94,0,0,1-.87-.89,3.68,3.68,0,0,0-.45-.55c-.47-.4-.89-.71-1.28-1a5.54,5.54,0,0,1-2.75-4.19c-.45-2.44,1.73-12,2.7-14.11,1.38-3,5.11-3.71,9.05-4.45s8-1.53,10.28-4.59h0a3.1,3.1,0,0,1,3.14-1.28c3.12.49,6.91,4.77,8,8,.47,1.43.37,2.55-.3,3.22a5.67,5.67,0,0,0-.76,1.41,4.37,4.37,0,0,1-1.48,2.12c-.31.2-1,.54-1.94,1-2.49,1.25-6.65,3.35-7.69,4.81-.06.12-.26.84-.45,1.53-.74,2.67-2,7.15-3.77,8.51A2.83,2.83,0,0,1,483.29,459.8ZM491,430.3c-2.44,3.34-6.89,4.19-10.82,4.93-3.72.71-7.23,1.37-8.42,4-.86,1.85-3,11.35-2.63,13.58a4.76,4.76,0,0,0,2.4,3.64c.41.3.85.63,1.34,1a3.85,3.85,0,0,1,.59.7,2.16,2.16,0,0,0,.59.64c.52.29,2.48,0,3.92-.2a14.52,14.52,0,0,1,2.86-.27,6.1,6.1,0,0,1,1.54.37,1.72,1.72,0,0,0,2.1-.31c1.55-1.19,2.79-5.65,3.45-8.05a8.62,8.62,0,0,1,.58-1.8c1.16-1.64,5.29-3.72,8-5.09.88-.45,1.58-.8,1.85-1a3.74,3.74,0,0,0,1.15-1.73,6.38,6.38,0,0,1,.92-1.65c.58-.59.32-1.73.12-2.35-1-3-4.52-6.94-7.27-7.38a2.2,2.2,0,0,0-2.29.93Z"></path>
    <path fill="#eebd34" d="M454.6,387.09a16.53,16.53,0,0,0-13.47-16.29c-8.18-1.55-14.32-5.88-14.35.88,0,13,3.46,40.13,4.93,48.1,1.53,8.32,21.91,4.66,22.22-1.7C454.31,410.1,454.59,400,454.6,387.09Z"></path>
    <path fill="#0b0602" d="M440.58,425c-4.23,0-8.54-1.33-9.24-5.13-1.53-8.33-5-35.17-4.93-48.17,0-1.74.41-2.88,1.25-3.5,1.51-1.12,4.15-.33,7.5.68a59.26,59.26,0,0,0,6,1.57A16.92,16.92,0,0,1,455,387.09c0,11.38-.24,21.81-.68,31-.18,3.72-6.54,6.45-12.33,6.84C441.51,425,441.05,425,440.58,425Zm-11-56.6a2.55,2.55,0,0,0-1.52.4c-.63.47-.94,1.42-.94,2.9-.06,12.74,3.43,40,4.92,48,.68,3.74,5.54,4.76,9.84,4.48,5.5-.37,11.48-2.92,11.63-6.13.44-9.18.67-19.6.68-31a16.19,16.19,0,0,0-13.17-15.93,59.34,59.34,0,0,1-6.11-1.58A21.54,21.54,0,0,0,429.62,368.38Z"></path>
    <path fill="#f4d9c3" d="M451.36,419.56c.33-5.55-13.25-2.83-12.95.69,0,1.29-.9,2.57-.51,3.81s3.67,7.75,3.49,10.16c-.05.61-3.59,7.07-3,9.69.45,1.95,1.44,1.43,2.83,2.38,1.14.78,3.65,4.27,4.81,4.48.58.1,1.14-.24,1.73-.25,2.53,0,3.57.62,5.79-1.25,1.72-1.44,5.87-9.69,6.38-11.63C461.45,432,450.91,426.92,451.36,419.56Z"></path>
    <path fill="#0b0602" d="M446.27,451.23l-.3,0c-.79-.15-1.78-1.19-3.21-2.77a14,14,0,0,0-1.77-1.78,5.19,5.19,0,0,0-1.14-.56A2.42,2.42,0,0,1,438,444c-.48-2.08,1.31-6.07,2.38-8.45a14.08,14.08,0,0,0,.59-1.39c.13-1.65-1.63-5.67-2.68-8.07-.4-.92-.69-1.57-.79-1.91a4.15,4.15,0,0,1,.2-2.44,5.13,5.13,0,0,0,.28-1.49c0-.6.21-1.55,1.74-2.51,2.69-1.69,8-2.52,10.58-1a2.91,2.91,0,0,1,1.52,2.83h0c-.22,3.55,2.27,6.56,4.68,9.48s4.7,5.67,3.9,8.69c-.55,2.08-4.74,10.35-6.53,11.85a5.26,5.26,0,0,1-4.52,1.39c-.46,0-1-.05-1.54,0a2.65,2.65,0,0,0-.64.12A3.52,3.52,0,0,1,446.27,451.23Zm.35-34.4a13.25,13.25,0,0,0-6.46,1.67c-.52.32-1.38,1-1.31,1.71a6.11,6.11,0,0,1-.32,1.79,3.39,3.39,0,0,0-.21,1.93c.09.29.4,1,.76,1.81,1.15,2.64,2.89,6.62,2.75,8.52a8.34,8.34,0,0,1-.66,1.66c-1,2.13-2.75,6.1-2.33,7.89a1.63,1.63,0,0,0,1.31,1.47,5.39,5.39,0,0,1,1.34.65,13.62,13.62,0,0,1,1.92,1.92c.92,1,2.16,2.39,2.71,2.49a2,2,0,0,0,.8-.11,3.36,3.36,0,0,1,.86-.15c.6,0,1.12,0,1.6,0a4.5,4.5,0,0,0,3.91-1.18c1.63-1.37,5.75-9.56,6.23-11.41.69-2.58-1.45-5.17-3.72-7.9-2.4-2.9-5.12-6.19-4.88-10.09h0a2.05,2.05,0,0,0-1.09-2A6.53,6.53,0,0,0,446.62,416.83Z"></path>
    <path fill="#eebd34" d="m428.91 367-1.37 2.55 15.06 11.08 6.07 1.34 4.91-7.49s-7.47-7.64-7.72-7.83S428.91 367 428.91 367ZM519.37 320l3.91 3-3.63 5-9 19.84-12.25 2S491.28 316.31 519.37 320ZM457.17 317.43a25.7 25.7 0 0 1 2.94-1.66c.3 0-1.47 6.44-1.47 6.44l0 5L453 329S453.61 320.84 457.17 317.43Z"></path>
    <polygon fill="#35333e" points="668.89 484.53 621.11 512.1 570.18 482.51 617.85 455.04 668.89 484.53" opacity=".5" style="mix-blend-mode:multiply"></polygon>
    <polygon fill="#e18920" points="660.84 488.87 613.05 516.43 562.13 486.84 609.79 459.38 660.84 488.87"></polygon>
    <path fill="#0b0602" d="M613.05,516.81a.41.41,0,0,1-.19,0l-50.92-29.59a.37.37,0,0,1-.19-.33.39.39,0,0,1,.19-.32l47.66-27.47a.42.42,0,0,1,.38,0l51,29.49a.37.37,0,0,1,.19.33.36.36,0,0,1-.19.32l-47.79,27.57A.37.37,0,0,1,613.05,516.81Zm-50.17-30L613.05,516l47-27.13-50.3-29.06Z"></path>
    <polygon fill="#fff" points="656.28 487.72 612.9 512.74 566.68 485.88 609.95 460.95 656.28 487.72"></polygon>
    <path fill="#0b0602" d="M612.9,513.12a.37.37,0,0,1-.18,0L566.49,486.2a.38.38,0,0,1-.19-.32.41.41,0,0,1,.19-.33l43.27-24.93a.4.4,0,0,1,.37,0l46.34,26.77a.37.37,0,0,1,.19.33.37.37,0,0,1-.19.32l-43.38,25A.41.41,0,0,1,612.9,513.12Zm-45.47-27.24,45.47,26.43,42.63-24.59L610,461.38Z"></path>
    <polygon fill="#eebd34" points="660.84 486.3 613.05 504.63 562.13 475.04 609.79 456.81 660.84 486.3"></polygon>
    <path fill="#0b0602" d="M613.05,505a.41.41,0,0,1-.19-.05l-50.92-29.59a.38.38,0,0,1-.19-.36.4.4,0,0,1,.24-.32l47.67-18.23a.36.36,0,0,1,.32,0L661,486a.39.39,0,0,1,.19.36.37.37,0,0,1-.24.32L613.18,505A.31.31,0,0,1,613.05,505Zm-50-29.9,50.08,29.11,46.89-18-50.21-29Z"></path>
    <polygon points="613.05 516.43 562.13 486.84 562.13 475.04 613.05 504.63 613.05 516.43"></polygon>
    <path fill="#35333e" d="M535.52,511.64l15.39-14.37c0-1.39.91-2.53,2.58-3.25l3.21-1.51h0a12.17,12.17,0,0,1,5.44-.81c5.85.28,12.12,3.2,14,6.53a3,3,0,0,1,0,3.36h0l-1.69,2.3h0c-.75,1.12-2.36,1.92-4.57,2.25l-3.37,2.17h0l-2.21,1.43-14.13,9.12a14.17,14.17,0,0,1-4.72.94c-4.44-.21-9.2-2.43-10.64-5C534.14,513.54,534.6,512.61,535.52,511.64Z" opacity=".5" style="mix-blend-mode:multiply"></path>
    <path fill="#eebd34" d="M532.76,486.84H558.4l-2.75,27.07s-1.09,2.78-2.94,3.85a15.82,15.82,0,0,1-14.28,0,5.44,5.44,0,0,1-2.95-4.3Z"></path>
    <path fill="#0b0602" d="M545.57,519.83a14.94,14.94,0,0,1-7.33-1.75,5.79,5.79,0,0,1-3.13-4.56l-2.73-26.64a.38.38,0,0,1,.1-.29.37.37,0,0,1,.28-.13H558.4a.41.41,0,0,1,.28.13.38.38,0,0,1,.09.29L556,514a.3.3,0,0,1,0,.1c0,.12-1.16,2.91-3.1,4A15,15,0,0,1,545.57,519.83Zm-12.4-32.62,2.68,26.21a5.09,5.09,0,0,0,2.76,4,15.36,15.36,0,0,0,13.91,0,8.32,8.32,0,0,0,2.76-3.61l2.7-26.61Z"></path>
    <path fill="#fff" d="M556.05,509.93a6.54,6.54,0,0,1-2.79,2.83,17,17,0,0,1-15.37,0,6.7,6.7,0,0,1-2.74-2.7l-1.87-18.22a7.75,7.75,0,0,0,3.23,3.24c5,2.88,13.1,2.88,18.1,0a7.59,7.59,0,0,0,3.29-3.37Z"></path>
    <path fill="#0b0602" d="M545.58,515a16.13,16.13,0,0,1-7.87-1.88,7.1,7.1,0,0,1-2.9-2.85.65.65,0,0,1,0-.13l-1.86-18.22a.37.37,0,0,1,.27-.4.37.37,0,0,1,.44.2,7.27,7.27,0,0,0,3.08,3.07c4.89,2.83,12.84,2.83,17.72,0a7.24,7.24,0,0,0,3.14-3.2.4.4,0,0,1,.44-.21.38.38,0,0,1,.28.41L556.42,510a.35.35,0,0,1,0,.11,6.87,6.87,0,0,1-2.94,3A16.13,16.13,0,0,1,545.58,515Zm-10.07-5a6.41,6.41,0,0,0,2.57,2.48,16.57,16.57,0,0,0,15,0,6.1,6.1,0,0,0,2.61-2.6l1.69-16.54a9.14,9.14,0,0,1-2.57,2.11c-5.09,2.94-13.38,2.94-18.47,0a9,9,0,0,1-2.52-2Z"></path>
    <path fill="#fff" d="M531.43,481.68l1-3.68,2.14-.1c.25-.16.49-.33.76-.48,5.63-3.25,14.76-3.25,20.39,0,.27.15.52.32.76.48l2.15.1,1.06,3.77h0c.85,2.6-.48,5.4-4,7.41-5.63,3.26-14.76,3.26-20.39,0C531.84,487.14,530.53,484.31,531.43,481.68Z"></path>
    <path fill="#0b0602" d="M545.57,492a21.25,21.25,0,0,1-10.38-2.48c-3.57-2.06-5.11-5-4.12-7.95l1-3.66a.4.4,0,0,1,.35-.28l2-.09c.22-.15.45-.3.7-.44,5.72-3.31,15-3.3,20.76,0,.24.14.47.29.69.44l2,.09a.4.4,0,0,1,.35.28l1.07,3.76v0c.91,2.87-.64,5.79-4.15,7.82A21.25,21.25,0,0,1,545.57,492Zm-12.81-13.63-1,3.42v0c-.87,2.55.54,5.19,3.78,7.06,5.52,3.19,14.5,3.19,20,0,3.2-1.85,4.62-4.45,3.81-7l0-.05-1-3.47-1.87-.08a.48.48,0,0,1-.2-.07c-.24-.16-.47-.32-.74-.47-5.51-3.18-14.49-3.19-20,0-.26.15-.5.31-.74.47a.44.44,0,0,1-.19.07Z"></path>
    <path fill="#fff" d="M536.16,473.91c-5.2,3-5.2,7.87,0,10.87s13.62,3,18.81,0,5.2-7.87,0-10.87S541.35,470.91,536.16,473.91Z"></path>
    <path fill="#0b0602" d="M545.57,487.39a19.61,19.61,0,0,1-9.6-2.29c-2.63-1.52-4.08-3.56-4.08-5.76s1.45-4.23,4.08-5.75h0c5.29-3.06,13.9-3.06,19.19,0,2.64,1.52,4.09,3.56,4.09,5.75s-1.45,4.24-4.09,5.76A19.57,19.57,0,0,1,545.57,487.39Zm-9.22-13.15c-2.4,1.38-3.71,3.19-3.71,5.1s1.31,3.73,3.71,5.11c5.08,2.94,13.35,2.94,18.44,0,2.39-1.38,3.71-3.19,3.71-5.11s-1.32-3.72-3.71-5.1c-5.09-2.94-13.36-2.94-18.44,0Z"></path>
    <path fill="#a3d9fd" d="M538.64,475c-3.83,2.21-3.83,5.79,0,8a15.38,15.38,0,0,0,13.86,0c3.83-2.22,3.83-5.8,0-8A15.32,15.32,0,0,0,538.64,475Z"></path>
    <path fill="#fff" d="M536.3,476.21h0A7.8,7.8,0,0,1,538,475a18.07,18.07,0,0,1,15.12,0c4.18,2.21,4.18,5.79,0,8a12.15,12.15,0,0,1-2.28.89h0c-4.08,1.24-9.35,1-12.84-.89S534,478.37,536.3,476.21Z"></path>
    <path fill="#0b0602" d="M545.52,485a16.87,16.87,0,0,1-7.7-1.68c-1.92-1-3.08-2.38-3.28-3.86a4.09,4.09,0,0,1,1.51-3.54h0a7.77,7.77,0,0,1,1.77-1.26,18.5,18.5,0,0,1,15.47,0c2.15,1.13,3.33,2.67,3.33,4.33s-1.18,3.2-3.33,4.33a12.39,12.39,0,0,1-2.35.92A19,19,0,0,1,545.52,485Zm-9-8.53a3.38,3.38,0,0,0-1.27,2.9c.16,1.22,1.18,2.39,2.88,3.29,3.3,1.75,8.46,2.1,12.55.87a12.38,12.38,0,0,0,2.22-.87c1.89-1,2.93-2.3,2.93-3.67s-1-2.67-2.93-3.67a17.64,17.64,0,0,0-14.77,0,7.23,7.23,0,0,0-1.61,1.15Z"></path>
    <path fill="#fff" d="M538,483a5.55,5.55,0,0,1-2.94-3.07,2.6,2.6,0,0,1,.32-2.5L545.72,483l2.68,1.42A17.86,17.86,0,0,1,538,483Z"></path>
    <path fill="#0b0602" d="M545.42,485a16.63,16.63,0,0,1-7.6-1.67h0a6,6,0,0,1-3.13-3.29c-.34-1.33-.19-2.32.43-2.89a.36.36,0,0,1,.43-.05l13,7a.36.36,0,0,1,.2.39.38.38,0,0,1-.32.31A20.69,20.69,0,0,1,545.42,485Zm-7.25-2.33a17.06,17.06,0,0,0,9,1.51l-1.61-.86-10.08-5.42a2.82,2.82,0,0,0-.06,1.94,5.27,5.27,0,0,0,2.76,2.83Z"></path>
    <g opacity=".55">
      <path fill="#35333e" d="M273.66,452.62c0,12.5-18.68,22.63-41.73,22.63s-41.73-10.13-41.73-22.63S208.88,430,231.93,430,273.66,440.13,273.66,452.62Z" opacity=".5" style="mix-blend-mode:multiply"></path>
    </g>
    <path fill="#e9a7d0" d="M252.86,455.3c0,10.51-14.73,19-32.89,19s-32.89-8.52-32.89-19c0-3.21,4.2-11,4.2-11s16.07-8,28.69-8c14.46,0,28.88,8.51,28.88,8.51S252.86,453.16,252.86,455.3Z"></path>
    <path d="M220,474.91c-18.45,0-33.46-8.8-33.46-19.61,0-3.31,4.09-10.95,4.26-11.28a.72.72,0,0,1,.25-.24c.16-.08,16.34-8.08,28.95-8.08,14.45,0,29,8.5,29.17,8.58a.56.56,0,0,1,.23.25c.42.87,4.06,8.56,4.06,10.77C253.43,466.11,238.42,474.91,220,474.91ZM191.7,444.73c-.59,1.13-4,7.79-4,10.57,0,10.18,14.49,18.46,32.31,18.46s32.31-8.28,32.31-18.46c0-1.61-2.72-7.69-3.87-10.11-1.57-.9-15.09-8.34-28.44-8.34C208.31,436.85,193.42,443.9,191.7,444.73Z"></path>
    <path d="M251 461.63a17.43 17.43 0 0 1-2.86 3.5l-8.77-17.06 3.68-1.89ZM252.47 458.22a11.91 11.91 0 0 1-.63 1.79l-8.07-15.71 1.23-.63Z"></path>
    <ellipse cx="219.97" cy="448.96" fill="#f5dbf1" rx="29.77" ry="16.14"></ellipse>
    <path d="M220,465.67c-16.73,0-30.34-7.5-30.34-16.71s13.61-16.72,30.34-16.72,30.34,7.5,30.34,16.72S236.7,465.67,220,465.67Zm0-32.28c-16.1,0-29.19,7-29.19,15.57s13.09,15.56,29.19,15.56,29.19-7,29.19-15.56S236.07,433.39,220,433.39Z"></path>
    <path fill="#7cdbb0" d="M242.22,449c0,5.55-10,10.05-22.25,10.05s-22.25-4.5-22.25-10.05,10-10,22.25-10S242.22,443.41,242.22,449Z"></path>
    <path d="M220,459.58c-12.8,0-22.83-4.67-22.83-10.62s10-10.63,22.83-10.63S242.8,443,242.8,449,232.77,459.58,220,459.58Zm0-20.1c-11.75,0-21.68,4.34-21.68,9.48s9.93,9.47,21.68,9.47,21.68-4.34,21.68-9.47S231.72,439.48,220,439.48Z"></path>
    <polygon fill="#35333e" points="190.82 450.54 220.47 444.64 220.47 451.63 193.53 456.27 190.82 450.54" opacity=".55"></polygon>
    <path fill="#b09efb" d="M341.66,155.7a29.43,29.43,0,0,0-15.58-11.46l-24.68-9.55-52.46,37.36,2.28,26a28.53,28.53,0,0,0,4.66,14.81c11.38,17.06,39.8,18.1,63.49,2.31S353,172.77,341.66,155.7Z"></path>
    <path fill="#181818" d="M284.81,227c-.61,0-1.22,0-1.82,0-12.18-.44-22-5.32-27.59-13.73a29,29,0,0,1-4.76-15.1l-2.28-26a.62.62,0,0,1,.24-.52l52.47-37.36a.55.55,0,0,1,.54-.07l24.68,9.55a30.13,30.13,0,0,1,15.85,11.68h0c11.53,17.31,1.46,44.36-22.45,60.3C308.71,223,296.4,227,284.81,227Zm-35.27-54.64,2.25,25.7a27.88,27.88,0,0,0,4.57,14.54c5.4,8.09,14.87,12.79,26.67,13.22s24.66-3.5,36-11.07c23.39-15.59,33.31-41.92,22.13-58.7a29,29,0,0,0-15.28-11.24l-24.42-9.45Z"></path>
    <path fill="#fff" d="M282.6,220.87c-.58,0-1.17,0-1.74,0-11.66-.43-21-5.1-26.41-13.15l1-.64c5.15,7.74,14.21,12.23,25.49,12.64s23.58-3.35,34.44-10.59C337.7,194.2,347.19,169,336.5,153l1-.64c11,16.56,1.41,42.45-21.48,57.71C305.47,217.07,293.69,220.87,282.6,220.87Z"></path>
    <path fill="#d1c5fc" d="M252,180.76c7.73,11.6,27,12.3,43.14,1.57S318,153.5,310.31,141.9s-27.05-12.3-43.15-1.57S244.29,169.16,252,180.76Z"></path>
    <path fill="#181818" d="M271.68,190.51c-.42,0-.83,0-1.25,0-8.33-.3-15-3.64-18.89-9.41h0c-3.84-5.77-4.35-13.25-1.42-21.06s8.84-14.91,16.73-20.17c16.33-10.89,36-10.11,43.94,1.73s1,30.34-15.31,41.23A43.63,43.63,0,0,1,271.68,190.51Zm19-57.21a42.63,42.63,0,0,0-23.19,7.51c-7.68,5.12-13.47,12.09-16.29,19.61s-2.33,14.57,1.31,20,10,8.61,18,8.9,16.68-2.37,24.37-7.49c15.8-10.54,22.52-28.31,15-39.63C305.88,136.3,298.8,133.3,290.67,133.3Z"></path>
    <path fill="#d1c5fc" d="M255.47,178.46c6.51,9.76,23.29,10,37.48.55s20.41-25,13.9-34.81-23.29-10-37.47-.55S249,168.69,255.47,178.46Z"></path>
    <path fill="#181818" d="M271.78,186.5c-7.17,0-13.36-2.59-16.78-7.73h0c-3.26-4.88-3.57-11.29-.87-18.05s8-12.91,14.93-17.55,14.76-7.13,21.94-7,13.08,2.86,16.33,7.75,3.57,11.29.87,18.05-8,12.91-14.93,17.55A39.61,39.61,0,0,1,271.78,186.5ZM256,178.14c6.33,9.48,22.78,9.66,36.68.39,6.77-4.51,11.92-10.55,14.5-17s2.28-12.43-.76-17-8.5-7.12-15.38-7.23-14.53,2.33-21.29,6.84-11.92,10.55-14.5,17-2.29,12.43.75,17Z"></path>
    <path fill="#eebd34" d="M290.59,142.58a10.06,10.06,0,0,0-5.37-4l-8.5-3.29-18.08,12.87.79,9a9.81,9.81,0,0,0,1.6,5.11c3.92,5.88,13.72,6.23,21.88.79S294.52,148.46,290.59,142.58Z"></path>
    <path fill="#181818" d="M271,167.52h-.64c-4.32-.16-7.8-1.9-9.81-4.9a10.42,10.42,0,0,1-1.7-5.4l-.78-9a.57.57,0,0,1,.24-.52l18.08-12.87a.58.58,0,0,1,.54-.07l8.5,3.29a10.73,10.73,0,0,1,5.64,4.17h0c2,3,2.27,6.89.75,10.94a22.15,22.15,0,0,1-8.59,10.36A22.42,22.42,0,0,1,271,167.52Zm-11.76-19,.76,8.64a9.2,9.2,0,0,0,1.51,4.84c1.79,2.68,4.95,4.24,8.89,4.39a22.39,22.39,0,0,0,20.35-13.57c1.38-3.69,1.16-7.2-.63-9.89h0a9.61,9.61,0,0,0-5.08-3.73L276.8,136Z"></path>
    <path fill="#fff" d="M259.7,151.21c2.67,4,9.32,4.24,14.87.55s7.88-9.94,5.22-13.94-9.32-4.24-14.87-.54S257,147.22,259.7,151.21Z"></path>
    <path fill="#181818" d="M266.48,155H266a7.69,7.69,0,0,1-7.34-11,15.32,15.32,0,0,1,5.91-7.13c5.8-3.87,12.83-3.55,15.67.7s.42,10.87-5.38,14.73A15.33,15.33,0,0,1,266.48,155ZM273,135.23a14.33,14.33,0,0,0-7.79,2.53,14.08,14.08,0,0,0-5.47,6.58,7.11,7.11,0,0,0,.41,6.56h0a7.13,7.13,0,0,0,5.9,2.9,14.24,14.24,0,0,0,8.17-2.52c5.28-3.52,7.55-9.41,5.06-13.14A7.27,7.27,0,0,0,273,135.23Z"></path>
    <path fill="#35333e" d="M325,196.75l-20.09-20.08c-10.39-10.4-9.63-26.69,0-37.19a23.34,23.34,0,0,1,2.67-2.42l-6.13-2.37,0,0c-6.85-2.84-15.75-2.65-24.55.66l-.09,0h0c-3.23-1.34-7.78-.73-11.77,1.93s-6.39,6.78-6.31,10.33c-6.93,7.52-10.48,16.52-9.66,24.43h0l2.28,26a28.53,28.53,0,0,0,4.66,14.81c11.38,17.06,39.8,18.1,63.49,2.31a69,69,0,0,0,14.41-12.78A25.38,25.38,0,0,1,325,196.75Z" opacity=".55"></path>
    <path fill="#e18920" d="M219.68,451.71a3.58,3.58,0,0,1-3.49-2.79L175.38,267.59a72.27,72.27,0,0,1,24.51-71.85l66.39-55a3.58,3.58,0,1,1,4.57,5.51l-66.39,55A65.17,65.17,0,0,0,182.37,266l40.8,181.33a3.58,3.58,0,0,1-2.7,4.29A4.32,4.32,0,0,1,219.68,451.71Z"></path>
    <path fill="#181818" d="M219.68,452.29a4.14,4.14,0,0,1-4.06-3.25l-40.8-181.33a72.85,72.85,0,0,1,24.7-72.41l66.39-55a4.17,4.17,0,0,1,5.86.55,4.17,4.17,0,0,1-.55,5.85l-66.4,55a64.57,64.57,0,0,0-21.89,64.19l40.8,181.33a4.16,4.16,0,0,1-3.14,5A4.7,4.7,0,0,1,219.68,452.29Zm48.88-311.83a3,3,0,0,0-1.91.69l-66.4,55a71.74,71.74,0,0,0-24.31,71.28l40.81,181.33a3,3,0,0,0,3.59,2.27,3,3,0,0,0,2.27-3.59l-40.8-181.33a65.73,65.73,0,0,1,22.28-65.33l66.39-55a3,3,0,0,0,1.08-2,3,3,0,0,0-.68-2.2A3,3,0,0,0,268.56,140.46Z"></path>
    <path fill="#35333e" d="M179,266l40.82,181.33a3.59,3.59,0,0,1-1.83,4,3.54,3.54,0,0,1-1.84-2.37l-40.8-181.33a72.28,72.28,0,0,1,24.51-71.84l66.4-55a3.36,3.36,0,0,1,.6-.41,3.42,3.42,0,0,1,1.1.88,3.58,3.58,0,0,1-.48,5l-66.38,55A65.17,65.17,0,0,0,179,266Z" opacity=".4"></path>
    <path fill="#f8e9b9" d="M180.7,282.1a7.16,7.16,0,0,1-7-5.59l-1.83-8.14A75.84,75.84,0,0,1,197.6,193l1-.81a7.16,7.16,0,1,1,9.15,11l-1,.82a61.62,61.62,0,0,0-20.88,61.22l1.83,8.13a7.18,7.18,0,0,1-7,8.74Z"></path>
    <path fill="#181818" d="M180.7,282.67a7.78,7.78,0,0,1-7.54-6l-1.83-8.13a76.42,76.42,0,0,1,25.9-76l1-.82a7.74,7.74,0,0,1,9.87,11.92l-1,.81a61,61,0,0,0-20.69,60.65l1.83,8.13a7.74,7.74,0,0,1-5.85,9.25A7.51,7.51,0,0,1,180.7,282.67Zm22.45-91.57a6.55,6.55,0,0,0-4.2,1.51l-1,.81a75.28,75.28,0,0,0-25.52,74.83l1.83,8.13a6.63,6.63,0,0,0,6.42,5.14,6.59,6.59,0,0,0,6.43-8l-1.83-8.14a62.15,62.15,0,0,1,21.08-61.78l1-.82a6.58,6.58,0,0,0-4.21-11.65Z"></path>
    <path fill="#35333e" d="M186.32,279.14a6.54,6.54,0,0,1-7.82-4.95l-1.67-7.43a69.29,69.29,0,0,1,23.49-68.87l.89-.74a6.54,6.54,0,0,1,9.1.74,7.16,7.16,0,0,0-11.73-5.72l-1,.81a75.84,75.84,0,0,0-25.71,75.39l1.83,8.14a7.16,7.16,0,0,0,12.82,2.57Z" opacity=".4"></path>
    <path fill="#181818" d="M204 206.19a.58.58 0 0 1-.57-.52 8.49 8.49 0 0 0-6.94-7.33.58.58 0 0 1-.46-.67.58.58 0 0 1 .67-.46c7.12 1.34 7.87 8.28 7.88 8.35a.57.57 0 0 1-.52.62ZM197.49 213.79a.58.58 0 0 1-.58-.52A8.47 8.47 0 0 0 190 206a.58.58 0 0 1-.46-.68.57.57 0 0 1 .67-.45c7.12 1.33 7.87 8.27 7.88 8.34a.57.57 0 0 1-.52.62ZM193 220.42a.59.59 0 0 1-.52-.34 8.48 8.48 0 0 0-8.94-4.68.56.56 0 0 1-.65-.49.57.57 0 0 1 .49-.65c7.16-1 10.12 5.28 10.15 5.35a.58.58 0 0 1-.29.76A.69.69 0 0 1 193 220.42ZM189 228.42a.6.6 0 0 1-.44-.2 8.47 8.47 0 0 0-9.9-1.94.57.57 0 1 1-.48-1c6.57-3 11.21 2.17 11.25 2.23a.57.57 0 0 1 0 .81A.62.62 0 0 1 189 228.42ZM175.09 238.66a.57.57 0 0 1-.39-1c5.33-4.91 11.34-1.37 11.4-1.33a.57.57 0 0 1-.6 1 8.49 8.49 0 0 0-10 1.19A.58.58 0 0 1 175.09 238.66ZM174.2 250.48a.5.5 0 0 1-.31-.1.56.56 0 0 1-.17-.79c3.94-6.07 10.65-4.12 10.71-4.1a.57.57 0 0 1 .39.71.58.58 0 0 1-.72.39 8.49 8.49 0 0 0-9.42 3.63A.59.59 0 0 1 174.2 250.48ZM175.53 263l-.17 0a.59.59 0 0 1-.38-.72c2.14-6.92 9.1-6.88 9.19-6.88a.56.56 0 0 1 .56.58.57.57 0 0 1-.57.57h0a8.47 8.47 0 0 0-8 6.07A.57.57 0 0 1 175.53 263ZM177 273.58l-.17 0a.58.58 0 0 1-.38-.72 9.73 9.73 0 0 1 9.18-6.88.58.58 0 0 1 .57.58.55.55 0 0 1-.59.57 8.5 8.5 0 0 0-8.06 6.07A.59.59 0 0 1 177 273.58Z"></path>
    <path fill="#35333e" d="M1010.67,335.42,934.78,299a7.4,7.4,0,0,0-2.53-.62,12.29,12.29,0,0,0-6.07,1l-8.07,3.88c-1.26.61-2,1.37-2.19,2.15s.33,1.48,1.36,2l2.86,1.38c-.35.25-.7.51-1.08.83-7.19,5.1-20.6,17.37-19.8,27.28.1,1.29-.68,2.39-2.28,3.19a14.54,14.54,0,0,1-6.3,1.19c-15.11.07-33.46,4.19-46.86,7.2-3.09.69-5.78,1.29-8.07,1.76L832,348.41a7.44,7.44,0,0,0-2.53-.63,14,14,0,0,0-1.6,0,11.75,11.75,0,0,0-4.46,1.06l-8.07,3.88c-1.26.6-2,1.36-2.2,2.15s.34,1.48,1.37,2l75.89,36.45a7.51,7.51,0,0,0,2.54.62,10.29,10.29,0,0,0,1.58,0,11.71,11.71,0,0,0,4.48-1.06L907,389c1.25-.61,2-1.37,2.18-2.15s-.33-1.49-1.37-2l-3.52-1.69c7.3-5.47,19.2-17,18.48-26.31-.11-1.3.68-2.4,2.26-3.19a14.7,14.7,0,0,1,6.32-1.19c15.07-.06,33.4-4.18,46.78-7.18,3.26-.74,6.09-1.37,8.47-1.86a33.19,33.19,0,0,0,3.68-1l2.86,1.36a7.63,7.63,0,0,0,2.53.63,12.31,12.31,0,0,0,6-1l8.09-3.88c1.25-.61,2-1.37,2.18-2.15S1011.71,335.93,1010.67,335.42Z" opacity=".3" style="mix-blend-mode:multiply"></path>
    <path fill="#35333e" d="M922.52 358.55a100.61 100.61 0 0 0-45-15.1c-3.48-.3-6.54-.39-9-.37h-.15c-8.9 1.47-17.64 3.44-24.66 5-3.21.72-6 1.34-8.32 1.82l-.12 0-.83-.4L832 348.41a7.44 7.44 0 0 0-2.53-.63 14 14 0 0 0-1.6 0 11.75 11.75 0 0 0-4.46 1.06l-8.07 3.88c-1.26.6-2 1.36-2.2 2.15s.34 1.48 1.37 2l75.89 36.45a7.51 7.51 0 0 0 2.54.62 10.29 10.29 0 0 0 1.58 0 11.71 11.71 0 0 0 4.48-1.06L907 389c1.25-.61 2-1.37 2.18-2.15a1.57 1.57 0 0 0-.74-1.61L903.92 383 904 383c8-5.94 17.65-15.87 18.6-24.31v-.07ZM995.71 344.47a12.31 12.31 0 0 0 6-1l8.09-3.88c1.25-.61 2-1.37 2.18-2.15s-.32-1.48-1.36-2L934.78 299a7.4 7.4 0 0 0-2.53-.62 12.29 12.29 0 0 0-6.07 1l-8.07 3.88c-1.26.61-2 1.37-2.19 2.15s.33 1.48 1.36 2l2.86 1.38 70.18 33.71 2.86 1.36A7.63 7.63 0 0 0 995.71 344.47Z" opacity=".3" style="mix-blend-mode:multiply"></path>
    <path fill="#8374ee" d="M795.24,377.86c2.39,13.36,24.94,23.84,52.39,23.84s50.25-10.6,52.42-24.06a13.14,13.14,0,0,0,0-4.11s0,0,0,0c-1.16-7.78-9.09-13.78-17.09-17.37-12.5-5.51-27.21-7.37-40.72-6.67-.49,0-3.82.25-4.57.34-13.64,1.24-31.14,6.18-38.89,16C795.65,369.52,794.46,374.33,795.24,377.86Z"></path>
    <path fill="#0b0602" d="M847.63,402.1c-27.63,0-50.31-10.38-52.78-24.16-.86-3.9.57-8.77,3.63-12.4,7.88-10,25.4-14.87,39.17-16.13.7-.08,4.07-.33,4.6-.33,14.78-.78,29.31,1.6,40.88,6.7,4.74,2.12,15.9,8.11,17.33,17.67h0v0a14,14,0,0,1,0,4.25C898.23,391.38,875,402.1,847.63,402.1Zm.09-52.37c-1.81,0-3.62,0-5.45.14-.48,0-3.78.25-4.54.33-13.61,1.25-30.9,6.06-38.63,15.84-2.88,3.41-4.27,8.12-3.47,11.74h0c2.36,13.19,25.19,23.52,52,23.52,27,0,49.88-10.43,52-23.73a13.13,13.13,0,0,0,0-4,.25.25,0,0,1,0-.08c-1.39-9.16-12.25-15-16.86-17C872.78,352.08,860.48,349.73,847.72,349.73Z"></path>
    <path d="M900.18,383.32c.06-.69,0-.29,0-7.8a14.76,14.76,0,0,1-.17,2.12c-2.17,13.46-24.85,24.06-52.42,24.06s-50-10.48-52.39-23.84c-.32-1.43-.21-6.31-.21,4.48,0,8.44,8.06,15.19,16.75,19.16,22.63,10.5,58.41,9,77.34-3.08a29.47,29.47,0,0,0,7.66-6.79,16.87,16.87,0,0,0,2.79-5.2,5,5,0,0,0,.2-.7A11.78,11.78,0,0,0,900.18,383.32Z"></path>
    <path fill="#fff" d="M804.5,367.08c-6.82,13.89,14.82,24,28.5,25.67a87.09,87.09,0,0,0,12.5,1.17,81.62,81.62,0,0,0,33.88-6.12c6-2.4,10.63-6.78,12.28-12.17a10.76,10.76,0,0,0-.15-7.11c-2.57-11-10.57-30.15-23.33-39.91-3.75-2.87-3.89-6.84-.36-9.8,11.77-9.87,18.66-29.69,23.08-38.67,6.82-13.89-14.82-24-28.51-25.67a86.72,86.72,0,0,0-12.49-1.16A81.67,81.67,0,0,0,816,259.42c-6,2.4-10.63,6.78-12.27,12.18a10.74,10.74,0,0,0,.15,7.1c2.56,11,10.57,30.15,23.33,39.92,3.75,2.86,3.89,6.83.36,9.79C815.81,338.28,808.92,358.1,804.5,367.08Z"></path>
    <path fill="#0b0602" d="M847.57,394.3h-2.08a89.11,89.11,0,0,1-12.55-1.17c-10.54-1.26-24.17-7-28.63-15.23a11.4,11.4,0,0,1-.14-11h0c.87-1.78,1.83-3.95,2.93-6.46,4.54-10.28,10.74-24.37,20.24-32.33a5.86,5.86,0,0,0,2.42-4.57,6.14,6.14,0,0,0-2.77-4.65c-13.6-10.4-21.29-30.8-23.46-40.13a11,11,0,0,1-.15-7.29c1.64-5.35,6.19-9.88,12.5-12.41a81.77,81.77,0,0,1,34-6.14,87.36,87.36,0,0,1,12.55,1.16c10.69,1.28,24.33,7.33,28.62,15.23a11.37,11.37,0,0,1,.15,11c-.88,1.78-1.83,3.95-2.94,6.46-4.53,10.29-10.73,24.37-20.23,32.34a5.83,5.83,0,0,0-2.42,4.57,6.14,6.14,0,0,0,2.76,4.64c13.6,10.4,21.3,30.8,23.47,40.13a11,11,0,0,1,.14,7.29c-1.63,5.36-6.18,9.88-12.49,12.41A81.21,81.21,0,0,1,847.57,394.3Zm-42.74-27.05a10.66,10.66,0,0,0,.14,10.29c4.17,7.69,17.55,13.59,28.08,14.85a87.8,87.8,0,0,0,12.46,1.16,81.31,81.31,0,0,0,33.73-6.09c6.1-2.45,10.5-6.8,12.07-11.94a10.35,10.35,0,0,0-.16-6.88c-2.15-9.27-9.77-29.47-23.2-39.74a6.86,6.86,0,0,1-3.05-5.22,6.54,6.54,0,0,1,2.68-5.15c9.37-7.85,15.53-21.85,20-32.07,1.1-2.52,2.06-4.69,2.94-6.48a10.68,10.68,0,0,0-.13-10.3c-4.17-7.69-17.56-13.58-28.08-14.84a86.35,86.35,0,0,0-12.46-1.16,81.22,81.22,0,0,0-33.74,6.09c-6.1,2.45-10.49,6.8-12.06,11.93a10.41,10.41,0,0,0,.15,6.88c2.16,9.28,9.77,29.47,23.2,39.74a6.85,6.85,0,0,1,3.06,5.22,6.57,6.57,0,0,1-2.68,5.15c-9.37,7.86-15.54,21.85-20,32.07-1.11,2.52-2.07,4.7-2.95,6.49Z"></path>
    <path fill="#eebd34" d="M891.66,375.63a10.76,10.76,0,0,0-.15-7.11c-2.12-9.1-8-23.74-17.12-34.06-47-6.52-61.68,14.78-61.74,14.87-3.43,6.87-6.07,13.52-8.15,17.75-5.32,10.84,6.69,19.4,18.72,23.41h0c1.79.46,3.41.92,4.94,1.4a44.62,44.62,0,0,0,4.84.86,87.09,87.09,0,0,0,12.5,1.17,81.62,81.62,0,0,0,33.88-6.12C885.35,385.4,890,381,891.66,375.63Z"></path>
    <path fill="#0b0602" d="M847.57,394.3h-2.08a89.11,89.11,0,0,1-12.55-1.17,46.12,46.12,0,0,1-4.87-.87c-1.66-.52-3.27-1-4.94-1.4-9.81-3.27-17-8.57-19.4-14.17a11.36,11.36,0,0,1,.44-9.76c.87-1.78,1.83-3.95,2.94-6.46,1.51-3.43,3.22-7.31,5.21-11.3.17-.26,15.27-21.56,62.12-15.07a.4.4,0,0,1,.23.12c9.24,10.41,15,24.94,17.2,34.23a11,11,0,0,1,.14,7.29c-1.63,5.36-6.18,9.88-12.49,12.41A81.21,81.21,0,0,1,847.57,394.3Zm9.91-60.7c-33.19,0-44.4,15.75-44.52,15.94-2,3.92-3.67,7.8-5.18,11.22-1.11,2.52-2.06,4.7-2.95,6.49a10.65,10.65,0,0,0-.42,9.14c2.27,5.41,9.34,10.56,18.93,13.75,1.65.42,3.27.88,4.93,1.4a44.24,44.24,0,0,0,4.78.85,87.8,87.8,0,0,0,12.46,1.16,81.31,81.31,0,0,0,33.73-6.09c6.1-2.45,10.5-6.8,12.07-11.94h0a10.35,10.35,0,0,0-.16-6.88c-2.14-9.2-7.85-23.54-16.94-33.83A122.91,122.91,0,0,0,857.48,333.6Z"></path>
    <path fill="#8374ee" d="M794,271.82c2.45,13.36,25.54,23.84,53.66,23.84s51.47-10.59,53.69-24.06a12.85,12.85,0,0,0,0-4.11s0,0,0,0c-1.18-7.79-9.31-13.78-17.5-17.37-12.81-5.51-27.88-7.37-41.71-6.67-.5,0-3.91.25-4.68.33-14,1.25-31.9,6.19-39.84,16C794.39,263.48,793.17,268.29,794,271.82Z"></path>
    <path fill="#0b0602" d="M847.63,296.06c-28.29,0-51.52-10.39-54-24.16-.88-3.9.58-8.77,3.72-12.41,8.07-10,26-14.86,40.11-16.12.74-.08,4.19-.34,4.71-.34,15.15-.77,30,1.61,41.87,6.7,4.84,2.13,16.23,8.09,17.73,17.62a.51.51,0,0,1,0,.13h0a13.45,13.45,0,0,1,0,4.21C899.45,285.34,875.69,296.06,847.63,296.06Zm.08-52.38c-1.85,0-3.7,0-5.57.15-.47,0-3.86.24-4.66.33-13.94,1.24-31.65,6.06-39.57,15.84-2.94,3.41-4.37,8.12-3.55,11.73v0c2.41,13.19,25.81,23.51,53.27,23.51,27.69,0,51.1-10.42,53.3-23.72a12.51,12.51,0,0,0,0-4,.25.25,0,0,1,0-.08c-1.42-9.16-12.55-15-17.27-17C873.39,246,860.79,243.68,847.71,243.68Z"></path>
    <path d="M901.46,277.28c0-.69,0-.29,0-7.8a13.2,13.2,0,0,1-.18,2.12c-2.22,13.47-25.45,24.06-53.69,24.06s-51.42-11.39-53.87-24.75v5.38c0,8.45,8.26,15.2,17.16,19.17,23.18,10.5,59.83,9,79.22-3.09a29.53,29.53,0,0,0,7.84-6.78,16.53,16.53,0,0,0,2.86-5.2,5,5,0,0,0,.2-.7A11.46,11.46,0,0,0,901.46,277.28Z"></path>
    <path fill="#e18920" d="M813.51,351.2c2.62,5.15,16.93,6.5,33.18,2.9s28.8-10.92,28.86-16.72a3.9,3.9,0,0,0-.36-1.69h0c-1.39-3-6.64-4.45-11.7-4.87a77.79,77.79,0,0,0-24.71,2.6c-.29.06-2.24.6-2.68.73-8,2.3-17.88,6.62-21.58,11.65C813,347.72,812.73,349.85,813.51,351.2Z"></path>
    <path fill="#0b0602" d="M829.51,356.5c-8.4,0-14.61-1.78-16.32-5.13-.91-1.57-.51-3.85,1-5.81C818,340.42,828,336.11,836,333.79c.41-.13,2.38-.67,2.7-.74a77.72,77.72,0,0,1,24.82-2.61c3.74.31,10.26,1.39,12,5.05l0,.08a4.23,4.23,0,0,1,.38,1.85c-.07,6-12.6,13.38-29.15,17A81,81,0,0,1,829.51,356.5ZM859.13,331a82.25,82.25,0,0,0-20.26,2.76c-.29.06-2.22.59-2.66.73-7.57,2.18-17.72,6.5-21.4,11.51-1.34,1.7-1.73,3.71-1,5v0c2.55,5,16.95,6.21,32.77,2.71s28.51-10.72,28.57-16.36a3.51,3.51,0,0,0-.31-1.5l0-.07c-1.14-2.43-5.29-4.12-11.38-4.64C862.07,331.07,860.62,331,859.13,331Z"></path>
    <path fill="#fff" d="M309.94,615.5l-61.15-33.56a35.38,35.38,0,0,0-33.44-.32L151.87,614.9a8.93,8.93,0,0,0-.15,15.74l61.15,33.56a35.38,35.38,0,0,0,33.44.32l63.48-33.28A8.93,8.93,0,0,0,309.94,615.5Z"></path>
    <path fill="#0b0602" d="M229.89,669a35.67,35.67,0,0,1-17.2-4.42L151.54,631a9.3,9.3,0,0,1,.16-16.4l63.47-33.28a35.71,35.71,0,0,1,33.8.32l61.15,33.56h0a9.31,9.31,0,0,1-.15,16.4l-63.48,33.28A35.67,35.67,0,0,1,229.89,669Zm1.88-91a35,35,0,0,0-16.25,4L152,615.23a8.57,8.57,0,0,0-.14,15.09l61.15,33.55a34.91,34.91,0,0,0,33.09.32l63.48-33.28a8.56,8.56,0,0,0,.14-15.08h0l-61.15-33.56A35,35,0,0,0,231.77,577.94Z"></path>
    <path fill="#35333e" d="M310,638.68a64.87,64.87,0,0,0-17.51-6.15,93,93,0,0,0-14.52-2.15,59.9,59.9,0,0,0-11.13.47c-3.45.37-9.85,1.2-9.85,1.2l0,0c-.53.07-1.08.13-1.57.22a18.69,18.69,0,0,0-4.06,1.2l-4.67-1.86-12,1.27a33.14,33.14,0,0,0-6.56,2.62,23.58,23.58,0,0,0-5.24,3.63q-4.65,4.43-2.91,9t9,8.43A75,75,0,0,0,247.77,663a112.81,112.81,0,0,0,22.61,2.72c1.47,0,2.9,0,4.31,0,7.44.12,21.21-2,27.11-3.48s10.42-3.71,13.54-6.67,4-5.71,2.92-8.65S314.47,641.19,310,638.68Zm-68,4a8.19,8.19,0,0,1,2-2.76,17.62,17.62,0,0,1,3.62-2.57,2.32,2.32,0,0,0,.2,1q.72,1.59,3.93,3A25.25,25.25,0,0,0,242,642.63Zm41.4,6.54a4,4,0,0,1-.4.28c-.18-.16-.35-.33-.56-.5Zm-6.47-11.58,2.08.49-2.47-.55c-.34-.07-.64-.15-.93-.23Zm-13.53,7.09c.69.12,1.4.26,2.14.42,3.17.7,5.34,1.53,6.52,2.47s1.24,1.66.62,2.46c-.67-.11-1.34-.24-2.05-.4q-4.75-1.05-6.57-2.47C263,646.32,262.75,645.49,263.39,644.68Zm30.77,10.14q-3.32,3.15-9.73,4.75c-1.24,0-2.52,0-3.82,0a88.25,88.25,0,0,1-15.95-1.86c.56,0,1.13.08,1.69.1a48.82,48.82,0,0,0,7.23-.26h0l.7-.09.17,0L286,655.9a24.58,24.58,0,0,0,5.33-1.22,9.28,9.28,0,0,0,3.11-1.85c.49-.46,1.33-1.32,2.31-2.33A7.5,7.5,0,0,1,294.16,654.82Z" opacity=".5" style="mix-blend-mode:multiply"></path>
    <path fill="#e279b0" d="M249.42,582.4l-5.79-3.2c2,2.93,4,6,5.79,8.9Z"></path>
    <path fill="#e279b0" d="M249.22,567.65a69.54,69.54,0,0,0-19.43-14.95q-11.46-5.93-20.22-5.29c-5.83.43-16.64,4-19.83,8.37s1.5,9.05,1.5,16.51-.23,15.79,2.94,23.46,7.08,16,12.86,22.4,14.85,9.69,22.43,13.62c3.35,1.73,10.19,9,10.19,9l8.23-4.23-2.79-10q-7.23,0-15.63-4.29a50.2,50.2,0,0,1-14.56-11.37,53.11,53.11,0,0,1-9.77-15.77,46.57,46.57,0,0,1-3.46-17.38q0-8.52,3.54-13.54a12.92,12.92,0,0,1,9.93-5.59q6.39-.57,14.64,3.7c2.45,1.26,8.18,8.63,13.84,16.94l5.79,3.2v5.7c4.73,7.63,8.39,14.52,8.39,16.73q0,13.33-4.94,10.79a6,6,0,0,1-2.51-2.51,9.1,9.1,0,0,1-.94-4.45V588.1c-1.82-2.93-3.8-6-5.79-8.9-6-3.31-15-8.22-17.92-9.75a17.32,17.32,0,0,0-5.3-1.82,9.83,9.83,0,0,0-5,.61l-9.22,3.61s2.12,5.87,2.12,10.12a34.23,34.23,0,0,0,2.39,12.52,39.05,39.05,0,0,0,6.4,10.93,28.39,28.39,0,0,0,8.64,7.17q8.86,4.59,12.71-.91a22.26,22.26,0,0,0,4.4,7.87c2,2.29,9,10.46,9,10.46s4.71-1.94,7.08-3.15c2.64-1.35,4.63-2.34,6.12-5.27s2.24-7,2.24-12.15A54,54,0,0,0,262.49,588,72.89,72.89,0,0,0,249.22,567.65ZM234.7,603c-1.44,1-3.31.87-5.62-.32a13.54,13.54,0,0,1-5.57-5.51,16.56,16.56,0,0,1-2.12-8.37c0-3.11.7-5.15,2.12-6.14s3.27-.9,5.57.3a13.76,13.76,0,0,1,5.62,5.48,16.35,16.35,0,0,1,2.15,8.35Q236.85,601.48,234.7,603Z"></path>
    <path d="M229.36,582.37c-2.51-1.29-4.59-1.38-6.2-.25s-2.37,3.28-2.37,6.63a17.3,17.3,0,0,0,2.2,8.67,14.15,14.15,0,0,0,5.82,5.74,8.13,8.13,0,0,0,3.68,1.05,4.42,4.42,0,0,0,2.54-.77c1.61-1.09,2.42-3.35,2.42-6.7a16.9,16.9,0,0,0-2.24-8.65A14.47,14.47,0,0,0,229.36,582.37Zm5,20.08c-1.26.85-2.89.73-5-.36a13,13,0,0,1-5.33-5.27,16.13,16.13,0,0,1-2-8.07c0-2.89.63-4.78,1.86-5.65a3.16,3.16,0,0,1,1.87-.57,6.89,6.89,0,0,1,3.09.91,13.33,13.33,0,0,1,5.37,5.25,15.77,15.77,0,0,1,2.07,8C236.25,599.67,235.62,601.59,234.36,602.45Z"></path>
    <path d="M249.66,567.25a70.12,70.12,0,0,0-19.6-15.09c-7.7-4-14.61-5.78-20.53-5.35s-16.95,4.08-20.28,8.61c-2,2.78-1.15,5.66-.12,9a25.79,25.79,0,0,1,1.51,7.88v1.44c0,7,0,15,3,22.25s7,15.94,13,22.57c4.57,5.08,11.07,8.18,17.36,11.18,1.82.87,3.55,1.7,5.24,2.57,3.22,1.67,10,8.76,10,8.84a.62.62,0,0,0,.44.18.71.71,0,0,0,.28-.06l8.22-4.24a.61.61,0,0,0,.31-.7l-2.79-10a.59.59,0,0,0-.59-.44c-4.72,0-9.86-1.39-15.34-4.23a49.93,49.93,0,0,1-14.39-11.23,52.6,52.6,0,0,1-9.67-15.6,46.3,46.3,0,0,1-3.41-17.15c0-5.53,1.15-10,3.43-13.2a12.4,12.4,0,0,1,9.49-5.33c4.13-.37,9,.85,14.31,3.63,2.09,1.08,7,7.27,12.1,14.62-5.81-3.2-13-7.16-15.63-8.5A17.73,17.73,0,0,0,220.5,567a10.41,10.41,0,0,0-5.34.64L206,571.29a.6.6,0,0,0-.35.76c0,.06,2.08,5.82,2.08,9.92a35,35,0,0,0,2.43,12.73,39.74,39.74,0,0,0,6.5,11.1,29.2,29.2,0,0,0,8.82,7.33c5.69,2.94,10,2.87,12.78-.22a22.78,22.78,0,0,0,4.16,7c2,2.29,9,10.46,9,10.46a.62.62,0,0,0,.69.16c.19-.08,4.76-2,7.19-3.2,2.65-1.35,4.75-2.42,6.32-5.5s2.3-7.18,2.3-12.42a54.84,54.84,0,0,0-4.8-21.73A73.68,73.68,0,0,0,249.66,567.25Zm14.8,54.07c-1.39,2.73-3.23,3.67-5.86,5-1.91,1-5.44,2.46-6.63,3-1.33-1.56-6.95-8.12-8.7-10.14A21.57,21.57,0,0,1,239,611.5a.59.59,0,0,0-.48-.41.61.61,0,0,0-.59.24c-2.38,3.42-6.29,3.66-12,.73a28,28,0,0,1-8.45-7,38.57,38.57,0,0,1-6.3-10.76,33.83,33.83,0,0,1-2.35-12.3,35.64,35.64,0,0,0-2-9.77l8.68-3.4a9.33,9.33,0,0,1,4.72-.58,16.9,16.9,0,0,1,5.11,1.76c2.9,1.5,11.68,6.32,17.69,9.63,2,2.87,3.9,5.85,5.7,8.73v20.32a9.77,9.77,0,0,0,1,4.74,6.65,6.65,0,0,0,2.76,2.75,3,3,0,0,0,3.07.11c1.88-1.15,2.76-4.78,2.76-11.43,0-2.36-3.66-9.32-8.4-17V582.4a.61.61,0,0,0-.31-.53l-5.57-3.07c-5.7-8.35-11.51-15.75-14.08-17.08-5.57-2.88-10.6-4.15-15-3.76a13.59,13.59,0,0,0-10.37,5.84c-2.41,3.44-3.64,8.11-3.64,13.89a47.5,47.5,0,0,0,3.5,17.6,54,54,0,0,0,9.88,16,51.1,51.1,0,0,0,14.74,11.5,34.88,34.88,0,0,0,15.44,4.36l2.54,9.08-7.4,3.81c-1.39-1.46-7-7.19-10-8.76-1.71-.88-3.52-1.74-5.28-2.58-6.18-2.95-12.57-6-17-10.9-5.83-6.5-9.72-14.88-12.76-22.23-2.92-7.07-2.9-14.55-2.89-21.79v-1.44a27,27,0,0,0-1.56-8.24c-1-3.14-1.74-5.63-.06-7.92,3-4.11,13.68-7.7,19.4-8.12.54,0,1.1-.06,1.67-.06,5.32,0,11.44,1.77,18.22,5.28a69.08,69.08,0,0,1,19.27,14.83,72.72,72.72,0,0,1,13.16,20.13,53.53,53.53,0,0,1,4.7,21.25C266.64,614.49,265.91,618.48,264.46,621.32ZM245.61,581l3.21,1.77v3.17C247.78,584.28,246.7,582.62,245.61,581ZM250,608.66V590.28c4.13,6.77,7.2,12.63,7.2,14.55,0,7.5-1.19,9.8-2.18,10.4a1.84,1.84,0,0,1-1.9-.15,5.47,5.47,0,0,1-2.26-2.26A8.64,8.64,0,0,1,250,608.66Z"></path>
    <rect width="2.66" height="1.2" x="240.85" y="584.57" transform="rotate(-33.52 242.215 585.197)"></rect>
    <rect width="10.62" height="1.2" x="227.3" y="575.79" transform="rotate(-33.52 232.633 576.426)"></rect>
    <rect width="10.62" height="1.2" x="234.87" y="627.15" transform="rotate(-33.39 240.14 627.684)"></rect>
    <path fill="#f5dbf1" d="M240.88,571.16a69.54,69.54,0,0,0-19.43-14.95q-11.46-5.93-20.22-5.29t-13.54,7.16q-4.78,6.52-4.79,17.72a59.29,59.29,0,0,0,4.75,22.79,73.72,73.72,0,0,0,13.42,21.15,70.29,70.29,0,0,0,20.06,15.54,56.17,56.17,0,0,0,10,4.05,29.14,29.14,0,0,0,8.52,1.39L236.76,630q-7.23,0-15.63-4.29a50.2,50.2,0,0,1-14.56-11.37,53.35,53.35,0,0,1-9.78-15.77,46.76,46.76,0,0,1-3.45-17.38q0-8.52,3.53-13.54a13,13,0,0,1,9.94-5.59q6.39-.57,14.64,3.7a53.37,53.37,0,0,1,14.68,11.16A52.32,52.32,0,0,1,246,592a41.39,41.39,0,0,1,3.49,16.37q0,13.35-4.94,10.79a6,6,0,0,1-2.51-2.51,9.1,9.1,0,0,1-1-4.45V585.91l-12.79-6.62v4.22A26.38,26.38,0,0,0,217.37,573a14.38,14.38,0,0,0-8.72-1.84,8.88,8.88,0,0,0-6.36,4.29q-2.35,3.69-2.35,10.06A34.2,34.2,0,0,0,202.33,598a39.05,39.05,0,0,0,6.4,10.93,28.39,28.39,0,0,0,8.64,7.17q8.87,4.59,12.71-.91a22.11,22.11,0,0,0,4.4,7.87,24,24,0,0,0,7.14,5.59q5,2.6,8.92,1.72c2.58-.58,4.63-2.34,6.12-5.27s2.23-7,2.23-12.15a54,54,0,0,0-4.74-21.49A72.89,72.89,0,0,0,240.88,571.16Zm-14.53,35.3c-1.44,1-3.31.87-5.61-.32a13.54,13.54,0,0,1-5.57-5.51,16.53,16.53,0,0,1-2.12-8.37c0-3.11.7-5.15,2.12-6.14s3.27-.9,5.57.3a13.86,13.86,0,0,1,5.61,5.48,16.26,16.26,0,0,1,2.16,8.35Q228.51,605,226.35,606.46Z"></path>
    <path d="M221,585.88c-2.51-1.29-4.59-1.38-6.2-.25s-2.37,3.29-2.37,6.63a17.31,17.31,0,0,0,2.19,8.66,14.24,14.24,0,0,0,5.82,5.75,8.14,8.14,0,0,0,3.69,1.05,4.42,4.42,0,0,0,2.54-.77h0c1.61-1.09,2.42-3.34,2.42-6.7a16.9,16.9,0,0,0-2.24-8.65A14.47,14.47,0,0,0,221,585.88ZM226,606c-1.26.85-2.89.73-5-.36a13,13,0,0,1-5.33-5.27,16,16,0,0,1-2-8.07c0-2.89.62-4.79,1.86-5.65a3.16,3.16,0,0,1,1.87-.57,6.82,6.82,0,0,1,3.08.91,13.35,13.35,0,0,1,5.38,5.25,15.87,15.87,0,0,1,2.07,8C227.91,603.18,227.27,605.1,226,606Z"></path>
    <path d="M241.32,570.76a70.45,70.45,0,0,0-19.6-15.09c-7.7-4-14.61-5.78-20.53-5.35s-10.7,2.93-14,7.41-4.91,10.51-4.91,18.07a60.2,60.2,0,0,0,4.79,23,74.5,74.5,0,0,0,13.54,21.33,70.84,70.84,0,0,0,20.23,15.67,56.44,56.44,0,0,0,10.11,4.1,30.78,30.78,0,0,0,8.38,1.42h.32a.6.6,0,0,0,.57-.75l-2.91-10.72a.59.59,0,0,0-.57-.44h0a33.73,33.73,0,0,1-15.34-4.23A49.8,49.8,0,0,1,207,614a53,53,0,0,1-9.67-15.6,46.39,46.39,0,0,1-3.41-17.16c0-5.53,1.15-10,3.42-13.2a12.43,12.43,0,0,1,9.5-5.33c4.13-.37,8.95.86,14.31,3.63a52.76,52.76,0,0,1,14.52,11,51.91,51.91,0,0,1,9.74,14.87,40.92,40.92,0,0,1,3.44,16.13c0,7.5-1.18,9.8-2.17,10.4a1.84,1.84,0,0,1-1.9-.15,5.41,5.41,0,0,1-2.26-2.26,8.63,8.63,0,0,1-.87-4.16V585.91a.61.61,0,0,0-.32-.54l-12.8-6.61a.59.59,0,0,0-.87.53v2.12a26.85,26.85,0,0,0-10-9,15,15,0,0,0-9.08-1.89,9.44,9.44,0,0,0-6.77,4.56c-1.63,2.54-2.45,6-2.45,10.38a35.09,35.09,0,0,0,2.43,12.74,39.74,39.74,0,0,0,6.5,11.1,29.08,29.08,0,0,0,8.82,7.33c5.69,2.94,10,2.87,12.78-.22a22.78,22.78,0,0,0,4.16,7,24.51,24.51,0,0,0,7.32,5.73c3.46,1.79,6.6,2.39,9.32,1.78s5-2.51,6.52-5.59,2.3-7.18,2.3-12.42a54.86,54.86,0,0,0-4.79-21.73A73.68,73.68,0,0,0,241.32,570.76Zm14.8,54.07c-1.42,2.79-3.29,4.41-5.72,5s-5.29,0-8.5-1.67a23.5,23.5,0,0,1-7-5.45,21.88,21.88,0,0,1-4.28-7.66.59.59,0,0,0-.48-.42.62.62,0,0,0-.58.25c-2.39,3.42-6.3,3.66-12,.73a27.89,27.89,0,0,1-8.45-7,38.33,38.33,0,0,1-6.3-10.76,33.84,33.84,0,0,1-2.35-12.31c0-4.11.76-7.38,2.26-9.74a8.26,8.26,0,0,1,5.94-4,13.85,13.85,0,0,1,8.35,1.78,25.91,25.91,0,0,1,10.67,10.32.59.59,0,0,0,.67.28.61.61,0,0,0,.45-.58v-3.24l11.59,6v25.9a9.8,9.8,0,0,0,1,4.74,6.59,6.59,0,0,0,2.76,2.75,3,3,0,0,0,3.07.11c1.88-1.14,2.75-4.78,2.75-11.43a42.19,42.19,0,0,0-3.54-16.6,53.19,53.19,0,0,0-10-15.22,54.1,54.1,0,0,0-14.85-11.29c-5.57-2.88-10.61-4.14-15-3.76a13.6,13.6,0,0,0-10.37,5.84c-2.41,3.44-3.64,8.11-3.64,13.89a47.5,47.5,0,0,0,3.5,17.6,54,54,0,0,0,9.88,16,51,51,0,0,0,14.74,11.5,34.88,34.88,0,0,0,15.44,4.36l2.57,9.51a31,31,0,0,1-7.56-1.36,55.17,55.17,0,0,1-9.9-4,69.71,69.71,0,0,1-19.89-15.4,73.49,73.49,0,0,1-13.32-21,59.07,59.07,0,0,1-4.7-22.56c0-7.29,1.57-13.14,4.67-17.36a17,17,0,0,1,13.11-6.92c.54,0,1.1-.06,1.66-.06,5.32,0,11.45,1.77,18.23,5.28a69.08,69.08,0,0,1,19.27,14.83A72.72,72.72,0,0,1,253.6,591.7,53.68,53.68,0,0,1,258.29,613C258.29,618,257.56,622,256.12,624.83Z"></path>
  </g>
</svg>
